{"glyphs":{"0":{"ha":856,"x_min":60,"x_max":806,"o":"m 463 994 q 630 949 563 994 q 736 828 697 903 q 790 664 775 753 q 801 488 806 575 q 771 312 797 401 q 696 147 744 222 q 575 24 647 71 q 407 -22 503 -22 q 233 23 301 -22 q 126 143 164 68 q 74 307 88 218 q 64 483 60 396 q 95 661 68 571 q 172 826 122 751 q 293 948 221 901 q 463 994 365 994 m 457 914 q 366 881 404 914 q 303 790 328 847 q 265 661 278 733 q 247 511 251 589 q 245 390 244 453 q 255 269 246 328 q 283 162 264 210 q 335 86 303 114 q 418 58 368 58 q 508 92 471 58 q 567 183 544 125 q 601 312 589 240 q 617 460 613 383 q 618 625 621 544 q 599 771 615 706 q 548 875 582 836 q 457 914 514 914 z "},"1":{"ha":532,"x_min":31,"x_max":467,"o":"m 410 994 l 369 203 q 365 137 368 168 q 358 88 361 106 q 415 90 382 89 q 467 92 447 92 l 461 0 l 83 0 l 88 76 q 149 89 125 78 q 185 128 172 100 q 200 210 199 157 l 229 800 l 68 704 l 31 774 l 338 994 l 410 994 z "},"2":{"ha":726,"x_min":31,"x_max":678,"o":"m 383 994 q 492 981 439 994 q 588 937 546 967 q 653 858 629 907 q 674 736 678 808 q 656 662 672 701 q 606 577 640 622 q 511 476 571 532 q 360 347 451 419 q 227 224 274 281 q 169 129 181 168 l 432 122 q 509 126 475 121 q 563 151 543 131 q 585 215 582 171 l 657 215 l 636 0 l 31 0 q 57 129 35 72 q 115 233 79 186 q 196 322 151 281 q 286 403 240 363 q 434 568 385 490 q 488 718 483 646 q 478 811 490 767 q 436 883 467 856 q 347 911 406 911 q 268 890 304 911 q 217 839 232 868 q 235 803 229 824 q 239 769 240 783 q 216 716 238 743 q 150 690 194 689 q 92 717 111 690 q 74 781 72 743 q 95 849 74 813 q 156 919 117 886 q 253 974 196 953 q 383 994 310 994 z "},"3":{"ha":758,"x_min":31,"x_max":701,"o":"m 321 -22 q 153 9 218 -22 q 60 88 89 40 q 33 181 31 135 q 60 246 36 219 q 122 274 85 272 q 169 262 151 275 q 194 230 186 249 q 200 193 201 211 q 194 164 200 181 q 178 132 189 147 q 230 82 190 99 q 314 65 269 65 q 457 121 406 65 q 514 263 508 176 q 508 333 515 296 q 481 401 501 369 q 421 453 460 433 q 321 472 382 472 q 281 471 304 472 q 242 468 257 469 l 246 556 q 269 554 258 554 q 292 554 281 554 q 401 581 357 554 q 469 648 446 607 q 496 735 493 689 q 488 826 499 786 q 446 889 476 867 q 361 911 415 911 q 303 900 331 911 q 257 872 276 889 q 229 838 238 856 q 245 805 242 824 q 247 775 249 786 q 238 740 247 758 q 210 708 228 721 q 163 696 192 694 q 106 722 125 696 q 86 783 86 747 q 123 874 89 825 q 224 959 157 924 q 388 994 290 994 q 535 971 469 994 q 640 894 601 947 q 672 750 678 840 q 647 666 671 711 q 576 583 624 621 q 449 528 528 546 q 642 435 582 507 q 697 272 701 364 q 642 112 693 178 q 507 12 590 46 q 321 -22 424 -22 z "},"4":{"ha":738,"x_min":1,"x_max":694,"o":"m 264 0 l 268 76 q 328 88 304 78 q 366 128 353 99 q 382 215 379 157 l 383 257 l 1 257 l 7 367 l 517 994 l 589 994 l 557 367 l 694 367 l 688 257 l 551 257 l 547 172 q 544 125 546 144 q 538 86 542 106 l 643 90 l 638 0 l 264 0 m 390 369 l 410 725 l 408 725 l 121 372 l 390 369 z "},"5":{"ha":732,"x_min":42,"x_max":685,"o":"m 672 1063 l 650 853 l 221 844 l 193 576 q 274 601 225 590 q 371 611 322 611 q 517 585 457 611 q 615 515 578 560 q 668 415 651 471 q 682 299 685 360 q 622 122 676 193 q 487 14 568 50 q 315 -22 406 -22 q 163 8 225 -22 q 72 82 101 38 q 43 171 42 126 q 70 236 46 208 q 132 264 94 264 q 179 253 161 265 q 205 222 197 240 q 211 185 213 203 q 206 158 210 174 q 192 128 201 142 q 216 91 196 106 q 263 69 236 76 q 314 61 290 61 q 413 93 374 63 q 472 172 451 124 q 494 271 493 219 q 494 348 497 306 q 474 431 490 390 q 421 497 457 471 q 321 522 385 522 q 245 512 290 522 q 153 472 200 501 l 103 515 l 136 972 l 481 972 q 569 990 538 972 q 601 1063 600 1008 l 672 1063 z "},"6":{"ha":775,"x_min":56,"x_max":715,"o":"m 464 994 q 603 966 550 994 q 682 895 657 938 q 704 813 707 853 q 681 751 703 778 q 621 725 658 725 q 559 751 576 725 q 542 803 542 776 q 548 831 543 814 q 564 861 553 849 q 528 898 556 881 q 460 913 501 915 q 376 883 411 910 q 317 815 342 857 q 276 722 292 772 q 252 619 261 671 q 240 525 243 568 q 290 567 260 547 q 360 601 321 588 q 439 615 399 614 q 572 592 518 617 q 658 524 626 568 q 703 421 690 479 q 713 297 715 363 q 662 138 708 211 q 539 22 615 65 q 365 -22 463 -22 q 174 36 243 -22 q 81 201 106 94 q 64 451 56 307 q 79 569 67 500 q 118 711 92 638 q 189 849 144 785 q 301 954 233 914 q 464 994 369 994 m 400 521 q 333 505 367 521 q 274 463 300 489 q 233 408 249 438 q 237 294 232 354 q 257 181 242 233 q 301 94 272 128 q 374 61 329 61 q 461 90 428 61 q 510 165 494 118 q 529 264 526 213 q 529 342 532 299 q 515 426 526 385 q 476 494 503 468 q 400 521 449 521 z "},"7":{"ha":635,"x_min":38,"x_max":644,"o":"m 251 -22 q 199 1 214 -21 q 183 50 183 22 q 194 106 183 72 q 228 192 206 139 q 289 322 251 244 q 354 460 317 381 q 438 638 392 540 q 539 847 485 736 l 222 849 q 141 828 172 850 q 107 749 110 807 l 38 749 l 57 972 l 644 972 l 639 857 q 546 667 586 758 q 474 483 506 575 q 412 292 442 392 q 347 76 382 192 q 315 8 336 39 q 251 -22 293 -22 z "},"8":{"ha":782,"x_min":64,"x_max":715,"o":"m 367 -22 q 261 -10 315 -22 q 162 30 207 3 q 90 103 117 57 q 67 217 64 150 q 100 323 71 272 q 176 416 129 374 q 272 486 222 458 q 144 610 182 544 q 108 733 106 676 q 142 849 113 800 q 219 931 172 899 q 320 978 265 963 q 429 994 375 994 q 563 968 500 994 q 665 890 626 942 q 700 764 704 839 q 669 670 697 715 q 600 589 642 625 q 515 529 558 553 q 603 453 565 486 q 667 390 642 421 q 703 323 692 358 q 713 236 715 288 q 658 90 708 147 q 531 6 608 33 q 367 -22 454 -22 m 374 61 q 488 103 444 60 q 536 208 532 146 q 530 273 539 243 q 498 331 521 303 q 438 386 475 358 q 349 444 401 414 q 253 337 283 397 q 219 232 222 276 q 256 110 213 157 q 374 61 299 63 m 440 575 q 527 662 493 611 q 564 754 561 713 q 531 871 571 831 q 432 911 492 911 q 353 892 388 911 q 301 840 319 872 q 279 769 282 808 q 297 693 278 731 q 353 626 317 656 q 440 575 390 596 z "},"9":{"ha":775,"x_min":69,"x_max":724,"o":"m 414 994 q 568 958 507 994 q 664 857 629 922 q 711 705 699 792 q 719 518 724 618 q 705 383 717 456 q 668 239 693 310 q 599 108 643 168 q 487 13 554 49 q 324 -22 419 -22 q 181 5 235 -22 q 103 74 126 32 q 82 161 79 117 q 108 224 85 196 q 168 251 131 251 q 229 226 213 251 q 244 174 246 200 q 238 144 244 163 q 221 115 232 126 q 257 78 232 96 q 328 61 282 60 q 411 87 375 63 q 472 151 447 111 q 513 242 496 192 q 537 345 529 292 q 544 449 544 399 q 463 388 517 417 q 347 357 410 360 q 214 381 268 357 q 128 451 160 406 q 83 554 96 496 q 74 676 69 613 q 122 840 79 768 q 240 953 165 911 q 414 994 315 996 m 406 913 q 325 883 357 913 q 276 808 293 854 q 256 708 258 761 q 256 631 254 675 q 271 547 258 588 q 311 479 283 506 q 388 453 339 453 q 453 468 421 453 q 510 508 485 483 q 549 563 535 533 q 547 693 551 631 q 526 805 542 756 q 481 883 510 854 q 406 913 451 913 z "},"A":{"ha":910,"x_min":-18,"x_max":888,"o":"m 514 997 l 774 229 q 793 163 782 206 q 804 88 804 119 l 888 92 l 883 0 l 535 0 l 539 76 q 599 94 582 76 q 614 142 615 113 q 601 201 613 171 l 572 296 l 251 290 l 215 197 q 194 144 207 174 q 168 90 181 114 l 271 94 l 265 0 l -18 0 l -14 79 q 49 101 24 79 q 92 160 74 124 q 131 243 111 197 l 442 997 l 514 997 m 433 771 q 409 697 425 742 q 369 596 393 653 l 286 379 l 547 379 l 481 588 q 454 683 467 635 q 433 771 442 731 z "},"Á":{"ha":910,"x_min":-18,"x_max":888,"o":"m 514 997 l 774 229 q 793 163 782 206 q 804 88 804 119 l 888 92 l 883 0 l 535 0 l 539 76 q 599 94 582 76 q 614 142 615 113 q 601 201 613 171 l 572 296 l 251 290 l 215 197 q 194 144 207 174 q 168 90 181 114 l 271 94 l 265 0 l -18 0 l -14 79 q 49 101 24 79 q 92 160 74 124 q 131 243 111 197 l 442 997 l 514 997 m 433 771 q 409 697 425 742 q 369 596 393 653 l 286 379 l 547 379 l 481 588 q 454 683 467 635 q 433 771 442 731 m 433 1067 l 392 1124 l 564 1288 q 609 1317 586 1308 q 652 1320 632 1325 q 683 1299 672 1315 q 694 1260 696 1281 q 679 1222 693 1240 q 639 1188 665 1203 l 433 1067 z "},"Ă":{"ha":910,"x_min":-18,"x_max":888,"o":"m 514 997 l 774 229 q 793 163 782 206 q 804 88 804 119 l 888 92 l 883 0 l 535 0 l 539 76 q 599 94 582 76 q 614 142 615 113 q 601 201 613 171 l 572 296 l 251 290 l 215 197 q 194 144 207 174 q 168 90 181 114 l 271 94 l 265 0 l -18 0 l -14 79 q 49 101 24 79 q 92 160 74 124 q 131 243 111 197 l 442 997 l 514 997 m 433 771 q 409 697 425 742 q 369 596 393 653 l 286 379 l 547 379 l 481 588 q 454 683 467 635 q 433 771 442 731 m 482 1104 q 394 1119 438 1104 q 317 1167 351 1135 q 263 1251 282 1199 l 331 1294 q 393 1241 353 1264 q 490 1218 433 1218 q 591 1241 549 1218 q 660 1294 633 1264 l 722 1251 q 656 1167 696 1199 q 572 1119 617 1135 q 482 1104 528 1104 z "},"Ắ":{"ha":910,"x_min":-18,"x_max":888,"o":"m 514 997 l 774 229 q 793 163 782 206 q 804 88 804 119 l 888 92 l 883 0 l 535 0 l 539 76 q 599 94 582 76 q 614 142 615 113 q 601 201 613 171 l 572 296 l 251 290 l 215 197 q 194 144 207 174 q 168 90 181 114 l 271 94 l 265 0 l -18 0 l -14 79 q 49 101 24 79 q 92 160 74 124 q 131 243 111 197 l 442 997 l 514 997 m 433 771 q 409 697 425 742 q 369 596 393 653 l 286 379 l 547 379 l 481 588 q 454 683 467 635 q 433 771 442 731 m 472 1058 q 363 1092 419 1058 q 278 1204 307 1126 l 335 1229 q 394 1173 357 1199 q 479 1147 431 1147 q 565 1173 529 1147 q 625 1231 601 1199 l 678 1208 q 590 1094 643 1131 q 472 1058 538 1058 m 485 1218 l 442 1257 l 540 1414 q 571 1447 553 1438 q 606 1454 589 1456 q 636 1442 624 1453 q 651 1394 656 1424 q 621 1340 647 1364 l 485 1218 z "},"Ặ":{"ha":910,"x_min":-18,"x_max":888,"o":"m 514 997 l 774 229 q 793 163 782 206 q 804 88 804 119 l 888 92 l 883 0 l 535 0 l 539 76 q 599 94 582 76 q 614 142 615 113 q 601 201 613 171 l 572 296 l 251 290 l 215 197 q 194 144 207 174 q 168 90 181 114 l 271 94 l 265 0 l -18 0 l -14 79 q 49 101 24 79 q 92 160 74 124 q 131 243 111 197 l 442 997 l 514 997 m 433 771 q 409 697 425 742 q 369 596 393 653 l 286 379 l 547 379 l 481 588 q 454 683 467 635 q 433 771 442 731 m 404 -101 q 458 -126 438 -101 q 476 -186 478 -151 q 452 -245 475 -221 q 396 -269 429 -269 q 340 -245 361 -269 q 321 -186 319 -221 q 349 -126 324 -151 q 404 -101 374 -101 m 482 1104 q 394 1119 438 1104 q 317 1167 351 1135 q 263 1251 282 1199 l 331 1294 q 393 1241 353 1264 q 490 1218 433 1218 q 591 1241 549 1218 q 660 1294 633 1264 l 722 1251 q 656 1167 696 1199 q 572 1119 617 1135 q 482 1104 528 1104 z "},"Ằ":{"ha":910,"x_min":-18,"x_max":888,"o":"m 514 997 l 774 229 q 793 163 782 206 q 804 88 804 119 l 888 92 l 883 0 l 535 0 l 539 76 q 599 94 582 76 q 614 142 615 113 q 601 201 613 171 l 572 296 l 251 290 l 215 197 q 194 144 207 174 q 168 90 181 114 l 271 94 l 265 0 l -18 0 l -14 79 q 49 101 24 79 q 92 160 74 124 q 131 243 111 197 l 442 997 l 514 997 m 433 771 q 409 697 425 742 q 369 596 393 653 l 286 379 l 547 379 l 481 588 q 454 683 467 635 q 433 771 442 731 m 472 1058 q 363 1092 419 1058 q 278 1204 307 1126 l 335 1229 q 394 1173 357 1199 q 479 1147 431 1147 q 565 1173 529 1147 q 625 1231 601 1199 l 678 1208 q 590 1094 643 1131 q 472 1058 538 1058 m 483 1225 l 357 1347 q 328 1401 331 1372 q 347 1449 326 1431 q 378 1461 361 1460 q 411 1453 394 1463 q 439 1421 428 1443 l 529 1264 l 483 1225 z "},"Ẳ":{"ha":910,"x_min":-18,"x_max":888,"o":"m 514 997 l 774 229 q 793 163 782 206 q 804 88 804 119 l 888 92 l 883 0 l 535 0 l 539 76 q 599 94 582 76 q 614 142 615 113 q 601 201 613 171 l 572 296 l 251 290 l 215 197 q 194 144 207 174 q 168 90 181 114 l 271 94 l 265 0 l -18 0 l -14 79 q 49 101 24 79 q 92 160 74 124 q 131 243 111 197 l 442 997 l 514 997 m 433 771 q 409 697 425 742 q 369 596 393 653 l 286 379 l 547 379 l 481 588 q 454 683 467 635 q 433 771 442 731 m 472 1058 q 363 1092 419 1058 q 278 1204 307 1126 l 335 1229 q 394 1173 357 1199 q 479 1147 431 1147 q 565 1173 529 1147 q 625 1231 601 1199 l 678 1208 q 590 1094 643 1131 q 472 1058 538 1058 m 469 1233 q 490 1275 471 1260 q 525 1307 508 1290 q 542 1331 535 1318 q 550 1360 549 1344 q 534 1404 553 1388 q 486 1421 515 1421 q 435 1408 453 1421 q 414 1383 417 1394 q 435 1373 428 1382 q 442 1353 442 1364 q 428 1326 440 1338 q 394 1314 417 1314 q 353 1331 369 1314 q 338 1376 336 1349 q 380 1454 340 1418 q 489 1490 419 1490 q 605 1456 565 1490 q 642 1372 644 1422 q 622 1318 640 1338 q 582 1282 604 1299 q 553 1257 565 1269 q 542 1233 542 1244 l 469 1233 z "},"Ẵ":{"ha":910,"x_min":-18,"x_max":888,"o":"m 514 997 l 774 229 q 793 163 782 206 q 804 88 804 119 l 888 92 l 883 0 l 535 0 l 539 76 q 599 94 582 76 q 614 142 615 113 q 601 201 613 171 l 572 296 l 251 290 l 215 197 q 194 144 207 174 q 168 90 181 114 l 271 94 l 265 0 l -18 0 l -14 79 q 49 101 24 79 q 92 160 74 124 q 131 243 111 197 l 442 997 l 514 997 m 433 771 q 409 697 425 742 q 369 596 393 653 l 286 379 l 547 379 l 481 588 q 454 683 467 635 q 433 771 442 731 m 472 1058 q 363 1092 419 1058 q 278 1204 307 1126 l 335 1229 q 394 1173 357 1199 q 479 1147 431 1147 q 565 1173 529 1147 q 625 1231 601 1199 l 678 1208 q 590 1094 643 1131 q 472 1058 538 1058 m 336 1272 l 286 1303 q 342 1380 304 1350 q 415 1410 379 1410 q 472 1397 451 1410 q 512 1372 493 1385 q 557 1360 531 1360 q 600 1376 581 1360 q 635 1419 619 1392 l 685 1393 q 626 1298 663 1325 q 556 1271 589 1271 q 501 1283 524 1271 q 458 1308 478 1296 q 414 1321 438 1321 q 375 1310 397 1321 q 336 1272 353 1299 z "},"Ǎ":{"ha":910,"x_min":-18,"x_max":888,"o":"m 514 997 l 774 229 q 793 163 782 206 q 804 88 804 119 l 888 92 l 883 0 l 535 0 l 539 76 q 599 94 582 76 q 614 142 615 113 q 601 201 613 171 l 572 296 l 251 290 l 215 197 q 194 144 207 174 q 168 90 181 114 l 271 94 l 265 0 l -18 0 l -14 79 q 49 101 24 79 q 92 160 74 124 q 131 243 111 197 l 442 997 l 514 997 m 433 771 q 409 697 425 742 q 369 596 393 653 l 286 379 l 547 379 l 481 588 q 454 683 467 635 q 433 771 442 731 m 478 1071 l 458 1071 l 200 1278 l 235 1329 l 479 1204 l 738 1329 l 763 1281 l 478 1071 z "},"Â":{"ha":910,"x_min":-18,"x_max":888,"o":"m 514 997 l 774 229 q 793 163 782 206 q 804 88 804 119 l 888 92 l 883 0 l 535 0 l 539 76 q 599 94 582 76 q 614 142 615 113 q 601 201 613 171 l 572 296 l 251 290 l 215 197 q 194 144 207 174 q 168 90 181 114 l 271 94 l 265 0 l -18 0 l -14 79 q 49 101 24 79 q 92 160 74 124 q 131 243 111 197 l 442 997 l 514 997 m 433 771 q 409 697 425 742 q 369 596 393 653 l 286 379 l 547 379 l 481 588 q 454 683 467 635 q 433 771 442 731 m 728 1075 l 481 1197 l 224 1078 l 199 1128 l 486 1331 l 504 1331 l 763 1126 l 728 1075 z "},"Ấ":{"ha":910,"x_min":-18,"x_max":888,"o":"m 514 997 l 774 229 q 793 163 782 206 q 804 88 804 119 l 888 92 l 883 0 l 535 0 l 539 76 q 599 94 582 76 q 614 142 615 113 q 601 201 613 171 l 572 296 l 251 290 l 215 197 q 194 144 207 174 q 168 90 181 114 l 271 94 l 265 0 l -18 0 l -14 79 q 49 101 24 79 q 92 160 74 124 q 131 243 111 197 l 442 997 l 514 997 m 433 771 q 409 697 425 742 q 369 596 393 653 l 286 379 l 547 379 l 481 588 q 454 683 467 635 q 433 771 442 731 m 640 1053 l 471 1136 l 296 1054 l 264 1108 l 475 1253 l 488 1253 l 679 1113 l 640 1053 m 679 1200 l 636 1239 l 735 1396 q 765 1428 747 1419 q 801 1436 783 1438 q 831 1424 818 1435 q 846 1376 850 1406 q 815 1322 842 1346 l 679 1200 z "},"Ậ":{"ha":910,"x_min":-18,"x_max":888,"o":"m 514 997 l 774 229 q 793 163 782 206 q 804 88 804 119 l 888 92 l 883 0 l 535 0 l 539 76 q 599 94 582 76 q 614 142 615 113 q 601 201 613 171 l 572 296 l 251 290 l 215 197 q 194 144 207 174 q 168 90 181 114 l 271 94 l 265 0 l -18 0 l -14 79 q 49 101 24 79 q 92 160 74 124 q 131 243 111 197 l 442 997 l 514 997 m 433 771 q 409 697 425 742 q 369 596 393 653 l 286 379 l 547 379 l 481 588 q 454 683 467 635 q 433 771 442 731 m 404 -101 q 458 -126 438 -101 q 476 -186 478 -151 q 452 -245 475 -221 q 396 -269 429 -269 q 340 -245 361 -269 q 321 -186 319 -221 q 349 -126 324 -151 q 404 -101 374 -101 m 728 1075 l 481 1197 l 224 1078 l 199 1128 l 486 1331 l 504 1331 l 763 1126 l 728 1075 z "},"Ầ":{"ha":910,"x_min":-18,"x_max":888,"o":"m 514 997 l 774 229 q 793 163 782 206 q 804 88 804 119 l 888 92 l 883 0 l 535 0 l 539 76 q 599 94 582 76 q 614 142 615 113 q 601 201 613 171 l 572 296 l 251 290 l 215 197 q 194 144 207 174 q 168 90 181 114 l 271 94 l 265 0 l -18 0 l -14 79 q 49 101 24 79 q 92 160 74 124 q 131 243 111 197 l 442 997 l 514 997 m 433 771 q 409 697 425 742 q 369 596 393 653 l 286 379 l 547 379 l 481 588 q 454 683 467 635 q 433 771 442 731 m 640 1053 l 472 1136 l 297 1054 l 264 1108 l 475 1253 l 488 1253 l 681 1113 l 640 1053 m 632 1222 l 503 1349 q 473 1404 475 1375 q 492 1453 471 1433 q 524 1465 507 1464 q 558 1456 540 1465 q 586 1424 575 1446 l 679 1263 l 632 1222 z "},"Ẩ":{"ha":910,"x_min":-18,"x_max":888,"o":"m 514 997 l 774 229 q 793 163 782 206 q 804 88 804 119 l 888 92 l 883 0 l 535 0 l 539 76 q 599 94 582 76 q 614 142 615 113 q 601 201 613 171 l 572 296 l 251 290 l 215 197 q 194 144 207 174 q 168 90 181 114 l 271 94 l 265 0 l -18 0 l -14 79 q 49 101 24 79 q 92 160 74 124 q 131 243 111 197 l 442 997 l 514 997 m 433 771 q 409 697 425 742 q 369 596 393 653 l 286 379 l 547 379 l 481 588 q 454 683 467 635 q 433 771 442 731 m 640 1053 l 472 1136 l 297 1054 l 264 1108 l 475 1253 l 488 1253 l 681 1113 l 640 1053 m 621 1207 q 642 1249 622 1235 q 678 1281 661 1264 q 694 1305 688 1292 q 703 1335 701 1318 q 687 1379 706 1363 q 638 1396 668 1396 q 587 1383 604 1396 q 567 1357 569 1369 q 588 1347 581 1356 q 593 1326 594 1339 q 581 1300 593 1313 q 547 1288 568 1288 q 504 1305 521 1288 q 489 1350 488 1322 q 532 1428 492 1392 q 642 1464 572 1464 q 758 1431 718 1464 q 794 1346 797 1397 q 775 1292 793 1311 q 735 1256 757 1272 q 706 1231 718 1243 q 694 1207 694 1218 l 621 1207 z "},"Ẫ":{"ha":910,"x_min":-18,"x_max":888,"o":"m 514 997 l 774 229 q 793 163 782 206 q 804 88 804 119 l 888 92 l 883 0 l 535 0 l 539 76 q 599 94 582 76 q 614 142 615 113 q 601 201 613 171 l 572 296 l 251 290 l 215 197 q 194 144 207 174 q 168 90 181 114 l 271 94 l 265 0 l -18 0 l -14 79 q 49 101 24 79 q 92 160 74 124 q 131 243 111 197 l 442 997 l 514 997 m 433 771 q 409 697 425 742 q 369 596 393 653 l 286 379 l 547 379 l 481 588 q 454 683 467 635 q 433 771 442 731 m 640 1053 l 471 1136 l 296 1054 l 264 1108 l 475 1253 l 488 1253 l 679 1113 l 640 1053 m 343 1260 l 293 1290 q 349 1367 311 1338 q 422 1397 386 1397 q 479 1385 458 1397 q 519 1360 500 1372 q 564 1347 538 1347 q 607 1363 588 1347 q 642 1407 626 1379 l 692 1381 q 633 1285 669 1313 q 563 1258 596 1258 q 508 1271 531 1258 q 465 1296 485 1283 q 421 1308 444 1308 q 382 1297 404 1308 q 343 1260 360 1286 z "},"Ä":{"ha":910,"x_min":-18,"x_max":888,"o":"m 514 997 l 774 229 q 793 163 782 206 q 804 88 804 119 l 888 92 l 883 0 l 535 0 l 539 76 q 599 94 582 76 q 614 142 615 113 q 601 201 613 171 l 572 296 l 251 290 l 215 197 q 194 144 207 174 q 168 90 181 114 l 271 94 l 265 0 l -18 0 l -14 79 q 49 101 24 79 q 92 160 74 124 q 131 243 111 197 l 442 997 l 514 997 m 433 771 q 409 697 425 742 q 369 596 393 653 l 286 379 l 547 379 l 481 588 q 454 683 467 635 q 433 771 442 731 m 358 1100 q 303 1126 325 1100 q 281 1193 281 1153 q 308 1265 282 1235 q 371 1296 335 1296 q 426 1268 404 1296 q 446 1201 447 1240 q 420 1131 446 1161 q 358 1100 394 1100 m 594 1100 q 540 1126 561 1100 q 518 1193 518 1153 q 544 1265 518 1235 q 607 1296 571 1296 q 662 1268 642 1296 q 682 1201 682 1240 q 656 1130 682 1160 q 594 1100 631 1100 z "},"Ạ":{"ha":910,"x_min":-18,"x_max":888,"o":"m 514 997 l 774 229 q 793 163 782 206 q 804 88 804 119 l 888 92 l 883 0 l 535 0 l 539 76 q 599 94 582 76 q 614 142 615 113 q 601 201 613 171 l 572 296 l 251 290 l 215 197 q 194 144 207 174 q 168 90 181 114 l 271 94 l 265 0 l -18 0 l -14 79 q 49 101 24 79 q 92 160 74 124 q 131 243 111 197 l 442 997 l 514 997 m 433 771 q 409 697 425 742 q 369 596 393 653 l 286 379 l 547 379 l 481 588 q 454 683 467 635 q 433 771 442 731 m 404 -101 q 458 -126 438 -101 q 476 -186 478 -151 q 452 -245 475 -221 q 396 -269 429 -269 q 340 -245 361 -269 q 321 -186 319 -221 q 349 -126 324 -151 q 404 -101 374 -101 z "},"À":{"ha":910,"x_min":-18,"x_max":888,"o":"m 514 997 l 774 229 q 793 163 782 206 q 804 88 804 119 l 888 92 l 883 0 l 535 0 l 539 76 q 599 94 582 76 q 614 142 615 113 q 601 201 613 171 l 572 296 l 251 290 l 215 197 q 194 144 207 174 q 168 90 181 114 l 271 94 l 265 0 l -18 0 l -14 79 q 49 101 24 79 q 92 160 74 124 q 131 243 111 197 l 442 997 l 514 997 m 433 771 q 409 697 425 742 q 369 596 393 653 l 286 379 l 547 379 l 481 588 q 454 683 467 635 q 433 771 442 731 m 536 1067 l 338 1188 q 301 1222 314 1203 q 288 1262 288 1242 q 301 1299 289 1282 q 335 1320 315 1315 q 378 1317 356 1325 q 422 1288 401 1308 l 582 1125 l 536 1067 z "},"Ả":{"ha":910,"x_min":-18,"x_max":888,"o":"m 514 997 l 774 229 q 793 163 782 206 q 804 88 804 119 l 888 92 l 883 0 l 535 0 l 539 76 q 599 94 582 76 q 614 142 615 113 q 601 201 613 171 l 572 296 l 251 290 l 215 197 q 194 144 207 174 q 168 90 181 114 l 271 94 l 265 0 l -18 0 l -14 79 q 49 101 24 79 q 92 160 74 124 q 131 243 111 197 l 442 997 l 514 997 m 433 771 q 409 697 425 742 q 369 596 393 653 l 286 379 l 547 379 l 481 588 q 454 683 467 635 q 433 771 442 731 m 453 1053 q 474 1097 454 1081 q 511 1131 493 1114 q 530 1156 522 1142 q 539 1186 538 1169 q 522 1231 542 1214 q 471 1249 501 1249 q 417 1235 436 1249 q 396 1210 399 1221 q 418 1199 411 1208 q 425 1178 425 1190 q 410 1149 424 1161 q 376 1136 397 1136 q 332 1154 350 1136 q 315 1201 314 1172 q 337 1258 318 1231 q 391 1303 356 1285 q 474 1321 426 1321 q 594 1286 553 1321 q 633 1197 636 1251 q 613 1142 632 1161 q 571 1104 594 1122 q 542 1078 553 1090 q 529 1053 531 1065 l 453 1053 z "},"Ā":{"ha":910,"x_min":-18,"x_max":888,"o":"m 514 997 l 774 229 q 793 163 782 206 q 804 88 804 119 l 888 92 l 883 0 l 535 0 l 539 76 q 599 94 582 76 q 614 142 615 113 q 601 201 613 171 l 572 296 l 251 290 l 215 197 q 194 144 207 174 q 168 90 181 114 l 271 94 l 265 0 l -18 0 l -14 79 q 49 101 24 79 q 92 160 74 124 q 131 243 111 197 l 442 997 l 514 997 m 433 771 q 409 697 425 742 q 369 596 393 653 l 286 379 l 547 379 l 481 588 q 454 683 467 635 q 433 771 442 731 m 278 1154 l 283 1267 l 668 1267 l 664 1160 l 278 1154 z "},"Ą":{"ha":910,"x_min":-18,"x_max":888,"o":"m 514 997 l 774 229 q 793 163 782 206 q 804 88 804 119 l 888 92 l 883 0 l 535 0 l 539 76 q 599 94 582 76 q 614 142 615 113 q 601 201 613 171 l 572 296 l 251 290 l 215 197 q 194 144 207 174 q 168 90 181 114 l 271 94 l 265 0 l -18 0 l -14 79 q 49 101 24 79 q 92 160 74 124 q 131 243 111 197 l 442 997 l 514 997 m 433 771 q 409 697 425 742 q 369 596 393 653 l 286 379 l 547 379 l 481 588 q 454 683 467 635 q 433 771 442 731 m 635 -376 q 533 -340 571 -376 q 500 -235 496 -303 q 550 -106 504 -165 q 667 -1 596 -46 q 817 69 739 44 l 813 0 q 720 -50 764 -19 q 649 -119 676 -81 q 619 -201 621 -158 q 637 -251 619 -232 q 686 -271 654 -271 q 733 -260 708 -271 q 781 -229 757 -249 l 817 -276 q 733 -347 782 -318 q 635 -376 683 -376 z "},"Å":{"ha":910,"x_min":-18,"x_max":888,"o":"m 514 997 l 774 229 q 793 163 782 206 q 804 88 804 119 l 888 92 l 883 0 l 535 0 l 539 76 q 599 94 582 76 q 614 142 615 113 q 601 201 613 171 l 572 296 l 251 290 l 215 197 q 194 144 207 174 q 168 90 181 114 l 271 94 l 265 0 l -18 0 l -14 79 q 49 101 24 79 q 92 160 74 124 q 131 243 111 197 l 442 997 l 514 997 m 433 771 q 409 697 425 742 q 369 596 393 653 l 286 379 l 547 379 l 481 588 q 454 683 467 635 q 433 771 442 731 m 482 1029 q 399 1047 439 1029 q 333 1100 358 1064 q 306 1193 307 1136 q 331 1284 306 1246 q 397 1344 357 1322 q 481 1365 438 1365 q 562 1348 522 1365 q 628 1294 601 1331 q 656 1200 656 1258 q 631 1108 657 1147 q 565 1049 604 1069 q 482 1029 525 1029 m 486 1090 q 531 1115 511 1090 q 551 1183 551 1139 q 531 1275 551 1243 q 478 1306 511 1307 q 428 1274 444 1306 q 411 1206 411 1242 q 432 1120 411 1151 q 486 1090 453 1089 z "},"Ã":{"ha":910,"x_min":-18,"x_max":888,"o":"m 514 997 l 774 229 q 793 163 782 206 q 804 88 804 119 l 888 92 l 883 0 l 535 0 l 539 76 q 599 94 582 76 q 614 142 615 113 q 601 201 613 171 l 572 296 l 251 290 l 215 197 q 194 144 207 174 q 168 90 181 114 l 271 94 l 265 0 l -18 0 l -14 79 q 49 101 24 79 q 92 160 74 124 q 131 243 111 197 l 442 997 l 514 997 m 433 771 q 409 697 425 742 q 369 596 393 653 l 286 379 l 547 379 l 481 588 q 454 683 467 635 q 433 771 442 731 m 378 1179 q 317 1164 350 1179 q 257 1107 285 1149 l 197 1144 q 279 1252 228 1217 q 378 1288 331 1288 q 442 1277 415 1289 q 492 1250 469 1265 q 537 1223 514 1235 q 586 1211 560 1211 q 651 1235 617 1211 q 706 1296 686 1258 l 767 1264 q 711 1163 742 1199 q 649 1115 681 1128 q 586 1103 617 1103 q 527 1114 553 1103 q 478 1140 501 1125 q 431 1167 454 1156 q 378 1179 407 1179 z "},"Æ":{"ha":1304,"x_min":-33,"x_max":1239,"o":"m -33 0 l -29 76 q 34 99 4 76 q 90 153 64 121 q 140 217 117 186 l 642 885 q 583 883 617 883 q 529 881 550 882 l 533 972 l 1225 972 l 1219 711 l 1143 711 q 1123 830 1147 790 q 1060 883 1099 869 q 976 896 1021 897 l 904 894 q 845 882 867 893 q 813 842 824 871 q 800 758 803 814 l 789 544 l 932 544 q 964 575 951 558 q 982 615 976 592 q 989 669 988 638 l 1075 669 l 1058 343 l 982 343 q 969 428 986 403 q 920 460 953 454 q 843 465 888 467 q 813 465 828 465 q 783 464 799 464 l 771 207 q 766 138 769 169 q 760 89 763 107 l 972 88 q 1063 107 1021 88 q 1131 172 1104 126 q 1163 294 1158 217 l 1239 294 l 1215 0 l 492 0 l 496 78 q 553 89 531 79 q 587 125 575 99 q 600 201 599 151 l 604 294 q 458 291 533 293 q 311 288 383 289 l 256 211 q 206 144 231 176 q 156 89 181 113 l 156 88 l 265 92 l 260 0 l -33 0 m 374 375 l 610 375 l 632 733 l 631 733 q 597 681 613 704 q 563 633 581 658 q 517 571 544 608 l 374 375 z "},"B":{"ha":897,"x_min":51,"x_max":847,"o":"m 460 975 q 715 915 624 976 q 793 728 806 854 q 765 646 789 686 q 694 574 740 606 q 578 525 647 542 l 578 524 q 783 438 719 508 q 843 275 847 368 q 792 125 839 186 q 670 32 746 64 q 497 0 594 0 l 51 0 l 56 76 q 115 90 93 78 q 147 133 138 103 q 160 217 157 163 l 189 765 q 194 835 192 803 q 200 885 197 867 q 147 883 178 883 q 97 881 115 882 l 103 972 q 280 974 192 974 q 460 975 368 974 m 465 460 q 401 460 429 460 q 343 457 372 460 l 331 203 q 325 134 329 165 q 318 85 321 103 q 368 84 343 85 q 417 84 393 83 q 458 85 440 85 q 601 138 550 88 q 656 275 651 189 q 633 385 660 344 q 563 443 607 426 q 465 460 518 460 m 456 893 q 405 885 425 893 q 374 850 385 876 q 360 771 363 824 l 347 542 q 389 542 368 542 q 429 543 410 543 q 535 572 496 546 q 594 642 575 599 q 614 738 613 686 q 593 833 617 799 q 532 881 569 867 q 456 893 494 894 z "},"C":{"ha":957,"x_min":53,"x_max":925,"o":"m 568 994 q 695 976 631 994 q 817 921 760 957 l 818 921 l 815 985 l 913 985 l 896 663 l 818 663 q 745 848 807 783 q 579 913 683 913 q 447 880 506 913 q 344 790 388 847 q 276 657 300 732 q 246 497 251 582 q 275 278 240 374 q 379 128 310 182 q 544 72 449 74 q 720 112 631 71 q 878 239 810 153 l 925 192 q 780 57 856 103 q 633 -6 704 11 q 504 -22 563 -22 q 314 16 399 -22 q 170 122 229 54 q 82 278 111 189 q 58 472 53 368 q 99 661 64 568 q 197 829 133 754 q 354 949 261 904 q 568 994 447 994 z "},"Ć":{"ha":957,"x_min":53,"x_max":925,"o":"m 568 994 q 695 976 631 994 q 817 921 760 957 l 818 921 l 815 985 l 913 985 l 896 663 l 818 663 q 745 848 807 783 q 579 913 683 913 q 447 880 506 913 q 344 790 388 847 q 276 657 300 732 q 246 497 251 582 q 275 278 240 374 q 379 128 310 182 q 544 72 449 74 q 720 112 631 71 q 878 239 810 153 l 925 192 q 780 57 856 103 q 633 -6 704 11 q 504 -22 563 -22 q 314 16 399 -22 q 170 122 229 54 q 82 278 111 189 q 58 472 53 368 q 99 661 64 568 q 197 829 133 754 q 354 949 261 904 q 568 994 447 994 m 554 1067 l 513 1124 l 685 1288 q 730 1317 707 1308 q 773 1320 753 1325 q 804 1299 793 1315 q 815 1260 817 1281 q 800 1222 814 1240 q 760 1188 786 1203 l 554 1067 z "},"Č":{"ha":957,"x_min":53,"x_max":925,"o":"m 568 994 q 695 976 631 994 q 817 921 760 957 l 818 921 l 815 985 l 913 985 l 896 663 l 818 663 q 745 848 807 783 q 579 913 683 913 q 447 880 506 913 q 344 790 388 847 q 276 657 300 732 q 246 497 251 582 q 275 278 240 374 q 379 128 310 182 q 544 72 449 74 q 720 112 631 71 q 878 239 810 153 l 925 192 q 780 57 856 103 q 633 -6 704 11 q 504 -22 563 -22 q 314 16 399 -22 q 170 122 229 54 q 82 278 111 189 q 58 472 53 368 q 99 661 64 568 q 197 829 133 754 q 354 949 261 904 q 568 994 447 994 m 599 1071 l 579 1071 l 321 1278 l 356 1329 l 600 1204 l 858 1329 l 883 1281 l 599 1071 z "},"Ç":{"ha":957,"x_min":53,"x_max":925,"o":"m 568 994 q 695 976 631 994 q 817 921 760 957 l 818 921 l 815 985 l 913 985 l 896 663 l 818 663 q 745 848 807 783 q 579 913 683 913 q 447 880 506 913 q 344 790 388 847 q 276 657 300 732 q 246 497 251 582 q 275 278 240 374 q 379 128 310 182 q 544 72 449 74 q 720 112 631 71 q 878 239 810 153 l 925 192 q 780 57 856 103 q 633 -6 704 11 q 504 -22 563 -22 q 314 16 399 -22 q 170 122 229 54 q 82 278 111 189 q 58 472 53 368 q 99 661 64 568 q 197 829 133 754 q 354 949 261 904 q 568 994 447 994 m 383 -371 l 376 -304 q 429 -291 400 -300 q 487 -269 458 -282 q 533 -237 515 -256 q 553 -199 551 -219 q 543 -169 554 -178 q 514 -160 532 -160 q 481 -166 499 -160 q 453 -181 464 -172 l 400 -160 l 450 13 l 551 13 l 506 -97 q 556 -81 526 -87 q 603 -75 585 -74 q 676 -102 649 -75 q 700 -175 703 -129 q 663 -256 697 -221 q 578 -314 628 -290 q 475 -351 528 -337 q 383 -371 422 -365 z "},"Ĉ":{"ha":957,"x_min":53,"x_max":925,"o":"m 568 994 q 695 976 631 994 q 817 921 760 957 l 818 921 l 815 985 l 913 985 l 896 663 l 818 663 q 745 848 807 783 q 579 913 683 913 q 447 880 506 913 q 344 790 388 847 q 276 657 300 732 q 246 497 251 582 q 275 278 240 374 q 379 128 310 182 q 544 72 449 74 q 720 112 631 71 q 878 239 810 153 l 925 192 q 780 57 856 103 q 633 -6 704 11 q 504 -22 563 -22 q 314 16 399 -22 q 170 122 229 54 q 82 278 111 189 q 58 472 53 368 q 99 661 64 568 q 197 829 133 754 q 354 949 261 904 q 568 994 447 994 m 849 1075 l 601 1197 l 344 1078 l 319 1128 l 607 1331 l 625 1331 l 883 1126 l 849 1075 z "},"Ċ":{"ha":957,"x_min":53,"x_max":925,"o":"m 568 994 q 695 976 631 994 q 817 921 760 957 l 818 921 l 815 985 l 913 985 l 896 663 l 818 663 q 745 848 807 783 q 579 913 683 913 q 447 880 506 913 q 344 790 388 847 q 276 657 300 732 q 246 497 251 582 q 275 278 240 374 q 379 128 310 182 q 544 72 449 74 q 720 112 631 71 q 878 239 810 153 l 925 192 q 780 57 856 103 q 633 -6 704 11 q 504 -22 563 -22 q 314 16 399 -22 q 170 122 229 54 q 82 278 111 189 q 58 472 53 368 q 99 661 64 568 q 197 829 133 754 q 354 949 261 904 q 568 994 447 994 m 600 1307 q 660 1280 638 1307 q 681 1213 683 1253 q 653 1147 679 1175 q 590 1119 628 1119 q 530 1147 553 1119 q 508 1213 507 1175 q 538 1280 511 1253 q 600 1307 565 1307 z "},"D":{"ha":1040,"x_min":51,"x_max":994,"o":"m 478 974 q 707 938 610 974 q 869 836 804 901 q 964 686 933 771 q 992 504 994 601 q 955 324 989 414 q 853 162 921 235 q 681 44 785 89 q 433 0 576 0 l 51 0 l 56 76 q 115 90 93 78 q 147 131 138 101 q 160 214 157 161 l 189 768 q 195 835 192 803 q 201 885 199 867 q 147 883 178 883 q 97 881 117 882 l 103 972 l 478 974 m 469 894 q 406 885 429 896 q 372 846 382 874 q 358 764 361 818 l 329 207 q 325 138 328 169 q 319 88 322 106 q 363 87 339 88 q 413 85 388 86 q 457 85 438 85 q 642 141 567 85 q 759 290 718 197 q 803 488 800 382 q 723 790 810 689 q 469 894 636 892 z "},"Ð":{"ha":1040,"x_min":33,"x_max":994,"o":"m 33 432 l 39 546 l 503 546 l 497 440 l 33 432 m 478 974 q 707 938 610 974 q 869 836 804 901 q 964 686 933 771 q 992 504 994 601 q 955 324 989 414 q 853 162 921 235 q 681 44 785 89 q 433 0 576 0 l 51 0 l 56 76 q 115 90 93 78 q 147 131 138 101 q 160 214 157 161 l 189 768 q 195 835 192 803 q 201 885 199 867 q 147 883 178 883 q 97 881 117 882 l 103 972 l 478 974 m 469 894 q 406 885 429 896 q 372 846 382 874 q 358 764 361 818 l 329 207 q 325 138 328 169 q 319 88 322 106 q 363 87 339 88 q 413 85 388 86 q 457 85 438 85 q 642 141 567 85 q 759 290 718 197 q 803 488 800 382 q 723 790 810 689 q 469 894 636 892 z "},"Ď":{"ha":1040,"x_min":51,"x_max":994,"o":"m 478 974 q 707 938 610 974 q 869 836 804 901 q 964 686 933 771 q 992 504 994 601 q 955 324 989 414 q 853 162 921 235 q 681 44 785 89 q 433 0 576 0 l 51 0 l 56 76 q 115 90 93 78 q 147 131 138 101 q 160 214 157 161 l 189 768 q 195 835 192 803 q 201 885 199 867 q 147 883 178 883 q 97 881 117 882 l 103 972 l 478 974 m 469 894 q 406 885 429 896 q 372 846 382 874 q 358 764 361 818 l 329 207 q 325 138 328 169 q 319 88 322 106 q 363 87 339 88 q 413 85 388 86 q 457 85 438 85 q 642 141 567 85 q 759 290 718 197 q 803 488 800 382 q 723 790 810 689 q 469 894 636 892 m 557 1071 l 538 1071 l 279 1278 l 314 1329 l 558 1204 l 817 1329 l 842 1281 l 557 1071 z "},"Đ":{"ha":1040,"x_min":33,"x_max":994,"o":"m 33 432 l 39 546 l 503 546 l 497 440 l 33 432 m 478 974 q 707 938 610 974 q 869 836 804 901 q 964 686 933 771 q 992 504 994 601 q 955 324 989 414 q 853 162 921 235 q 681 44 785 89 q 433 0 576 0 l 51 0 l 56 76 q 115 90 93 78 q 147 131 138 101 q 160 214 157 161 l 189 768 q 195 835 192 803 q 201 885 199 867 q 147 883 178 883 q 97 881 117 882 l 103 972 l 478 974 m 469 894 q 406 885 429 896 q 372 846 382 874 q 358 764 361 818 l 329 207 q 325 138 328 169 q 319 88 322 106 q 363 87 339 88 q 413 85 388 86 q 457 85 438 85 q 642 141 567 85 q 759 290 718 197 q 803 488 800 382 q 723 790 810 689 q 469 894 636 892 z "},"E":{"ha":864,"x_min":51,"x_max":799,"o":"m 785 972 l 778 711 l 703 711 q 683 830 707 790 q 619 883 658 869 q 538 896 579 897 l 464 894 q 406 882 428 893 q 373 842 383 871 q 360 758 363 814 l 349 546 l 490 544 q 522 575 510 558 q 541 615 535 592 q 549 669 547 638 l 635 669 l 618 343 l 542 343 q 528 429 544 403 q 479 461 511 456 q 401 465 447 467 l 344 463 l 331 206 q 326 137 329 168 q 319 88 322 106 l 532 89 q 622 108 581 89 q 691 172 664 126 q 722 294 718 217 l 799 294 l 775 0 l 51 0 l 56 76 q 116 90 94 78 q 147 131 138 101 q 160 214 157 161 l 190 768 q 195 835 192 803 q 201 885 199 867 q 147 883 178 883 q 99 881 117 882 l 103 972 l 785 972 z "},"É":{"ha":864,"x_min":51,"x_max":799,"o":"m 785 972 l 778 711 l 703 711 q 683 830 707 790 q 619 883 658 869 q 538 896 579 897 l 464 894 q 406 882 428 893 q 373 842 383 871 q 360 758 363 814 l 349 546 l 490 544 q 522 575 510 558 q 541 615 535 592 q 549 669 547 638 l 635 669 l 618 343 l 542 343 q 528 429 544 403 q 479 461 511 456 q 401 465 447 467 l 344 463 l 331 206 q 326 137 329 168 q 319 88 322 106 l 532 89 q 622 108 581 89 q 691 172 664 126 q 722 294 718 217 l 799 294 l 775 0 l 51 0 l 56 76 q 116 90 94 78 q 147 131 138 101 q 160 214 157 161 l 190 768 q 195 835 192 803 q 201 885 199 867 q 147 883 178 883 q 99 881 117 882 l 103 972 l 785 972 m 450 1067 l 408 1124 l 581 1288 q 626 1317 603 1308 q 669 1320 649 1325 q 700 1299 689 1315 q 711 1260 713 1281 q 696 1222 710 1240 q 656 1188 682 1203 l 450 1067 z "},"Ĕ":{"ha":864,"x_min":51,"x_max":799,"o":"m 785 972 l 778 711 l 703 711 q 683 830 707 790 q 619 883 658 869 q 538 896 579 897 l 464 894 q 406 882 428 893 q 373 842 383 871 q 360 758 363 814 l 349 546 l 490 544 q 522 575 510 558 q 541 615 535 592 q 549 669 547 638 l 635 669 l 618 343 l 542 343 q 528 429 544 403 q 479 461 511 456 q 401 465 447 467 l 344 463 l 331 206 q 326 137 329 168 q 319 88 322 106 l 532 89 q 622 108 581 89 q 691 172 664 126 q 722 294 718 217 l 799 294 l 775 0 l 51 0 l 56 76 q 116 90 94 78 q 147 131 138 101 q 160 214 157 161 l 190 768 q 195 835 192 803 q 201 885 199 867 q 147 883 178 883 q 99 881 117 882 l 103 972 l 785 972 m 497 1104 q 410 1119 453 1104 q 332 1167 367 1135 q 278 1251 297 1199 l 346 1294 q 408 1241 368 1264 q 506 1218 449 1218 q 606 1241 564 1218 q 675 1294 649 1264 l 738 1251 q 672 1167 711 1199 q 588 1119 632 1135 q 497 1104 543 1104 z "},"Ě":{"ha":864,"x_min":51,"x_max":799,"o":"m 785 972 l 778 711 l 703 711 q 683 830 707 790 q 619 883 658 869 q 538 896 579 897 l 464 894 q 406 882 428 893 q 373 842 383 871 q 360 758 363 814 l 349 546 l 490 544 q 522 575 510 558 q 541 615 535 592 q 549 669 547 638 l 635 669 l 618 343 l 542 343 q 528 429 544 403 q 479 461 511 456 q 401 465 447 467 l 344 463 l 331 206 q 326 137 329 168 q 319 88 322 106 l 532 89 q 622 108 581 89 q 691 172 664 126 q 722 294 718 217 l 799 294 l 775 0 l 51 0 l 56 76 q 116 90 94 78 q 147 131 138 101 q 160 214 157 161 l 190 768 q 195 835 192 803 q 201 885 199 867 q 147 883 178 883 q 99 881 117 882 l 103 972 l 785 972 m 493 1071 l 474 1071 l 215 1278 l 250 1329 l 494 1204 l 753 1329 l 778 1281 l 493 1071 z "},"Ê":{"ha":864,"x_min":51,"x_max":799,"o":"m 785 972 l 778 711 l 703 711 q 683 830 707 790 q 619 883 658 869 q 538 896 579 897 l 464 894 q 406 882 428 893 q 373 842 383 871 q 360 758 363 814 l 349 546 l 490 544 q 522 575 510 558 q 541 615 535 592 q 549 669 547 638 l 635 669 l 618 343 l 542 343 q 528 429 544 403 q 479 461 511 456 q 401 465 447 467 l 344 463 l 331 206 q 326 137 329 168 q 319 88 322 106 l 532 89 q 622 108 581 89 q 691 172 664 126 q 722 294 718 217 l 799 294 l 775 0 l 51 0 l 56 76 q 116 90 94 78 q 147 131 138 101 q 160 214 157 161 l 190 768 q 195 835 192 803 q 201 885 199 867 q 147 883 178 883 q 99 881 117 882 l 103 972 l 785 972 m 743 1075 l 496 1197 l 239 1078 l 214 1128 l 501 1331 l 519 1331 l 778 1126 l 743 1075 z "},"Ế":{"ha":864,"x_min":51,"x_max":867,"o":"m 785 972 l 778 711 l 703 711 q 683 830 707 790 q 619 883 658 869 q 538 896 579 897 l 464 894 q 406 882 428 893 q 373 842 383 871 q 360 758 363 814 l 349 546 l 490 544 q 522 575 510 558 q 541 615 535 592 q 549 669 547 638 l 635 669 l 618 343 l 542 343 q 528 429 544 403 q 479 461 511 456 q 401 465 447 467 l 344 463 l 331 206 q 326 137 329 168 q 319 88 322 106 l 532 89 q 622 108 581 89 q 691 172 664 126 q 722 294 718 217 l 799 294 l 775 0 l 51 0 l 56 76 q 116 90 94 78 q 147 131 138 101 q 160 214 157 161 l 190 768 q 195 835 192 803 q 201 885 199 867 q 147 883 178 883 q 99 881 117 882 l 103 972 l 785 972 m 657 1053 l 488 1136 l 313 1054 l 281 1108 l 492 1253 l 504 1253 l 696 1113 l 657 1053 m 696 1200 l 653 1239 l 751 1396 q 782 1428 764 1419 q 817 1436 800 1438 q 847 1424 835 1435 q 863 1376 867 1406 q 832 1322 858 1346 l 696 1200 z "},"Ệ":{"ha":864,"x_min":51,"x_max":799,"o":"m 785 972 l 778 711 l 703 711 q 683 830 707 790 q 619 883 658 869 q 538 896 579 897 l 464 894 q 406 882 428 893 q 373 842 383 871 q 360 758 363 814 l 349 546 l 490 544 q 522 575 510 558 q 541 615 535 592 q 549 669 547 638 l 635 669 l 618 343 l 542 343 q 528 429 544 403 q 479 461 511 456 q 401 465 447 467 l 344 463 l 331 206 q 326 137 329 168 q 319 88 322 106 l 532 89 q 622 108 581 89 q 691 172 664 126 q 722 294 718 217 l 799 294 l 775 0 l 51 0 l 56 76 q 116 90 94 78 q 147 131 138 101 q 160 214 157 161 l 190 768 q 195 835 192 803 q 201 885 199 867 q 147 883 178 883 q 99 881 117 882 l 103 972 l 785 972 m 453 -101 q 506 -126 486 -101 q 525 -186 526 -151 q 501 -245 524 -221 q 444 -269 478 -269 q 389 -245 410 -269 q 369 -186 368 -221 q 397 -126 372 -151 q 453 -101 422 -101 m 743 1075 l 496 1197 l 239 1078 l 214 1128 l 501 1331 l 519 1331 l 778 1126 l 743 1075 z "},"Ề":{"ha":864,"x_min":51,"x_max":799,"o":"m 785 972 l 778 711 l 703 711 q 683 830 707 790 q 619 883 658 869 q 538 896 579 897 l 464 894 q 406 882 428 893 q 373 842 383 871 q 360 758 363 814 l 349 546 l 490 544 q 522 575 510 558 q 541 615 535 592 q 549 669 547 638 l 635 669 l 618 343 l 542 343 q 528 429 544 403 q 479 461 511 456 q 401 465 447 467 l 344 463 l 331 206 q 326 137 329 168 q 319 88 322 106 l 532 89 q 622 108 581 89 q 691 172 664 126 q 722 294 718 217 l 799 294 l 775 0 l 51 0 l 56 76 q 116 90 94 78 q 147 131 138 101 q 160 214 157 161 l 190 768 q 195 835 192 803 q 201 885 199 867 q 147 883 178 883 q 99 881 117 882 l 103 972 l 785 972 m 656 1053 l 488 1136 l 313 1054 l 279 1108 l 490 1253 l 503 1253 l 696 1113 l 656 1053 m 647 1222 l 518 1349 q 488 1404 490 1375 q 507 1453 486 1433 q 539 1465 522 1464 q 573 1456 556 1465 q 601 1424 590 1446 l 694 1263 l 647 1222 z "},"Ể":{"ha":864,"x_min":51,"x_max":813,"o":"m 785 972 l 778 711 l 703 711 q 683 830 707 790 q 619 883 658 869 q 538 896 579 897 l 464 894 q 406 882 428 893 q 373 842 383 871 q 360 758 363 814 l 349 546 l 490 544 q 522 575 510 558 q 541 615 535 592 q 549 669 547 638 l 635 669 l 618 343 l 542 343 q 528 429 544 403 q 479 461 511 456 q 401 465 447 467 l 344 463 l 331 206 q 326 137 329 168 q 319 88 322 106 l 532 89 q 622 108 581 89 q 691 172 664 126 q 722 294 718 217 l 799 294 l 775 0 l 51 0 l 56 76 q 116 90 94 78 q 147 131 138 101 q 160 214 157 161 l 190 768 q 195 835 192 803 q 201 885 199 867 q 147 883 178 883 q 99 881 117 882 l 103 972 l 785 972 m 656 1053 l 488 1136 l 313 1054 l 279 1108 l 490 1253 l 503 1253 l 696 1113 l 656 1053 m 636 1207 q 657 1249 638 1235 q 693 1281 676 1264 q 710 1305 703 1292 q 718 1335 717 1318 q 702 1379 721 1363 q 653 1396 683 1396 q 602 1383 619 1396 q 582 1357 585 1369 q 603 1347 596 1356 q 608 1326 610 1339 q 596 1300 608 1313 q 563 1288 583 1288 q 519 1305 536 1288 q 504 1350 503 1322 q 547 1428 507 1392 q 657 1464 588 1464 q 773 1431 733 1464 q 810 1346 813 1397 q 790 1292 808 1311 q 750 1256 772 1272 q 722 1231 733 1243 q 710 1207 710 1218 l 636 1207 z "},"Ễ":{"ha":864,"x_min":51,"x_max":799,"o":"m 785 972 l 778 711 l 703 711 q 683 830 707 790 q 619 883 658 869 q 538 896 579 897 l 464 894 q 406 882 428 893 q 373 842 383 871 q 360 758 363 814 l 349 546 l 490 544 q 522 575 510 558 q 541 615 535 592 q 549 669 547 638 l 635 669 l 618 343 l 542 343 q 528 429 544 403 q 479 461 511 456 q 401 465 447 467 l 344 463 l 331 206 q 326 137 329 168 q 319 88 322 106 l 532 89 q 622 108 581 89 q 691 172 664 126 q 722 294 718 217 l 799 294 l 775 0 l 51 0 l 56 76 q 116 90 94 78 q 147 131 138 101 q 160 214 157 161 l 190 768 q 195 835 192 803 q 201 885 199 867 q 147 883 178 883 q 99 881 117 882 l 103 972 l 785 972 m 657 1053 l 488 1136 l 313 1054 l 281 1108 l 492 1253 l 504 1253 l 696 1113 l 657 1053 m 360 1260 l 310 1290 q 365 1367 328 1338 q 439 1397 403 1397 q 496 1385 475 1397 q 535 1360 517 1372 q 581 1347 554 1347 q 624 1363 604 1347 q 658 1407 643 1379 l 708 1381 q 649 1285 686 1313 q 579 1258 613 1258 q 524 1271 547 1258 q 481 1296 501 1283 q 438 1308 461 1308 q 399 1297 421 1308 q 360 1260 376 1286 z "},"Ë":{"ha":864,"x_min":51,"x_max":799,"o":"m 785 972 l 778 711 l 703 711 q 683 830 707 790 q 619 883 658 869 q 538 896 579 897 l 464 894 q 406 882 428 893 q 373 842 383 871 q 360 758 363 814 l 349 546 l 490 544 q 522 575 510 558 q 541 615 535 592 q 549 669 547 638 l 635 669 l 618 343 l 542 343 q 528 429 544 403 q 479 461 511 456 q 401 465 447 467 l 344 463 l 331 206 q 326 137 329 168 q 319 88 322 106 l 532 89 q 622 108 581 89 q 691 172 664 126 q 722 294 718 217 l 799 294 l 775 0 l 51 0 l 56 76 q 116 90 94 78 q 147 131 138 101 q 160 214 157 161 l 190 768 q 195 835 192 803 q 201 885 199 867 q 147 883 178 883 q 99 881 117 882 l 103 972 l 785 972 m 375 1100 q 319 1126 342 1100 q 297 1193 297 1153 q 325 1265 299 1235 q 388 1296 351 1296 q 442 1268 421 1296 q 463 1201 464 1240 q 437 1131 463 1161 q 375 1100 411 1100 m 611 1100 q 556 1126 578 1100 q 535 1193 535 1153 q 561 1265 535 1235 q 624 1296 588 1296 q 678 1268 658 1296 q 699 1201 699 1240 q 673 1130 699 1160 q 611 1100 647 1100 z "},"Ė":{"ha":864,"x_min":51,"x_max":799,"o":"m 785 972 l 778 711 l 703 711 q 683 830 707 790 q 619 883 658 869 q 538 896 579 897 l 464 894 q 406 882 428 893 q 373 842 383 871 q 360 758 363 814 l 349 546 l 490 544 q 522 575 510 558 q 541 615 535 592 q 549 669 547 638 l 635 669 l 618 343 l 542 343 q 528 429 544 403 q 479 461 511 456 q 401 465 447 467 l 344 463 l 331 206 q 326 137 329 168 q 319 88 322 106 l 532 89 q 622 108 581 89 q 691 172 664 126 q 722 294 718 217 l 799 294 l 775 0 l 51 0 l 56 76 q 116 90 94 78 q 147 131 138 101 q 160 214 157 161 l 190 768 q 195 835 192 803 q 201 885 199 867 q 147 883 178 883 q 99 881 117 882 l 103 972 l 785 972 m 496 1307 q 556 1280 533 1307 q 576 1213 579 1253 q 549 1147 575 1175 q 486 1119 524 1119 q 426 1147 449 1119 q 404 1213 403 1175 q 434 1280 407 1253 q 496 1307 461 1307 z "},"Ẹ":{"ha":864,"x_min":51,"x_max":799,"o":"m 785 972 l 778 711 l 703 711 q 683 830 707 790 q 619 883 658 869 q 538 896 579 897 l 464 894 q 406 882 428 893 q 373 842 383 871 q 360 758 363 814 l 349 546 l 490 544 q 522 575 510 558 q 541 615 535 592 q 549 669 547 638 l 635 669 l 618 343 l 542 343 q 528 429 544 403 q 479 461 511 456 q 401 465 447 467 l 344 463 l 331 206 q 326 137 329 168 q 319 88 322 106 l 532 89 q 622 108 581 89 q 691 172 664 126 q 722 294 718 217 l 799 294 l 775 0 l 51 0 l 56 76 q 116 90 94 78 q 147 131 138 101 q 160 214 157 161 l 190 768 q 195 835 192 803 q 201 885 199 867 q 147 883 178 883 q 99 881 117 882 l 103 972 l 785 972 m 453 -101 q 506 -126 486 -101 q 525 -186 526 -151 q 501 -245 524 -221 q 444 -269 478 -269 q 389 -245 410 -269 q 369 -186 368 -221 q 397 -126 372 -151 q 453 -101 422 -101 z "},"È":{"ha":864,"x_min":51,"x_max":799,"o":"m 785 972 l 778 711 l 703 711 q 683 830 707 790 q 619 883 658 869 q 538 896 579 897 l 464 894 q 406 882 428 893 q 373 842 383 871 q 360 758 363 814 l 349 546 l 490 544 q 522 575 510 558 q 541 615 535 592 q 549 669 547 638 l 635 669 l 618 343 l 542 343 q 528 429 544 403 q 479 461 511 456 q 401 465 447 467 l 344 463 l 331 206 q 326 137 329 168 q 319 88 322 106 l 532 89 q 622 108 581 89 q 691 172 664 126 q 722 294 718 217 l 799 294 l 775 0 l 51 0 l 56 76 q 116 90 94 78 q 147 131 138 101 q 160 214 157 161 l 190 768 q 195 835 192 803 q 201 885 199 867 q 147 883 178 883 q 99 881 117 882 l 103 972 l 785 972 m 553 1067 l 354 1188 q 317 1222 331 1203 q 305 1262 304 1242 q 318 1299 306 1282 q 352 1320 332 1315 q 395 1317 372 1325 q 439 1288 418 1308 l 599 1125 l 553 1067 z "},"Ẻ":{"ha":864,"x_min":51,"x_max":799,"o":"m 785 972 l 778 711 l 703 711 q 683 830 707 790 q 619 883 658 869 q 538 896 579 897 l 464 894 q 406 882 428 893 q 373 842 383 871 q 360 758 363 814 l 349 546 l 490 544 q 522 575 510 558 q 541 615 535 592 q 549 669 547 638 l 635 669 l 618 343 l 542 343 q 528 429 544 403 q 479 461 511 456 q 401 465 447 467 l 344 463 l 331 206 q 326 137 329 168 q 319 88 322 106 l 532 89 q 622 108 581 89 q 691 172 664 126 q 722 294 718 217 l 799 294 l 775 0 l 51 0 l 56 76 q 116 90 94 78 q 147 131 138 101 q 160 214 157 161 l 190 768 q 195 835 192 803 q 201 885 199 867 q 147 883 178 883 q 99 881 117 882 l 103 972 l 785 972 m 469 1053 q 490 1097 471 1081 q 528 1131 510 1114 q 547 1156 539 1142 q 556 1186 554 1169 q 538 1231 558 1214 q 488 1249 518 1249 q 434 1235 453 1249 q 413 1210 415 1221 q 435 1199 428 1208 q 442 1178 442 1190 q 427 1149 440 1161 q 393 1136 414 1136 q 349 1154 367 1136 q 332 1201 331 1172 q 353 1258 335 1231 q 408 1303 372 1285 q 490 1321 443 1321 q 611 1286 569 1321 q 650 1197 653 1251 q 630 1142 649 1161 q 588 1104 611 1122 q 558 1078 569 1090 q 546 1053 547 1065 l 469 1053 z "},"Ē":{"ha":864,"x_min":51,"x_max":799,"o":"m 785 972 l 778 711 l 703 711 q 683 830 707 790 q 619 883 658 869 q 538 896 579 897 l 464 894 q 406 882 428 893 q 373 842 383 871 q 360 758 363 814 l 349 546 l 490 544 q 522 575 510 558 q 541 615 535 592 q 549 669 547 638 l 635 669 l 618 343 l 542 343 q 528 429 544 403 q 479 461 511 456 q 401 465 447 467 l 344 463 l 331 206 q 326 137 329 168 q 319 88 322 106 l 532 89 q 622 108 581 89 q 691 172 664 126 q 722 294 718 217 l 799 294 l 775 0 l 51 0 l 56 76 q 116 90 94 78 q 147 131 138 101 q 160 214 157 161 l 190 768 q 195 835 192 803 q 201 885 199 867 q 147 883 178 883 q 99 881 117 882 l 103 972 l 785 972 m 294 1154 l 300 1267 l 685 1267 l 681 1160 l 294 1154 z "},"Ę":{"ha":864,"x_min":51,"x_max":799,"o":"m 785 972 l 778 711 l 703 711 q 683 830 707 790 q 619 883 658 869 q 538 896 579 897 l 464 894 q 406 882 428 893 q 373 842 383 871 q 360 758 363 814 l 349 546 l 490 544 q 522 575 510 558 q 541 615 535 592 q 549 669 547 638 l 635 669 l 618 343 l 542 343 q 528 429 544 403 q 479 461 511 456 q 401 465 447 467 l 344 463 l 331 206 q 326 137 329 168 q 319 88 322 106 l 532 89 q 622 108 581 89 q 691 172 664 126 q 722 294 718 217 l 799 294 l 775 0 l 51 0 l 56 76 q 116 90 94 78 q 147 131 138 101 q 160 214 157 161 l 190 768 q 195 835 192 803 q 201 885 199 867 q 147 883 178 883 q 99 881 117 882 l 103 972 l 785 972 m 594 -369 q 493 -333 531 -369 q 460 -228 456 -296 q 510 -99 464 -158 q 627 6 556 -39 q 776 76 699 51 l 772 7 q 680 -43 724 -12 q 608 -112 636 -74 q 579 -194 581 -151 q 597 -244 579 -225 q 646 -264 614 -264 q 692 -253 668 -264 q 740 -222 717 -242 l 776 -269 q 692 -340 742 -311 q 594 -369 643 -369 z "},"Ẽ":{"ha":864,"x_min":51,"x_max":799,"o":"m 785 972 l 778 711 l 703 711 q 683 830 707 790 q 619 883 658 869 q 538 896 579 897 l 464 894 q 406 882 428 893 q 373 842 383 871 q 360 758 363 814 l 349 546 l 490 544 q 522 575 510 558 q 541 615 535 592 q 549 669 547 638 l 635 669 l 618 343 l 542 343 q 528 429 544 403 q 479 461 511 456 q 401 465 447 467 l 344 463 l 331 206 q 326 137 329 168 q 319 88 322 106 l 532 89 q 622 108 581 89 q 691 172 664 126 q 722 294 718 217 l 799 294 l 775 0 l 51 0 l 56 76 q 116 90 94 78 q 147 131 138 101 q 160 214 157 161 l 190 768 q 195 835 192 803 q 201 885 199 867 q 147 883 178 883 q 99 881 117 882 l 103 972 l 785 972 m 394 1179 q 334 1164 367 1179 q 274 1107 301 1149 l 214 1144 q 296 1252 244 1217 q 394 1288 347 1288 q 459 1277 432 1289 q 508 1250 486 1265 q 553 1223 531 1235 q 603 1211 576 1211 q 668 1235 633 1211 q 722 1296 703 1258 l 783 1264 q 728 1163 758 1199 q 665 1115 697 1128 q 603 1103 633 1103 q 544 1114 569 1103 q 494 1140 518 1125 q 447 1167 471 1156 q 394 1179 424 1179 z "},"Ə":{"ha":1060,"x_min":79,"x_max":1015,"o":"m 510 -22 q 328 8 404 -22 q 200 93 251 39 q 121 217 149 147 q 86 368 93 288 q 90 531 79 449 l 821 535 q 801 674 819 607 q 747 794 783 742 q 653 878 710 847 q 517 910 596 910 q 388 883 447 910 q 287 806 328 857 q 231 679 246 754 l 153 679 l 168 985 l 264 985 l 256 921 q 353 963 299 947 q 463 987 408 979 q 557 994 517 994 q 779 951 690 994 q 921 835 868 907 q 994 674 974 763 q 1011 494 1015 585 q 970 302 1006 394 q 872 137 935 210 q 717 21 808 64 q 510 -22 626 -22 m 532 60 q 649 94 599 61 q 734 181 699 126 q 790 303 769 236 q 818 443 811 371 l 269 442 q 283 296 267 365 q 331 173 299 226 q 415 89 364 119 q 532 60 465 58 z "},"Ʒ":{"ha":853,"x_min":22,"x_max":850,"o":"m 429 -22 q 197 33 304 -22 q 22 192 90 88 l 83 243 q 163 158 118 197 q 265 97 208 119 q 392 75 321 75 q 503 94 449 75 q 595 158 557 113 q 643 282 633 203 q 630 396 650 346 q 560 476 610 446 q 425 507 510 506 l 351 506 l 357 558 l 539 761 q 609 833 575 801 q 681 890 643 865 l 397 893 q 272 844 319 894 q 218 679 224 794 l 140 679 l 164 972 l 850 972 l 843 886 l 554 579 q 723 532 658 576 q 815 419 788 488 q 833 275 842 351 q 764 110 824 176 q 616 11 704 44 q 429 -22 528 -22 z "},"Ǯ":{"ha":853,"x_min":22,"x_max":850,"o":"m 429 -22 q 197 33 304 -22 q 22 192 90 88 l 83 243 q 163 158 118 197 q 265 97 208 119 q 392 75 321 75 q 503 94 449 75 q 595 158 557 113 q 643 282 633 203 q 630 396 650 346 q 560 476 610 446 q 425 507 510 506 l 351 506 l 357 558 l 539 761 q 609 833 575 801 q 681 890 643 865 l 397 893 q 272 844 319 894 q 218 679 224 794 l 140 679 l 164 972 l 850 972 l 843 886 l 554 579 q 723 532 658 576 q 815 419 788 488 q 833 275 842 351 q 764 110 824 176 q 616 11 704 44 q 429 -22 528 -22 m 468 1069 l 449 1069 l 190 1276 l 225 1328 l 469 1203 l 728 1328 l 753 1279 l 468 1069 z "},"F":{"ha":775,"x_min":51,"x_max":776,"o":"m 776 972 l 771 711 l 694 711 q 674 830 699 790 q 610 883 650 869 q 528 896 571 897 l 461 894 q 403 882 425 893 q 372 842 382 871 q 360 763 363 814 l 346 515 l 479 515 q 506 546 496 529 q 521 585 515 563 q 528 639 526 608 l 614 639 l 597 313 l 521 313 q 508 397 524 371 q 462 429 492 422 q 390 435 432 436 q 366 435 378 435 q 343 433 354 435 l 331 207 q 326 138 329 169 q 319 88 322 106 q 362 90 338 89 q 410 91 386 90 q 449 92 433 92 l 443 0 l 51 0 l 56 76 q 116 90 94 78 q 148 131 138 101 q 160 214 158 161 l 190 768 q 195 835 192 803 q 201 885 199 867 q 147 883 178 883 q 99 881 117 882 l 103 972 l 776 972 z "},"G":{"ha":1049,"x_min":51,"x_max":1025,"o":"m 504 -22 q 255 41 357 -22 q 102 216 153 104 q 60 469 51 328 q 99 659 64 565 q 197 828 133 753 q 353 949 261 904 q 567 994 446 994 q 656 986 608 994 q 751 963 704 978 q 835 924 799 947 l 833 985 l 931 985 l 914 663 l 836 663 q 796 799 831 744 q 705 881 761 853 q 578 910 649 910 q 446 876 506 910 q 344 786 386 843 q 276 656 301 729 q 246 499 251 582 q 273 280 240 376 q 375 128 306 183 q 544 74 444 74 q 613 78 574 74 q 690 94 651 83 q 758 121 729 106 l 767 261 q 772 333 769 299 q 776 392 774 368 q 722 390 753 390 q 674 388 692 389 l 679 479 l 1025 479 l 1022 403 q 974 392 993 401 q 944 365 956 382 q 927 323 932 347 q 919 267 922 299 l 908 49 l 875 49 q 806 40 843 49 q 724 15 768 31 q 622 -10 678 1 q 504 -22 565 -22 z "},"Ğ":{"ha":1049,"x_min":51,"x_max":1025,"o":"m 504 -22 q 255 41 357 -22 q 102 216 153 104 q 60 469 51 328 q 99 659 64 565 q 197 828 133 753 q 353 949 261 904 q 567 994 446 994 q 656 986 608 994 q 751 963 704 978 q 835 924 799 947 l 833 985 l 931 985 l 914 663 l 836 663 q 796 799 831 744 q 705 881 761 853 q 578 910 649 910 q 446 876 506 910 q 344 786 386 843 q 276 656 301 729 q 246 499 251 582 q 273 280 240 376 q 375 128 306 183 q 544 74 444 74 q 613 78 574 74 q 690 94 651 83 q 758 121 729 106 l 767 261 q 772 333 769 299 q 776 392 774 368 q 722 390 753 390 q 674 388 692 389 l 679 479 l 1025 479 l 1022 403 q 974 392 993 401 q 944 365 956 382 q 927 323 932 347 q 919 267 922 299 l 908 49 l 875 49 q 806 40 843 49 q 724 15 768 31 q 622 -10 678 1 q 504 -22 565 -22 m 607 1104 q 519 1119 563 1104 q 442 1167 476 1135 q 388 1251 407 1199 l 456 1294 q 518 1241 478 1264 q 615 1218 558 1218 q 716 1241 674 1218 q 785 1294 758 1264 l 847 1251 q 781 1167 821 1199 q 697 1119 742 1135 q 607 1104 653 1104 z "},"Ǧ":{"ha":1049,"x_min":51,"x_max":1025,"o":"m 504 -22 q 255 41 357 -22 q 102 216 153 104 q 60 469 51 328 q 99 659 64 565 q 197 828 133 753 q 353 949 261 904 q 567 994 446 994 q 656 986 608 994 q 751 963 704 978 q 835 924 799 947 l 833 985 l 931 985 l 914 663 l 836 663 q 796 799 831 744 q 705 881 761 853 q 578 910 649 910 q 446 876 506 910 q 344 786 386 843 q 276 656 301 729 q 246 499 251 582 q 273 280 240 376 q 375 128 306 183 q 544 74 444 74 q 613 78 574 74 q 690 94 651 83 q 758 121 729 106 l 767 261 q 772 333 769 299 q 776 392 774 368 q 722 390 753 390 q 674 388 692 389 l 679 479 l 1025 479 l 1022 403 q 974 392 993 401 q 944 365 956 382 q 927 323 932 347 q 919 267 922 299 l 908 49 l 875 49 q 806 40 843 49 q 724 15 768 31 q 622 -10 678 1 q 504 -22 565 -22 m 603 1071 l 583 1071 l 325 1278 l 360 1329 l 604 1204 l 863 1329 l 888 1281 l 603 1071 z "},"Ĝ":{"ha":1049,"x_min":51,"x_max":1025,"o":"m 504 -22 q 255 41 357 -22 q 102 216 153 104 q 60 469 51 328 q 99 659 64 565 q 197 828 133 753 q 353 949 261 904 q 567 994 446 994 q 656 986 608 994 q 751 963 704 978 q 835 924 799 947 l 833 985 l 931 985 l 914 663 l 836 663 q 796 799 831 744 q 705 881 761 853 q 578 910 649 910 q 446 876 506 910 q 344 786 386 843 q 276 656 301 729 q 246 499 251 582 q 273 280 240 376 q 375 128 306 183 q 544 74 444 74 q 613 78 574 74 q 690 94 651 83 q 758 121 729 106 l 767 261 q 772 333 769 299 q 776 392 774 368 q 722 390 753 390 q 674 388 692 389 l 679 479 l 1025 479 l 1022 403 q 974 392 993 401 q 944 365 956 382 q 927 323 932 347 q 919 267 922 299 l 908 49 l 875 49 q 806 40 843 49 q 724 15 768 31 q 622 -10 678 1 q 504 -22 565 -22 m 853 1075 l 606 1197 l 349 1078 l 324 1128 l 611 1331 l 629 1331 l 888 1126 l 853 1075 z "},"Ģ":{"ha":1049,"x_min":51,"x_max":1025,"o":"m 504 -22 q 255 41 357 -22 q 102 216 153 104 q 60 469 51 328 q 99 659 64 565 q 197 828 133 753 q 353 949 261 904 q 567 994 446 994 q 656 986 608 994 q 751 963 704 978 q 835 924 799 947 l 833 985 l 931 985 l 914 663 l 836 663 q 796 799 831 744 q 705 881 761 853 q 578 910 649 910 q 446 876 506 910 q 344 786 386 843 q 276 656 301 729 q 246 499 251 582 q 273 280 240 376 q 375 128 306 183 q 544 74 444 74 q 613 78 574 74 q 690 94 651 83 q 758 121 729 106 l 767 261 q 772 333 769 299 q 776 392 774 368 q 722 390 753 390 q 674 388 692 389 l 679 479 l 1025 479 l 1022 403 q 974 392 993 401 q 944 365 956 382 q 927 323 932 347 q 919 267 922 299 l 908 49 l 875 49 q 806 40 843 49 q 724 15 768 31 q 622 -10 678 1 q 504 -22 565 -22 m 394 -392 l 335 -346 q 389 -246 374 -286 q 405 -169 404 -206 q 400 -89 406 -133 l 533 -60 q 548 -103 543 -81 q 550 -150 553 -126 q 526 -231 549 -189 q 469 -315 504 -274 q 394 -392 435 -356 z "},"Ġ":{"ha":1049,"x_min":51,"x_max":1025,"o":"m 504 -22 q 255 41 357 -22 q 102 216 153 104 q 60 469 51 328 q 99 659 64 565 q 197 828 133 753 q 353 949 261 904 q 567 994 446 994 q 656 986 608 994 q 751 963 704 978 q 835 924 799 947 l 833 985 l 931 985 l 914 663 l 836 663 q 796 799 831 744 q 705 881 761 853 q 578 910 649 910 q 446 876 506 910 q 344 786 386 843 q 276 656 301 729 q 246 499 251 582 q 273 280 240 376 q 375 128 306 183 q 544 74 444 74 q 613 78 574 74 q 690 94 651 83 q 758 121 729 106 l 767 261 q 772 333 769 299 q 776 392 774 368 q 722 390 753 390 q 674 388 692 389 l 679 479 l 1025 479 l 1022 403 q 974 392 993 401 q 944 365 956 382 q 927 323 932 347 q 919 267 922 299 l 908 49 l 875 49 q 806 40 843 49 q 724 15 768 31 q 622 -10 678 1 q 504 -22 565 -22 m 604 1307 q 665 1280 642 1307 q 685 1213 688 1253 q 658 1147 683 1175 q 594 1119 632 1119 q 534 1147 557 1119 q 513 1213 511 1175 q 542 1280 515 1253 q 604 1307 569 1307 z "},"Ǥ":{"ha":1049,"x_min":51,"x_max":1043,"o":"m 1043 317 l 1040 263 l 626 257 l 629 317 l 1043 317 m 504 -22 q 255 41 357 -22 q 102 216 153 104 q 60 469 51 328 q 99 659 64 565 q 197 828 133 753 q 353 949 261 904 q 567 994 446 994 q 656 986 608 994 q 751 963 704 978 q 835 924 799 947 l 833 985 l 931 985 l 914 663 l 836 663 q 796 799 831 744 q 705 881 761 853 q 578 910 649 910 q 446 876 506 910 q 344 786 386 843 q 276 656 301 729 q 246 499 251 582 q 273 280 240 376 q 375 128 306 183 q 544 74 444 74 q 613 78 574 74 q 690 94 651 83 q 758 121 729 106 l 767 261 q 772 333 769 299 q 776 392 774 368 q 722 390 753 390 q 674 388 692 389 l 679 479 l 1025 479 l 1022 403 q 974 392 993 401 q 944 365 956 382 q 927 323 932 347 q 919 267 922 299 l 908 49 l 875 49 q 806 40 843 49 q 724 15 768 31 q 622 -10 678 1 q 504 -22 565 -22 z "},"H":{"ha":1100,"x_min":51,"x_max":1060,"o":"m 1060 972 l 1056 896 q 998 884 1021 894 q 964 847 975 874 q 950 764 953 819 l 921 207 q 916 138 919 169 q 910 88 913 106 q 964 90 933 89 q 1013 92 994 92 l 1008 0 l 643 0 l 646 76 q 707 90 685 78 q 739 131 729 101 q 751 214 749 161 l 764 449 l 343 443 l 331 207 q 326 138 329 169 q 319 88 322 106 q 374 90 343 89 q 422 92 404 92 l 418 0 l 51 0 l 56 76 q 116 90 94 78 q 147 131 138 101 q 160 214 157 161 l 189 768 q 195 835 192 803 q 201 885 199 867 q 147 883 178 883 q 99 881 117 882 l 103 972 l 468 972 l 464 896 q 407 884 429 894 q 374 846 385 874 q 360 764 363 818 l 347 538 l 768 538 l 781 768 q 786 835 783 803 q 792 885 789 867 q 738 883 769 883 q 689 881 707 882 l 693 972 l 1060 972 z "},"Ħ":{"ha":1100,"x_min":51,"x_max":1060,"o":"m 1050 757 l 1047 693 l 68 688 l 71 757 l 1050 757 m 1060 972 l 1056 896 q 998 884 1021 894 q 964 847 975 874 q 950 764 953 819 l 921 207 q 916 138 919 169 q 910 88 913 106 q 964 90 933 89 q 1013 92 994 92 l 1008 0 l 643 0 l 646 76 q 707 90 685 78 q 739 131 729 101 q 751 214 749 161 l 764 449 l 343 443 l 331 207 q 326 138 329 169 q 319 88 322 106 q 374 90 343 89 q 422 92 404 92 l 418 0 l 51 0 l 56 76 q 116 90 94 78 q 147 131 138 101 q 160 214 157 161 l 189 768 q 195 835 192 803 q 201 885 199 867 q 147 883 178 883 q 99 881 117 882 l 103 972 l 468 972 l 464 896 q 407 884 429 894 q 374 846 385 874 q 360 764 363 818 l 347 538 l 768 538 l 781 768 q 786 835 783 803 q 792 885 789 867 q 738 883 769 883 q 689 881 707 882 l 693 972 l 1060 972 z "},"Ȟ":{"ha":1100,"x_min":51,"x_max":1060,"o":"m 1060 972 l 1056 896 q 998 884 1021 894 q 964 847 975 874 q 950 764 953 819 l 921 207 q 916 138 919 169 q 910 88 913 106 q 964 90 933 89 q 1013 92 994 92 l 1008 0 l 643 0 l 646 76 q 707 90 685 78 q 739 131 729 101 q 751 214 749 161 l 764 449 l 343 443 l 331 207 q 326 138 329 169 q 319 88 322 106 q 374 90 343 89 q 422 92 404 92 l 418 0 l 51 0 l 56 76 q 116 90 94 78 q 147 131 138 101 q 160 214 157 161 l 189 768 q 195 835 192 803 q 201 885 199 867 q 147 883 178 883 q 99 881 117 882 l 103 972 l 468 972 l 464 896 q 407 884 429 894 q 374 846 385 874 q 360 764 363 818 l 347 538 l 768 538 l 781 768 q 786 835 783 803 q 792 885 789 867 q 738 883 769 883 q 689 881 707 882 l 693 972 l 1060 972 m 594 1071 l 575 1071 l 317 1278 l 351 1329 l 596 1204 l 854 1329 l 879 1281 l 594 1071 z "},"Ĥ":{"ha":1100,"x_min":51,"x_max":1060,"o":"m 1060 972 l 1056 896 q 998 884 1021 894 q 964 847 975 874 q 950 764 953 819 l 921 207 q 916 138 919 169 q 910 88 913 106 q 964 90 933 89 q 1013 92 994 92 l 1008 0 l 643 0 l 646 76 q 707 90 685 78 q 739 131 729 101 q 751 214 749 161 l 764 449 l 343 443 l 331 207 q 326 138 329 169 q 319 88 322 106 q 374 90 343 89 q 422 92 404 92 l 418 0 l 51 0 l 56 76 q 116 90 94 78 q 147 131 138 101 q 160 214 157 161 l 189 768 q 195 835 192 803 q 201 885 199 867 q 147 883 178 883 q 99 881 117 882 l 103 972 l 468 972 l 464 896 q 407 884 429 894 q 374 846 385 874 q 360 764 363 818 l 347 538 l 768 538 l 781 768 q 786 835 783 803 q 792 885 789 867 q 738 883 769 883 q 689 881 707 882 l 693 972 l 1060 972 m 844 1075 l 597 1197 l 340 1078 l 315 1128 l 603 1331 l 621 1331 l 879 1126 l 844 1075 z "},"I":{"ha":510,"x_min":51,"x_max":468,"o":"m 468 972 l 464 896 q 406 883 428 894 q 373 845 383 872 q 360 763 363 818 l 331 207 q 326 138 329 169 q 319 88 322 106 q 374 90 343 89 q 422 92 404 92 l 418 0 l 51 0 l 56 76 q 116 90 94 78 q 148 131 138 101 q 160 214 158 161 l 189 768 q 195 835 192 803 q 201 885 199 867 q 147 883 178 883 q 99 881 117 882 l 103 972 l 468 972 z "},"Ĳ":{"ha":1092,"x_min":51,"x_max":1085,"o":"m 468 972 l 464 896 q 406 883 428 894 q 373 845 383 872 q 360 763 363 818 l 331 207 q 326 138 329 169 q 319 88 322 106 q 374 90 343 89 q 422 92 404 92 l 418 0 l 51 0 l 56 76 q 116 90 94 78 q 148 131 138 101 q 160 214 158 161 l 189 768 q 195 835 192 803 q 201 885 199 867 q 147 883 178 883 q 99 881 117 882 l 103 972 l 468 972 m 1085 972 l 1081 896 q 1022 884 1044 894 q 987 847 999 874 q 972 769 975 821 l 950 349 q 910 134 943 215 q 816 15 876 53 q 665 -22 756 -22 q 578 -6 618 -22 q 515 40 539 10 q 493 110 492 69 q 517 179 494 149 q 581 211 540 210 q 647 188 628 214 q 665 131 665 161 q 663 108 665 121 q 654 85 660 96 q 675 67 661 72 q 697 63 689 63 q 733 74 717 64 q 759 114 749 85 q 772 196 769 143 l 801 751 q 807 824 804 789 q 813 885 810 860 q 772 884 794 885 q 727 883 749 883 q 690 881 706 882 l 696 972 l 1085 972 z "},"Í":{"ha":510,"x_min":51,"x_max":528,"o":"m 468 972 l 464 896 q 406 883 428 894 q 373 845 383 872 q 360 763 363 818 l 331 207 q 326 138 329 169 q 319 88 322 106 q 374 90 343 89 q 422 92 404 92 l 418 0 l 51 0 l 56 76 q 116 90 94 78 q 148 131 138 101 q 160 214 158 161 l 189 768 q 195 835 192 803 q 201 885 199 867 q 147 883 178 883 q 99 881 117 882 l 103 972 l 468 972 m 264 1067 l 222 1124 l 394 1288 q 440 1317 417 1308 q 483 1320 463 1325 q 514 1299 503 1315 q 525 1260 526 1281 q 510 1222 524 1240 q 469 1188 496 1203 l 264 1067 z "},"Ĭ":{"ha":510,"x_min":51,"x_max":553,"o":"m 468 972 l 464 896 q 406 883 428 894 q 373 845 383 872 q 360 763 363 818 l 331 207 q 326 138 329 169 q 319 88 322 106 q 374 90 343 89 q 422 92 404 92 l 418 0 l 51 0 l 56 76 q 116 90 94 78 q 148 131 138 101 q 160 214 158 161 l 189 768 q 195 835 192 803 q 201 885 199 867 q 147 883 178 883 q 99 881 117 882 l 103 972 l 468 972 m 313 1104 q 225 1119 268 1104 q 147 1167 182 1135 q 93 1251 113 1199 l 161 1294 q 224 1241 183 1264 q 321 1218 264 1218 q 422 1241 379 1218 q 490 1294 464 1264 l 553 1251 q 487 1167 526 1199 q 403 1119 447 1135 q 313 1104 358 1104 z "},"Î":{"ha":510,"x_min":51,"x_max":536,"o":"m 468 972 l 464 896 q 406 883 428 894 q 373 845 383 872 q 360 763 363 818 l 331 207 q 326 138 329 169 q 319 88 322 106 q 374 90 343 89 q 422 92 404 92 l 418 0 l 51 0 l 56 76 q 116 90 94 78 q 148 131 138 101 q 160 214 158 161 l 189 768 q 195 835 192 803 q 201 885 199 867 q 147 883 178 883 q 99 881 117 882 l 103 972 l 468 972 m 488 1067 l 307 1199 l 113 1072 l 71 1125 l 311 1332 l 325 1332 l 536 1121 l 488 1067 z "},"Ï":{"ha":510,"x_min":51,"x_max":514,"o":"m 468 972 l 464 896 q 406 883 428 894 q 373 845 383 872 q 360 763 363 818 l 331 207 q 326 138 329 169 q 319 88 322 106 q 374 90 343 89 q 422 92 404 92 l 418 0 l 51 0 l 56 76 q 116 90 94 78 q 148 131 138 101 q 160 214 158 161 l 189 768 q 195 835 192 803 q 201 885 199 867 q 147 883 178 883 q 99 881 117 882 l 103 972 l 468 972 m 189 1100 q 133 1126 156 1100 q 111 1193 111 1153 q 139 1265 113 1235 q 201 1296 165 1296 q 256 1268 235 1296 q 276 1201 278 1240 q 251 1131 276 1161 q 189 1100 225 1100 m 425 1100 q 370 1126 392 1100 q 349 1193 349 1153 q 375 1265 349 1235 q 438 1296 401 1296 q 492 1268 472 1296 q 513 1201 513 1240 q 487 1130 513 1160 q 425 1100 461 1100 z "},"İ":{"ha":510,"x_min":51,"x_max":468,"o":"m 468 972 l 464 896 q 406 883 428 894 q 373 845 383 872 q 360 763 363 818 l 331 207 q 326 138 329 169 q 319 88 322 106 q 374 90 343 89 q 422 92 404 92 l 418 0 l 51 0 l 56 76 q 116 90 94 78 q 148 131 138 101 q 160 214 158 161 l 189 768 q 195 835 192 803 q 201 885 199 867 q 147 883 178 883 q 99 881 117 882 l 103 972 l 468 972 m 311 1307 q 372 1280 349 1307 q 392 1213 394 1253 q 365 1147 390 1175 q 301 1119 339 1119 q 241 1147 264 1119 q 219 1213 218 1175 q 249 1280 222 1253 q 311 1307 276 1307 z "},"Ị":{"ha":510,"x_min":51,"x_max":468,"o":"m 468 972 l 464 896 q 406 883 428 894 q 373 845 383 872 q 360 763 363 818 l 331 207 q 326 138 329 169 q 319 88 322 106 q 374 90 343 89 q 422 92 404 92 l 418 0 l 51 0 l 56 76 q 116 90 94 78 q 148 131 138 101 q 160 214 158 161 l 189 768 q 195 835 192 803 q 201 885 199 867 q 147 883 178 883 q 99 881 117 882 l 103 972 l 468 972 m 232 -101 q 285 -126 265 -101 q 304 -186 306 -151 q 280 -245 303 -221 q 224 -269 257 -269 q 168 -245 189 -269 q 149 -186 147 -221 q 176 -126 151 -151 q 232 -101 201 -101 z "},"Ì":{"ha":510,"x_min":51,"x_max":468,"o":"m 468 972 l 464 896 q 406 883 428 894 q 373 845 383 872 q 360 763 363 818 l 331 207 q 326 138 329 169 q 319 88 322 106 q 374 90 343 89 q 422 92 404 92 l 418 0 l 51 0 l 56 76 q 116 90 94 78 q 148 131 138 101 q 160 214 158 161 l 189 768 q 195 835 192 803 q 201 885 199 867 q 147 883 178 883 q 99 881 117 882 l 103 972 l 468 972 m 368 1067 l 169 1188 q 133 1222 146 1203 q 120 1262 119 1242 q 133 1299 121 1282 q 167 1320 147 1315 q 210 1317 188 1325 q 254 1288 233 1308 l 414 1125 l 368 1067 z "},"Ỉ":{"ha":510,"x_min":51,"x_max":468,"o":"m 468 972 l 464 896 q 406 883 428 894 q 373 845 383 872 q 360 763 363 818 l 331 207 q 326 138 329 169 q 319 88 322 106 q 374 90 343 89 q 422 92 404 92 l 418 0 l 51 0 l 56 76 q 116 90 94 78 q 148 131 138 101 q 160 214 158 161 l 189 768 q 195 835 192 803 q 201 885 199 867 q 147 883 178 883 q 99 881 117 882 l 103 972 l 468 972 m 283 1053 q 304 1097 285 1081 q 342 1131 324 1114 q 360 1156 353 1142 q 369 1186 368 1169 q 352 1231 372 1214 q 301 1249 332 1249 q 248 1235 267 1249 q 226 1210 229 1221 q 249 1199 242 1208 q 256 1178 256 1190 q 241 1149 254 1161 q 207 1136 228 1136 q 163 1154 181 1136 q 146 1201 144 1172 q 167 1258 149 1231 q 222 1303 186 1285 q 304 1321 257 1321 q 425 1286 383 1321 q 464 1197 467 1251 q 444 1142 463 1161 q 401 1104 425 1122 q 372 1078 383 1090 q 360 1053 361 1065 l 283 1053 z "},"Ī":{"ha":510,"x_min":51,"x_max":500,"o":"m 468 972 l 464 896 q 406 883 428 894 q 373 845 383 872 q 360 763 363 818 l 331 207 q 326 138 329 169 q 319 88 322 106 q 374 90 343 89 q 422 92 404 92 l 418 0 l 51 0 l 56 76 q 116 90 94 78 q 148 131 138 101 q 160 214 158 161 l 189 768 q 195 835 192 803 q 201 885 199 867 q 147 883 178 883 q 99 881 117 882 l 103 972 l 468 972 m 110 1154 l 115 1267 l 500 1267 l 496 1160 l 110 1154 z "},"Į":{"ha":510,"x_min":51,"x_max":468,"o":"m 468 972 l 464 896 q 406 883 428 894 q 373 845 383 872 q 360 763 363 818 l 331 207 q 326 138 329 169 q 319 88 322 106 q 374 90 343 89 q 422 92 404 92 l 418 0 l 51 0 l 56 76 q 116 90 94 78 q 148 131 138 101 q 160 214 158 161 l 189 768 q 195 835 192 803 q 201 885 199 867 q 147 883 178 883 q 99 881 117 882 l 103 972 l 468 972 m 239 -376 q 138 -340 175 -376 q 104 -235 100 -303 q 154 -106 108 -165 q 272 -1 200 -46 q 421 69 343 44 l 417 0 q 324 -50 368 -19 q 253 -119 281 -81 q 224 -201 225 -158 q 241 -251 224 -232 q 290 -271 258 -271 q 337 -260 313 -271 q 385 -229 361 -249 l 421 -276 q 337 -347 386 -318 q 239 -376 288 -376 z "},"Ĩ":{"ha":510,"x_min":51,"x_max":556,"o":"m 468 972 l 464 896 q 406 883 428 894 q 373 845 383 872 q 360 763 363 818 l 331 207 q 326 138 329 169 q 319 88 322 106 q 374 90 343 89 q 422 92 404 92 l 418 0 l 51 0 l 56 76 q 116 90 94 78 q 148 131 138 101 q 160 214 158 161 l 189 768 q 195 835 192 803 q 201 885 199 867 q 147 883 178 883 q 99 881 117 882 l 103 972 l 468 972 m 133 1124 l 74 1161 q 140 1255 94 1219 q 229 1290 185 1290 q 298 1276 272 1292 q 346 1247 324 1261 q 401 1232 368 1232 q 452 1250 428 1231 q 496 1303 476 1269 l 556 1271 q 483 1157 528 1190 q 400 1124 439 1124 q 333 1138 361 1124 q 281 1168 304 1153 q 226 1183 257 1183 q 181 1170 208 1183 q 133 1124 154 1157 z "},"J":{"ha":582,"x_min":-18,"x_max":575,"o":"m 575 972 l 571 896 q 512 884 535 894 q 477 847 489 874 q 463 769 465 821 l 440 349 q 400 134 433 215 q 306 15 367 53 q 156 -22 246 -22 q 69 -6 108 -22 q 6 40 29 10 q -17 110 -18 69 q 8 179 -15 149 q 71 211 31 210 q 137 188 118 214 q 156 131 156 161 q 153 108 156 121 q 144 85 150 96 q 165 67 151 72 q 188 63 179 63 q 223 74 207 64 q 249 114 239 85 q 263 196 260 143 l 292 751 q 297 824 294 789 q 303 885 300 860 q 262 884 285 885 q 217 883 239 883 q 181 881 196 882 l 186 972 l 575 972 z "},"Ĵ":{"ha":582,"x_min":-18,"x_max":632,"o":"m 575 972 l 571 896 q 512 884 535 894 q 477 847 489 874 q 463 769 465 821 l 440 349 q 400 134 433 215 q 306 15 367 53 q 156 -22 246 -22 q 69 -6 108 -22 q 6 40 29 10 q -17 110 -18 69 q 8 179 -15 149 q 71 211 31 210 q 137 188 118 214 q 156 131 156 161 q 153 108 156 121 q 144 85 150 96 q 165 67 151 72 q 188 63 179 63 q 223 74 207 64 q 249 114 239 85 q 263 196 260 143 l 292 751 q 297 824 294 789 q 303 885 300 860 q 262 884 285 885 q 217 883 239 883 q 181 881 196 882 l 186 972 l 575 972 m 583 1067 l 403 1199 l 208 1072 l 167 1125 l 407 1332 l 421 1332 l 632 1121 l 583 1067 z "},"K":{"ha":967,"x_min":51,"x_max":951,"o":"m 51 0 l 56 76 q 116 90 94 78 q 148 131 138 101 q 160 214 158 161 l 189 768 q 195 835 192 803 q 201 885 199 867 q 147 883 178 883 q 99 881 117 882 l 103 972 l 468 972 l 464 896 q 407 883 429 894 q 374 845 385 872 q 360 763 363 818 l 347 542 l 451 542 l 590 754 q 643 830 615 792 q 694 886 671 868 q 648 884 672 885 q 607 882 624 883 l 610 972 l 936 972 l 933 896 q 853 882 893 893 q 774 838 814 871 q 688 739 733 806 l 543 524 q 595 481 574 504 q 633 431 617 457 l 769 226 q 833 144 803 178 q 892 94 863 111 q 951 76 921 78 l 946 0 l 751 0 q 715 24 739 1 q 667 78 692 46 q 621 140 642 111 l 485 349 q 443 406 465 378 q 401 450 421 435 q 376 449 394 450 q 343 449 358 449 l 331 207 q 326 138 329 169 q 319 88 322 106 q 374 90 343 89 q 422 92 404 92 l 418 0 l 51 0 z "},"Ǩ":{"ha":967,"x_min":51,"x_max":951,"o":"m 51 0 l 56 76 q 116 90 94 78 q 148 131 138 101 q 160 214 158 161 l 189 768 q 195 835 192 803 q 201 885 199 867 q 147 883 178 883 q 99 881 117 882 l 103 972 l 468 972 l 464 896 q 407 883 429 894 q 374 845 385 872 q 360 763 363 818 l 347 542 l 451 542 l 590 754 q 643 830 615 792 q 694 886 671 868 q 648 884 672 885 q 607 882 624 883 l 610 972 l 936 972 l 933 896 q 853 882 893 893 q 774 838 814 871 q 688 739 733 806 l 543 524 q 595 481 574 504 q 633 431 617 457 l 769 226 q 833 144 803 178 q 892 94 863 111 q 951 76 921 78 l 946 0 l 751 0 q 715 24 739 1 q 667 78 692 46 q 621 140 642 111 l 485 349 q 443 406 465 378 q 401 450 421 435 q 376 449 394 450 q 343 449 358 449 l 331 207 q 326 138 329 169 q 319 88 322 106 q 374 90 343 89 q 422 92 404 92 l 418 0 l 51 0 m 542 1071 l 522 1071 l 264 1278 l 299 1329 l 543 1204 l 801 1329 l 826 1281 l 542 1071 z "},"Ķ":{"ha":967,"x_min":51,"x_max":951,"o":"m 51 0 l 56 76 q 116 90 94 78 q 148 131 138 101 q 160 214 158 161 l 189 768 q 195 835 192 803 q 201 885 199 867 q 147 883 178 883 q 99 881 117 882 l 103 972 l 468 972 l 464 896 q 407 883 429 894 q 374 845 385 872 q 360 763 363 818 l 347 542 l 451 542 l 590 754 q 643 830 615 792 q 694 886 671 868 q 648 884 672 885 q 607 882 624 883 l 610 972 l 936 972 l 933 896 q 853 882 893 893 q 774 838 814 871 q 688 739 733 806 l 543 524 q 595 481 574 504 q 633 431 617 457 l 769 226 q 833 144 803 178 q 892 94 863 111 q 951 76 921 78 l 946 0 l 751 0 q 715 24 739 1 q 667 78 692 46 q 621 140 642 111 l 485 349 q 443 406 465 378 q 401 450 421 435 q 376 449 394 450 q 343 449 358 449 l 331 207 q 326 138 329 169 q 319 88 322 106 q 374 90 343 89 q 422 92 404 92 l 418 0 l 51 0 m 364 -392 l 304 -346 q 358 -246 343 -286 q 374 -169 374 -206 q 369 -89 375 -133 l 503 -60 q 517 -103 513 -81 q 519 -150 522 -126 q 496 -231 518 -189 q 439 -315 474 -274 q 364 -392 404 -356 z "},"L":{"ha":828,"x_min":51,"x_max":794,"o":"m 468 972 l 464 896 q 406 883 428 894 q 372 842 383 871 q 358 758 361 813 l 329 206 q 325 137 328 168 q 319 88 322 106 l 529 89 q 663 145 614 89 q 718 318 713 201 l 794 318 l 771 0 l 51 0 l 56 76 q 115 90 93 78 q 147 131 136 101 q 160 214 157 161 l 189 768 q 194 835 192 803 q 201 885 197 867 q 147 883 178 883 q 99 881 117 882 l 103 972 l 468 972 z "},"Ĺ":{"ha":828,"x_min":51,"x_max":794,"o":"m 468 972 l 464 896 q 406 883 428 894 q 372 842 383 871 q 358 758 361 813 l 329 206 q 325 137 328 168 q 319 88 322 106 l 529 89 q 663 145 614 89 q 718 318 713 201 l 794 318 l 771 0 l 51 0 l 56 76 q 115 90 93 78 q 147 131 136 101 q 160 214 157 161 l 189 768 q 194 835 192 803 q 201 885 197 867 q 147 883 178 883 q 99 881 117 882 l 103 972 l 468 972 m 249 1067 l 207 1124 l 379 1288 q 424 1317 401 1308 q 467 1320 447 1325 q 499 1299 488 1315 q 510 1260 511 1281 q 494 1222 508 1240 q 454 1188 481 1203 l 249 1067 z "},"Ľ":{"ha":828,"x_min":51,"x_max":794,"o":"m 468 972 l 464 896 q 406 883 428 894 q 372 842 383 871 q 358 758 361 813 l 329 206 q 325 137 328 168 q 319 88 322 106 l 529 89 q 663 145 614 89 q 718 318 713 201 l 794 318 l 771 0 l 51 0 l 56 76 q 115 90 93 78 q 147 131 136 101 q 160 214 157 161 l 189 768 q 194 835 192 803 q 201 885 197 867 q 147 883 178 883 q 99 881 117 882 l 103 972 l 468 972 m 619 668 l 571 704 q 616 815 604 765 q 624 908 628 864 q 610 994 621 951 l 724 972 q 740 928 736 947 q 740 882 743 910 q 700 769 735 825 q 619 668 665 713 z "},"Ļ":{"ha":828,"x_min":51,"x_max":794,"o":"m 468 972 l 464 896 q 406 883 428 894 q 372 842 383 871 q 358 758 361 813 l 329 206 q 325 137 328 168 q 319 88 322 106 l 529 89 q 663 145 614 89 q 718 318 713 201 l 794 318 l 771 0 l 51 0 l 56 76 q 115 90 93 78 q 147 131 136 101 q 160 214 157 161 l 189 768 q 194 835 192 803 q 201 885 197 867 q 147 883 178 883 q 99 881 117 882 l 103 972 l 468 972 m 296 -392 l 236 -346 q 290 -246 275 -286 q 306 -169 306 -206 q 301 -89 307 -133 l 435 -60 q 449 -103 444 -81 q 451 -150 454 -126 q 428 -231 450 -189 q 371 -315 406 -274 q 296 -392 336 -356 z "},"Ŀ":{"ha":828,"x_min":51,"x_max":794,"o":"m 468 972 l 464 896 q 406 883 428 894 q 372 842 383 871 q 358 758 361 813 l 329 206 q 325 137 328 168 q 319 88 322 106 l 529 89 q 663 145 614 89 q 718 318 713 201 l 794 318 l 771 0 l 51 0 l 56 76 q 115 90 93 78 q 147 131 136 101 q 160 214 157 161 l 189 768 q 194 835 192 803 q 201 885 197 867 q 147 883 178 883 q 99 881 117 882 l 103 972 l 468 972 m 540 568 q 606 538 581 568 q 628 467 631 508 q 599 395 626 425 q 531 365 571 365 q 464 395 489 365 q 440 467 439 425 q 473 538 443 508 q 540 568 503 568 z "},"Ł":{"ha":828,"x_min":53,"x_max":796,"o":"m 469 972 l 465 896 q 407 883 429 894 q 374 842 385 871 q 360 758 363 813 l 353 608 l 596 788 l 589 660 l 346 482 l 331 206 q 326 137 329 168 q 321 88 324 106 l 531 89 q 665 146 615 90 q 719 318 714 201 l 796 318 l 772 0 l 53 0 l 57 76 q 116 90 94 78 q 148 131 138 101 q 161 214 158 161 l 169 353 l 58 272 l 64 401 l 175 482 l 190 768 q 196 835 193 803 q 203 885 199 867 q 149 883 179 883 q 100 881 118 882 l 104 972 l 469 972 z "},"M":{"ha":1322,"x_min":43,"x_max":1269,"o":"m 560 -14 l 367 510 q 342 580 356 539 q 316 669 329 621 q 292 769 303 718 l 290 769 q 285 631 288 697 q 278 503 282 564 l 256 210 q 249 142 253 175 q 242 88 246 108 q 298 90 267 89 q 347 92 329 92 l 343 0 l 43 0 l 49 76 q 105 88 83 78 q 137 125 126 99 q 151 200 147 151 l 196 763 q 202 831 199 797 q 208 885 206 864 q 155 883 186 883 q 106 881 124 882 l 111 972 l 378 972 l 576 424 q 616 305 599 361 q 650 196 633 249 l 651 196 q 691 290 671 240 q 729 382 711 340 q 815 578 771 479 q 902 776 858 678 q 988 972 946 875 l 1269 972 l 1265 896 q 1210 886 1233 896 q 1174 849 1186 876 q 1160 765 1161 822 l 1157 200 q 1154 136 1157 167 q 1147 88 1151 106 q 1203 90 1172 89 q 1253 92 1235 92 l 1247 0 l 886 0 l 890 76 q 947 88 925 78 q 981 126 969 97 q 993 213 993 154 l 996 567 q 996 619 996 585 q 997 694 996 654 q 997 771 997 735 l 994 771 l 935 629 l 657 -14 l 560 -14 z "},"N":{"ha":1068,"x_min":54,"x_max":1047,"o":"m 799 -14 l 365 592 q 326 647 346 618 q 286 706 306 676 l 283 706 l 264 217 q 259 144 263 179 q 251 88 256 110 q 307 90 276 89 q 356 92 338 92 l 350 0 l 54 0 l 58 76 q 116 88 94 78 q 149 124 138 99 q 161 193 160 150 l 188 756 q 193 826 190 792 q 197 885 196 861 q 144 883 175 883 q 96 881 114 882 l 101 972 l 303 972 l 714 404 q 769 326 744 361 q 813 260 793 290 l 814 260 l 839 768 q 844 835 842 804 q 850 885 847 867 q 797 883 828 883 q 747 881 765 882 l 753 972 l 1047 972 l 1044 896 q 984 883 1006 894 q 953 842 963 871 q 940 758 943 813 l 899 -14 l 799 -14 z "},"Ń":{"ha":1068,"x_min":54,"x_max":1047,"o":"m 799 -14 l 365 592 q 326 647 346 618 q 286 706 306 676 l 283 706 l 264 217 q 259 144 263 179 q 251 88 256 110 q 307 90 276 89 q 356 92 338 92 l 350 0 l 54 0 l 58 76 q 116 88 94 78 q 149 124 138 99 q 161 193 160 150 l 188 756 q 193 826 190 792 q 197 885 196 861 q 144 883 175 883 q 96 881 114 882 l 101 972 l 303 972 l 714 404 q 769 326 744 361 q 813 260 793 290 l 814 260 l 839 768 q 844 835 842 804 q 850 885 847 867 q 797 883 828 883 q 747 881 765 882 l 753 972 l 1047 972 l 1044 896 q 984 883 1006 894 q 953 842 963 871 q 940 758 943 813 l 899 -14 l 799 -14 m 531 1067 l 489 1124 l 661 1288 q 706 1317 683 1308 q 749 1320 729 1325 q 781 1299 769 1315 q 792 1260 793 1281 q 776 1222 790 1240 q 736 1188 763 1203 l 531 1067 z "},"Ň":{"ha":1068,"x_min":54,"x_max":1047,"o":"m 799 -14 l 365 592 q 326 647 346 618 q 286 706 306 676 l 283 706 l 264 217 q 259 144 263 179 q 251 88 256 110 q 307 90 276 89 q 356 92 338 92 l 350 0 l 54 0 l 58 76 q 116 88 94 78 q 149 124 138 99 q 161 193 160 150 l 188 756 q 193 826 190 792 q 197 885 196 861 q 144 883 175 883 q 96 881 114 882 l 101 972 l 303 972 l 714 404 q 769 326 744 361 q 813 260 793 290 l 814 260 l 839 768 q 844 835 842 804 q 850 885 847 867 q 797 883 828 883 q 747 881 765 882 l 753 972 l 1047 972 l 1044 896 q 984 883 1006 894 q 953 842 963 871 q 940 758 943 813 l 899 -14 l 799 -14 m 575 1071 l 556 1071 l 297 1278 l 332 1329 l 576 1204 l 835 1329 l 860 1281 l 575 1071 z "},"Ņ":{"ha":1068,"x_min":54,"x_max":1047,"o":"m 799 -14 l 365 592 q 326 647 346 618 q 286 706 306 676 l 283 706 l 264 217 q 259 144 263 179 q 251 88 256 110 q 307 90 276 89 q 356 92 338 92 l 350 0 l 54 0 l 58 76 q 116 88 94 78 q 149 124 138 99 q 161 193 160 150 l 188 756 q 193 826 190 792 q 197 885 196 861 q 144 883 175 883 q 96 881 114 882 l 101 972 l 303 972 l 714 404 q 769 326 744 361 q 813 260 793 290 l 814 260 l 839 768 q 844 835 842 804 q 850 885 847 867 q 797 883 828 883 q 747 881 765 882 l 753 972 l 1047 972 l 1044 896 q 984 883 1006 894 q 953 842 963 871 q 940 758 943 813 l 899 -14 l 799 -14 m 415 -392 l 356 -346 q 410 -246 394 -286 q 426 -169 425 -206 q 421 -89 426 -133 l 554 -60 q 569 -103 564 -81 q 571 -150 574 -126 q 547 -231 569 -189 q 490 -315 525 -274 q 415 -392 456 -356 z "},"Ñ":{"ha":1068,"x_min":54,"x_max":1047,"o":"m 799 -14 l 365 592 q 326 647 346 618 q 286 706 306 676 l 283 706 l 264 217 q 259 144 263 179 q 251 88 256 110 q 307 90 276 89 q 356 92 338 92 l 350 0 l 54 0 l 58 76 q 116 88 94 78 q 149 124 138 99 q 161 193 160 150 l 188 756 q 193 826 190 792 q 197 885 196 861 q 144 883 175 883 q 96 881 114 882 l 101 972 l 303 972 l 714 404 q 769 326 744 361 q 813 260 793 290 l 814 260 l 839 768 q 844 835 842 804 q 850 885 847 867 q 797 883 828 883 q 747 881 765 882 l 753 972 l 1047 972 l 1044 896 q 984 883 1006 894 q 953 842 963 871 q 940 758 943 813 l 899 -14 l 799 -14 m 475 1179 q 415 1164 447 1179 q 354 1107 382 1149 l 294 1144 q 376 1252 325 1217 q 475 1288 428 1288 q 540 1277 513 1289 q 589 1250 567 1265 q 634 1223 611 1235 q 683 1211 657 1211 q 749 1235 714 1211 q 803 1296 783 1258 l 864 1264 q 808 1163 839 1199 q 746 1115 778 1128 q 683 1103 714 1103 q 624 1114 650 1103 q 575 1140 599 1125 q 528 1167 551 1156 q 475 1179 504 1179 z "},"Ŋ":{"ha":1068,"x_min":54,"x_max":1047,"o":"m 904 101 l 900 -4 q 863 -217 893 -136 q 777 -333 832 -297 q 644 -369 722 -369 q 549 -351 590 -369 q 485 -300 507 -332 q 463 -231 463 -268 q 485 -165 465 -192 q 546 -136 506 -139 q 612 -160 593 -133 q 631 -217 631 -186 q 628 -239 631 -226 q 619 -262 625 -251 q 639 -280 624 -275 q 671 -285 654 -285 q 731 -271 704 -285 q 774 -226 757 -257 q 793 -147 790 -196 l 806 101 l 904 101 m 799 -14 l 365 592 q 326 647 346 618 q 286 706 306 676 l 283 706 l 264 217 q 259 144 263 179 q 251 88 256 110 q 307 90 276 89 q 356 92 338 92 l 350 0 l 54 0 l 58 76 q 116 88 94 78 q 149 124 138 99 q 161 193 160 150 l 188 756 q 193 826 190 792 q 197 885 196 861 q 144 883 175 883 q 96 881 114 882 l 101 972 l 303 972 l 714 404 q 769 326 744 361 q 813 260 793 290 l 814 260 l 839 768 q 844 835 842 804 q 850 885 847 867 q 797 883 828 883 q 747 881 765 882 l 753 972 l 1047 972 l 1044 896 q 984 883 1006 894 q 953 842 963 871 q 940 758 943 813 l 899 -14 l 799 -14 z "},"O":{"ha":1071,"x_min":56,"x_max":1024,"o":"m 567 994 q 780 949 692 994 q 922 831 868 904 q 1000 669 976 757 q 1021 494 1024 582 q 985 317 1018 408 q 890 149 953 226 q 733 25 826 72 q 515 -22 640 -22 q 297 22 386 -22 q 155 138 208 65 q 78 299 101 211 q 60 475 56 388 q 97 662 63 569 q 195 829 131 754 q 353 949 260 904 q 567 994 446 994 m 549 913 q 416 874 472 913 q 323 773 360 835 q 267 639 286 711 q 247 497 249 567 q 256 353 243 429 q 302 211 269 278 q 390 102 335 144 q 531 60 446 60 q 665 98 608 60 q 758 197 721 136 q 813 331 794 258 q 835 472 832 403 q 822 643 838 563 q 770 785 806 724 q 680 880 735 846 q 549 913 625 914 z "},"Ó":{"ha":1071,"x_min":56,"x_max":1024,"o":"m 567 994 q 780 949 692 994 q 922 831 868 904 q 1000 669 976 757 q 1021 494 1024 582 q 985 317 1018 408 q 890 149 953 226 q 733 25 826 72 q 515 -22 640 -22 q 297 22 386 -22 q 155 138 208 65 q 78 299 101 211 q 60 475 56 388 q 97 662 63 569 q 195 829 131 754 q 353 949 260 904 q 567 994 446 994 m 549 913 q 416 874 472 913 q 323 773 360 835 q 267 639 286 711 q 247 497 249 567 q 256 353 243 429 q 302 211 269 278 q 390 102 335 144 q 531 60 446 60 q 665 98 608 60 q 758 197 721 136 q 813 331 794 258 q 835 472 832 403 q 822 643 838 563 q 770 785 806 724 q 680 880 735 846 q 549 913 625 914 m 526 1067 l 485 1124 l 657 1288 q 702 1317 679 1308 q 745 1320 725 1325 q 776 1299 765 1315 q 788 1260 789 1281 q 772 1222 786 1240 q 732 1188 758 1203 l 526 1067 z "},"Ŏ":{"ha":1071,"x_min":56,"x_max":1024,"o":"m 567 994 q 780 949 692 994 q 922 831 868 904 q 1000 669 976 757 q 1021 494 1024 582 q 985 317 1018 408 q 890 149 953 226 q 733 25 826 72 q 515 -22 640 -22 q 297 22 386 -22 q 155 138 208 65 q 78 299 101 211 q 60 475 56 388 q 97 662 63 569 q 195 829 131 754 q 353 949 260 904 q 567 994 446 994 m 549 913 q 416 874 472 913 q 323 773 360 835 q 267 639 286 711 q 247 497 249 567 q 256 353 243 429 q 302 211 269 278 q 390 102 335 144 q 531 60 446 60 q 665 98 608 60 q 758 197 721 136 q 813 331 794 258 q 835 472 832 403 q 822 643 838 563 q 770 785 806 724 q 680 880 735 846 q 549 913 625 914 m 575 1104 q 488 1119 531 1104 q 410 1167 444 1135 q 356 1251 375 1199 l 424 1294 q 486 1241 446 1264 q 583 1218 526 1218 q 684 1241 642 1218 q 753 1294 726 1264 l 815 1251 q 749 1167 789 1199 q 665 1119 710 1135 q 575 1104 621 1104 z "},"Ô":{"ha":1071,"x_min":56,"x_max":1024,"o":"m 567 994 q 780 949 692 994 q 922 831 868 904 q 1000 669 976 757 q 1021 494 1024 582 q 985 317 1018 408 q 890 149 953 226 q 733 25 826 72 q 515 -22 640 -22 q 297 22 386 -22 q 155 138 208 65 q 78 299 101 211 q 60 475 56 388 q 97 662 63 569 q 195 829 131 754 q 353 949 260 904 q 567 994 446 994 m 549 913 q 416 874 472 913 q 323 773 360 835 q 267 639 286 711 q 247 497 249 567 q 256 353 243 429 q 302 211 269 278 q 390 102 335 144 q 531 60 446 60 q 665 98 608 60 q 758 197 721 136 q 813 331 794 258 q 835 472 832 403 q 822 643 838 563 q 770 785 806 724 q 680 880 735 846 q 549 913 625 914 m 821 1075 l 574 1197 l 317 1078 l 292 1128 l 579 1331 l 597 1331 l 856 1126 l 821 1075 z "},"Ố":{"ha":1071,"x_min":56,"x_max":1024,"o":"m 567 994 q 780 949 692 994 q 922 831 868 904 q 1000 669 976 757 q 1021 494 1024 582 q 985 317 1018 408 q 890 149 953 226 q 733 25 826 72 q 515 -22 640 -22 q 297 22 386 -22 q 155 138 208 65 q 78 299 101 211 q 60 475 56 388 q 97 662 63 569 q 195 829 131 754 q 353 949 260 904 q 567 994 446 994 m 549 913 q 416 874 472 913 q 323 773 360 835 q 267 639 286 711 q 247 497 249 567 q 256 353 243 429 q 302 211 269 278 q 390 102 335 144 q 531 60 446 60 q 665 98 608 60 q 758 197 721 136 q 813 331 794 258 q 835 472 832 403 q 822 643 838 563 q 770 785 806 724 q 680 880 735 846 q 549 913 625 914 m 733 1053 l 564 1136 l 389 1054 l 357 1108 l 568 1253 l 581 1253 l 772 1113 l 733 1053 m 772 1200 l 729 1239 l 828 1396 q 858 1428 840 1419 q 894 1436 876 1438 q 924 1424 911 1435 q 939 1376 943 1406 q 908 1322 935 1346 l 772 1200 z "},"Ộ":{"ha":1071,"x_min":56,"x_max":1024,"o":"m 567 994 q 780 949 692 994 q 922 831 868 904 q 1000 669 976 757 q 1021 494 1024 582 q 985 317 1018 408 q 890 149 953 226 q 733 25 826 72 q 515 -22 640 -22 q 297 22 386 -22 q 155 138 208 65 q 78 299 101 211 q 60 475 56 388 q 97 662 63 569 q 195 829 131 754 q 353 949 260 904 q 567 994 446 994 m 549 913 q 416 874 472 913 q 323 773 360 835 q 267 639 286 711 q 247 497 249 567 q 256 353 243 429 q 302 211 269 278 q 390 102 335 144 q 531 60 446 60 q 665 98 608 60 q 758 197 721 136 q 813 331 794 258 q 835 472 832 403 q 822 643 838 563 q 770 785 806 724 q 680 880 735 846 q 549 913 625 914 m 513 -101 q 566 -126 546 -101 q 585 -186 586 -151 q 560 -245 583 -221 q 504 -269 538 -269 q 449 -245 469 -269 q 429 -186 428 -221 q 457 -126 432 -151 q 513 -101 482 -101 m 821 1075 l 574 1197 l 317 1078 l 292 1128 l 579 1331 l 597 1331 l 856 1126 l 821 1075 z "},"Ồ":{"ha":1071,"x_min":56,"x_max":1024,"o":"m 567 994 q 780 949 692 994 q 922 831 868 904 q 1000 669 976 757 q 1021 494 1024 582 q 985 317 1018 408 q 890 149 953 226 q 733 25 826 72 q 515 -22 640 -22 q 297 22 386 -22 q 155 138 208 65 q 78 299 101 211 q 60 475 56 388 q 97 662 63 569 q 195 829 131 754 q 353 949 260 904 q 567 994 446 994 m 549 913 q 416 874 472 913 q 323 773 360 835 q 267 639 286 711 q 247 497 249 567 q 256 353 243 429 q 302 211 269 278 q 390 102 335 144 q 531 60 446 60 q 665 98 608 60 q 758 197 721 136 q 813 331 794 258 q 835 472 832 403 q 822 643 838 563 q 770 785 806 724 q 680 880 735 846 q 549 913 625 914 m 733 1053 l 565 1136 l 390 1054 l 357 1108 l 568 1253 l 581 1253 l 774 1113 l 733 1053 m 725 1222 l 596 1349 q 566 1404 568 1375 q 585 1453 564 1433 q 617 1465 600 1464 q 651 1456 633 1465 q 679 1424 668 1446 l 772 1263 l 725 1222 z "},"Ổ":{"ha":1071,"x_min":56,"x_max":1024,"o":"m 567 994 q 780 949 692 994 q 922 831 868 904 q 1000 669 976 757 q 1021 494 1024 582 q 985 317 1018 408 q 890 149 953 226 q 733 25 826 72 q 515 -22 640 -22 q 297 22 386 -22 q 155 138 208 65 q 78 299 101 211 q 60 475 56 388 q 97 662 63 569 q 195 829 131 754 q 353 949 260 904 q 567 994 446 994 m 549 913 q 416 874 472 913 q 323 773 360 835 q 267 639 286 711 q 247 497 249 567 q 256 353 243 429 q 302 211 269 278 q 390 102 335 144 q 531 60 446 60 q 665 98 608 60 q 758 197 721 136 q 813 331 794 258 q 835 472 832 403 q 822 643 838 563 q 770 785 806 724 q 680 880 735 846 q 549 913 625 914 m 733 1053 l 565 1136 l 390 1054 l 357 1108 l 568 1253 l 581 1253 l 774 1113 l 733 1053 m 714 1207 q 735 1249 715 1235 q 771 1281 754 1264 q 788 1305 781 1292 q 796 1335 794 1318 q 780 1379 799 1363 q 731 1396 761 1396 q 680 1383 697 1396 q 660 1357 663 1369 q 681 1347 674 1356 q 686 1326 688 1339 q 674 1300 686 1313 q 640 1288 661 1288 q 597 1305 614 1288 q 582 1350 581 1322 q 625 1428 585 1392 q 735 1464 665 1464 q 851 1431 811 1464 q 888 1346 890 1397 q 868 1292 886 1311 q 828 1256 850 1272 q 799 1231 811 1243 q 788 1207 788 1218 l 714 1207 z "},"Ỗ":{"ha":1071,"x_min":56,"x_max":1024,"o":"m 567 994 q 780 949 692 994 q 922 831 868 904 q 1000 669 976 757 q 1021 494 1024 582 q 985 317 1018 408 q 890 149 953 226 q 733 25 826 72 q 515 -22 640 -22 q 297 22 386 -22 q 155 138 208 65 q 78 299 101 211 q 60 475 56 388 q 97 662 63 569 q 195 829 131 754 q 353 949 260 904 q 567 994 446 994 m 549 913 q 416 874 472 913 q 323 773 360 835 q 267 639 286 711 q 247 497 249 567 q 256 353 243 429 q 302 211 269 278 q 390 102 335 144 q 531 60 446 60 q 665 98 608 60 q 758 197 721 136 q 813 331 794 258 q 835 472 832 403 q 822 643 838 563 q 770 785 806 724 q 680 880 735 846 q 549 913 625 914 m 733 1053 l 564 1136 l 389 1054 l 357 1108 l 568 1253 l 581 1253 l 772 1113 l 733 1053 m 436 1260 l 386 1290 q 442 1367 404 1338 q 515 1397 479 1397 q 572 1385 551 1397 q 612 1360 593 1372 q 657 1347 631 1347 q 700 1363 681 1347 q 735 1407 719 1379 l 785 1381 q 726 1285 763 1313 q 656 1258 689 1258 q 601 1271 624 1258 q 558 1296 578 1283 q 514 1308 538 1308 q 475 1297 497 1308 q 436 1260 453 1286 z "},"Ö":{"ha":1071,"x_min":56,"x_max":1024,"o":"m 567 994 q 780 949 692 994 q 922 831 868 904 q 1000 669 976 757 q 1021 494 1024 582 q 985 317 1018 408 q 890 149 953 226 q 733 25 826 72 q 515 -22 640 -22 q 297 22 386 -22 q 155 138 208 65 q 78 299 101 211 q 60 475 56 388 q 97 662 63 569 q 195 829 131 754 q 353 949 260 904 q 567 994 446 994 m 549 913 q 416 874 472 913 q 323 773 360 835 q 267 639 286 711 q 247 497 249 567 q 256 353 243 429 q 302 211 269 278 q 390 102 335 144 q 531 60 446 60 q 665 98 608 60 q 758 197 721 136 q 813 331 794 258 q 835 472 832 403 q 822 643 838 563 q 770 785 806 724 q 680 880 735 846 q 549 913 625 914 m 451 1100 q 396 1126 418 1100 q 374 1193 374 1153 q 401 1265 375 1235 q 464 1296 428 1296 q 519 1268 497 1296 q 539 1201 540 1240 q 513 1131 539 1161 q 451 1100 488 1100 m 688 1100 q 633 1126 654 1100 q 611 1193 611 1153 q 638 1265 611 1235 q 700 1296 664 1296 q 755 1268 735 1296 q 775 1201 775 1240 q 749 1130 775 1160 q 688 1100 724 1100 z "},"Ọ":{"ha":1071,"x_min":56,"x_max":1024,"o":"m 567 994 q 780 949 692 994 q 922 831 868 904 q 1000 669 976 757 q 1021 494 1024 582 q 985 317 1018 408 q 890 149 953 226 q 733 25 826 72 q 515 -22 640 -22 q 297 22 386 -22 q 155 138 208 65 q 78 299 101 211 q 60 475 56 388 q 97 662 63 569 q 195 829 131 754 q 353 949 260 904 q 567 994 446 994 m 549 913 q 416 874 472 913 q 323 773 360 835 q 267 639 286 711 q 247 497 249 567 q 256 353 243 429 q 302 211 269 278 q 390 102 335 144 q 531 60 446 60 q 665 98 608 60 q 758 197 721 136 q 813 331 794 258 q 835 472 832 403 q 822 643 838 563 q 770 785 806 724 q 680 880 735 846 q 549 913 625 914 m 513 -101 q 566 -126 546 -101 q 585 -186 586 -151 q 560 -245 583 -221 q 504 -269 538 -269 q 449 -245 469 -269 q 429 -186 428 -221 q 457 -126 432 -151 q 513 -101 482 -101 z "},"Ò":{"ha":1071,"x_min":56,"x_max":1024,"o":"m 567 994 q 780 949 692 994 q 922 831 868 904 q 1000 669 976 757 q 1021 494 1024 582 q 985 317 1018 408 q 890 149 953 226 q 733 25 826 72 q 515 -22 640 -22 q 297 22 386 -22 q 155 138 208 65 q 78 299 101 211 q 60 475 56 388 q 97 662 63 569 q 195 829 131 754 q 353 949 260 904 q 567 994 446 994 m 549 913 q 416 874 472 913 q 323 773 360 835 q 267 639 286 711 q 247 497 249 567 q 256 353 243 429 q 302 211 269 278 q 390 102 335 144 q 531 60 446 60 q 665 98 608 60 q 758 197 721 136 q 813 331 794 258 q 835 472 832 403 q 822 643 838 563 q 770 785 806 724 q 680 880 735 846 q 549 913 625 914 m 629 1067 l 431 1188 q 394 1222 407 1203 q 381 1262 381 1242 q 394 1299 382 1282 q 428 1320 408 1315 q 472 1317 449 1325 q 515 1288 494 1308 l 675 1125 l 629 1067 z "},"Ỏ":{"ha":1071,"x_min":56,"x_max":1024,"o":"m 567 994 q 780 949 692 994 q 922 831 868 904 q 1000 669 976 757 q 1021 494 1024 582 q 985 317 1018 408 q 890 149 953 226 q 733 25 826 72 q 515 -22 640 -22 q 297 22 386 -22 q 155 138 208 65 q 78 299 101 211 q 60 475 56 388 q 97 662 63 569 q 195 829 131 754 q 353 949 260 904 q 567 994 446 994 m 549 913 q 416 874 472 913 q 323 773 360 835 q 267 639 286 711 q 247 497 249 567 q 256 353 243 429 q 302 211 269 278 q 390 102 335 144 q 531 60 446 60 q 665 98 608 60 q 758 197 721 136 q 813 331 794 258 q 835 472 832 403 q 822 643 838 563 q 770 785 806 724 q 680 880 735 846 q 549 913 625 914 m 546 1053 q 567 1097 547 1081 q 604 1131 586 1114 q 623 1156 615 1142 q 632 1186 631 1169 q 615 1231 635 1214 q 564 1249 594 1249 q 510 1235 529 1249 q 489 1210 492 1221 q 511 1199 504 1208 q 518 1178 518 1190 q 503 1149 517 1161 q 469 1136 490 1136 q 425 1154 443 1136 q 408 1201 407 1172 q 430 1258 411 1231 q 484 1303 449 1285 q 567 1321 519 1321 q 688 1286 646 1321 q 726 1197 729 1251 q 706 1142 725 1161 q 664 1104 688 1122 q 635 1078 646 1090 q 622 1053 624 1065 l 546 1053 z "},"Ơ":{"ha":1071,"x_min":56,"x_max":1024,"o":"m 567 994 q 780 949 692 994 q 922 831 868 904 q 1000 669 976 757 q 1021 494 1024 582 q 985 317 1018 408 q 890 149 953 226 q 733 25 826 72 q 515 -22 640 -22 q 297 22 386 -22 q 155 138 208 65 q 78 299 101 211 q 60 475 56 388 q 97 662 63 569 q 195 829 131 754 q 353 949 260 904 q 567 994 446 994 m 549 913 q 416 874 472 913 q 323 773 360 835 q 267 639 286 711 q 247 497 249 567 q 256 353 243 429 q 302 211 269 278 q 390 102 335 144 q 531 60 446 60 q 665 98 608 60 q 758 197 721 136 q 813 331 794 258 q 835 472 832 403 q 822 643 838 563 q 770 785 806 724 q 680 880 735 846 q 549 913 625 914 m 707 886 l 722 965 q 795 1000 772 965 q 825 1071 818 1035 l 956 1071 q 913 974 944 1017 q 829 909 881 932 q 707 886 778 886 z "},"Ớ":{"ha":1071,"x_min":56,"x_max":1024,"o":"m 567 994 q 780 949 692 994 q 922 831 868 904 q 1000 669 976 757 q 1021 494 1024 582 q 985 317 1018 408 q 890 149 953 226 q 733 25 826 72 q 515 -22 640 -22 q 297 22 386 -22 q 155 138 208 65 q 78 299 101 211 q 60 475 56 388 q 97 662 63 569 q 195 829 131 754 q 353 949 260 904 q 567 994 446 994 m 549 913 q 416 874 472 913 q 323 773 360 835 q 267 639 286 711 q 247 497 249 567 q 256 353 243 429 q 302 211 269 278 q 390 102 335 144 q 531 60 446 60 q 665 98 608 60 q 758 197 721 136 q 813 331 794 258 q 835 472 832 403 q 822 643 838 563 q 770 785 806 724 q 680 880 735 846 q 549 913 625 914 m 707 886 l 722 965 q 795 1000 772 965 q 825 1071 818 1035 l 956 1071 q 913 974 944 1017 q 829 909 881 932 q 707 886 778 886 m 490 1065 l 439 1113 l 557 1303 q 596 1341 574 1329 q 639 1351 618 1353 q 674 1336 660 1350 q 694 1300 690 1321 q 688 1256 697 1279 q 656 1213 678 1232 l 490 1065 z "},"Ợ":{"ha":1071,"x_min":56,"x_max":1024,"o":"m 567 994 q 780 949 692 994 q 922 831 868 904 q 1000 669 976 757 q 1021 494 1024 582 q 985 317 1018 408 q 890 149 953 226 q 733 25 826 72 q 515 -22 640 -22 q 297 22 386 -22 q 155 138 208 65 q 78 299 101 211 q 60 475 56 388 q 97 662 63 569 q 195 829 131 754 q 353 949 260 904 q 567 994 446 994 m 549 913 q 416 874 472 913 q 323 773 360 835 q 267 639 286 711 q 247 497 249 567 q 256 353 243 429 q 302 211 269 278 q 390 102 335 144 q 531 60 446 60 q 665 98 608 60 q 758 197 721 136 q 813 331 794 258 q 835 472 832 403 q 822 643 838 563 q 770 785 806 724 q 680 880 735 846 q 549 913 625 914 m 707 886 l 722 965 q 795 1000 772 965 q 825 1071 818 1035 l 956 1071 q 913 974 944 1017 q 829 909 881 932 q 707 886 778 886 m 513 -101 q 566 -126 546 -101 q 585 -186 586 -151 q 560 -245 583 -221 q 504 -269 538 -269 q 449 -245 469 -269 q 429 -186 428 -221 q 457 -126 432 -151 q 513 -101 482 -101 z "},"Ờ":{"ha":1071,"x_min":56,"x_max":1024,"o":"m 567 994 q 780 949 692 994 q 922 831 868 904 q 1000 669 976 757 q 1021 494 1024 582 q 985 317 1018 408 q 890 149 953 226 q 733 25 826 72 q 515 -22 640 -22 q 297 22 386 -22 q 155 138 208 65 q 78 299 101 211 q 60 475 56 388 q 97 662 63 569 q 195 829 131 754 q 353 949 260 904 q 567 994 446 994 m 549 913 q 416 874 472 913 q 323 773 360 835 q 267 639 286 711 q 247 497 249 567 q 256 353 243 429 q 302 211 269 278 q 390 102 335 144 q 531 60 446 60 q 665 98 608 60 q 758 197 721 136 q 813 331 794 258 q 835 472 832 403 q 822 643 838 563 q 770 785 806 724 q 680 880 735 846 q 549 913 625 914 m 707 886 l 722 965 q 795 1000 772 965 q 825 1071 818 1035 l 956 1071 q 913 974 944 1017 q 829 909 881 932 q 707 886 778 886 m 615 1065 l 461 1214 q 433 1257 442 1235 q 429 1300 425 1279 q 450 1336 433 1321 q 487 1351 467 1350 q 527 1340 507 1351 q 563 1303 547 1329 l 671 1113 l 615 1065 z "},"Ở":{"ha":1071,"x_min":56,"x_max":1024,"o":"m 567 994 q 780 949 692 994 q 922 831 868 904 q 1000 669 976 757 q 1021 494 1024 582 q 985 317 1018 408 q 890 149 953 226 q 733 25 826 72 q 515 -22 640 -22 q 297 22 386 -22 q 155 138 208 65 q 78 299 101 211 q 60 475 56 388 q 97 662 63 569 q 195 829 131 754 q 353 949 260 904 q 567 994 446 994 m 549 913 q 416 874 472 913 q 323 773 360 835 q 267 639 286 711 q 247 497 249 567 q 256 353 243 429 q 302 211 269 278 q 390 102 335 144 q 531 60 446 60 q 665 98 608 60 q 758 197 721 136 q 813 331 794 258 q 835 472 832 403 q 822 643 838 563 q 770 785 806 724 q 680 880 735 846 q 549 913 625 914 m 707 886 l 722 965 q 795 1000 772 965 q 825 1071 818 1035 l 956 1071 q 913 974 944 1017 q 829 909 881 932 q 707 886 778 886 m 546 1053 q 567 1097 547 1081 q 604 1131 586 1114 q 623 1156 615 1142 q 632 1186 631 1169 q 615 1231 635 1214 q 564 1249 594 1249 q 510 1235 529 1249 q 489 1210 492 1221 q 511 1199 504 1208 q 518 1178 518 1190 q 503 1149 517 1161 q 469 1136 490 1136 q 425 1154 443 1136 q 408 1201 407 1172 q 430 1258 411 1231 q 484 1303 449 1285 q 567 1321 519 1321 q 688 1286 646 1321 q 726 1197 729 1251 q 706 1142 725 1161 q 664 1104 688 1122 q 635 1078 646 1090 q 622 1053 624 1065 l 546 1053 z "},"Ỡ":{"ha":1071,"x_min":56,"x_max":1024,"o":"m 567 994 q 780 949 692 994 q 922 831 868 904 q 1000 669 976 757 q 1021 494 1024 582 q 985 317 1018 408 q 890 149 953 226 q 733 25 826 72 q 515 -22 640 -22 q 297 22 386 -22 q 155 138 208 65 q 78 299 101 211 q 60 475 56 388 q 97 662 63 569 q 195 829 131 754 q 353 949 260 904 q 567 994 446 994 m 549 913 q 416 874 472 913 q 323 773 360 835 q 267 639 286 711 q 247 497 249 567 q 256 353 243 429 q 302 211 269 278 q 390 102 335 144 q 531 60 446 60 q 665 98 608 60 q 758 197 721 136 q 813 331 794 258 q 835 472 832 403 q 822 643 838 563 q 770 785 806 724 q 680 880 735 846 q 549 913 625 914 m 707 886 l 722 965 q 795 1000 772 965 q 825 1071 818 1035 l 956 1071 q 913 974 944 1017 q 829 909 881 932 q 707 886 778 886 m 394 1124 l 335 1161 q 401 1255 356 1219 q 490 1290 446 1290 q 559 1276 533 1292 q 607 1247 585 1261 q 663 1232 629 1232 q 713 1250 689 1231 q 757 1303 738 1269 l 817 1271 q 744 1157 789 1190 q 661 1124 700 1124 q 594 1138 622 1124 q 542 1168 565 1153 q 488 1183 518 1183 q 442 1170 469 1183 q 394 1124 415 1157 z "},"Ő":{"ha":1071,"x_min":56,"x_max":1024,"o":"m 567 994 q 780 949 692 994 q 922 831 868 904 q 1000 669 976 757 q 1021 494 1024 582 q 985 317 1018 408 q 890 149 953 226 q 733 25 826 72 q 515 -22 640 -22 q 297 22 386 -22 q 155 138 208 65 q 78 299 101 211 q 60 475 56 388 q 97 662 63 569 q 195 829 131 754 q 353 949 260 904 q 567 994 446 994 m 549 913 q 416 874 472 913 q 323 773 360 835 q 267 639 286 711 q 247 497 249 567 q 256 353 243 429 q 302 211 269 278 q 390 102 335 144 q 531 60 446 60 q 665 98 608 60 q 758 197 721 136 q 813 331 794 258 q 835 472 832 403 q 822 643 838 563 q 770 785 806 724 q 680 880 735 846 q 549 913 625 914 m 571 1086 l 529 1140 l 678 1297 q 751 1347 715 1338 q 807 1332 788 1356 q 817 1293 821 1314 q 798 1253 814 1272 q 758 1218 782 1233 l 571 1086 m 367 1082 l 317 1129 l 443 1301 q 485 1344 463 1329 q 528 1360 507 1358 q 563 1349 549 1363 q 578 1315 578 1335 q 567 1274 579 1296 q 532 1231 556 1251 l 367 1082 z "},"Ō":{"ha":1071,"x_min":56,"x_max":1024,"o":"m 567 994 q 780 949 692 994 q 922 831 868 904 q 1000 669 976 757 q 1021 494 1024 582 q 985 317 1018 408 q 890 149 953 226 q 733 25 826 72 q 515 -22 640 -22 q 297 22 386 -22 q 155 138 208 65 q 78 299 101 211 q 60 475 56 388 q 97 662 63 569 q 195 829 131 754 q 353 949 260 904 q 567 994 446 994 m 549 913 q 416 874 472 913 q 323 773 360 835 q 267 639 286 711 q 247 497 249 567 q 256 353 243 429 q 302 211 269 278 q 390 102 335 144 q 531 60 446 60 q 665 98 608 60 q 758 197 721 136 q 813 331 794 258 q 835 472 832 403 q 822 643 838 563 q 770 785 806 724 q 680 880 735 846 q 549 913 625 914 m 371 1154 l 376 1267 l 761 1267 l 757 1160 l 371 1154 z "},"Ø":{"ha":1069,"x_min":57,"x_max":1025,"o":"m 225 -131 l 138 -71 l 225 65 q 125 182 163 115 q 72 324 88 249 q 60 475 57 400 q 97 662 63 569 q 195 829 131 754 q 353 949 260 904 q 567 994 446 994 q 685 982 631 994 q 783 947 739 969 l 865 1075 l 958 1014 l 875 883 q 990 703 956 808 q 1021 494 1025 597 q 985 317 1018 408 q 889 149 951 226 q 733 25 826 72 q 514 -22 639 -22 q 408 -12 457 -22 q 318 14 360 -3 l 225 -131 m 310 200 l 721 847 q 644 897 688 881 q 549 913 601 914 q 416 874 472 913 q 323 773 360 835 q 267 639 286 711 q 246 497 249 567 q 258 347 243 426 q 310 200 272 267 m 529 60 q 665 98 608 60 q 758 197 721 136 q 813 331 794 258 q 833 472 832 403 q 824 619 836 549 q 786 746 813 689 l 379 110 q 447 73 410 86 q 529 60 483 60 z "},"Ǿ":{"ha":1069,"x_min":57,"x_max":1025,"o":"m 225 -131 l 138 -71 l 225 65 q 125 182 163 115 q 72 324 88 249 q 60 475 57 400 q 97 662 63 569 q 195 829 131 754 q 353 949 260 904 q 567 994 446 994 q 685 982 631 994 q 783 947 739 969 l 865 1075 l 958 1014 l 875 883 q 990 703 956 808 q 1021 494 1025 597 q 985 317 1018 408 q 889 149 951 226 q 733 25 826 72 q 514 -22 639 -22 q 408 -12 457 -22 q 318 14 360 -3 l 225 -131 m 310 200 l 721 847 q 644 897 688 881 q 549 913 601 914 q 416 874 472 913 q 323 773 360 835 q 267 639 286 711 q 246 497 249 567 q 258 347 243 426 q 310 200 272 267 m 529 60 q 665 98 608 60 q 758 197 721 136 q 813 331 794 258 q 833 472 832 403 q 824 619 836 549 q 786 746 813 689 l 379 110 q 447 73 410 86 q 529 60 483 60 m 532 1065 l 490 1122 l 663 1286 q 708 1315 685 1307 q 751 1319 731 1324 q 782 1297 771 1314 q 793 1259 794 1279 q 778 1220 792 1239 q 738 1186 764 1201 l 532 1065 z "},"Õ":{"ha":1071,"x_min":56,"x_max":1024,"o":"m 567 994 q 780 949 692 994 q 922 831 868 904 q 1000 669 976 757 q 1021 494 1024 582 q 985 317 1018 408 q 890 149 953 226 q 733 25 826 72 q 515 -22 640 -22 q 297 22 386 -22 q 155 138 208 65 q 78 299 101 211 q 60 475 56 388 q 97 662 63 569 q 195 829 131 754 q 353 949 260 904 q 567 994 446 994 m 549 913 q 416 874 472 913 q 323 773 360 835 q 267 639 286 711 q 247 497 249 567 q 256 353 243 429 q 302 211 269 278 q 390 102 335 144 q 531 60 446 60 q 665 98 608 60 q 758 197 721 136 q 813 331 794 258 q 835 472 832 403 q 822 643 838 563 q 770 785 806 724 q 680 880 735 846 q 549 913 625 914 m 471 1179 q 410 1164 443 1179 q 350 1107 378 1149 l 290 1144 q 372 1252 321 1217 q 471 1288 424 1288 q 535 1277 508 1289 q 585 1250 563 1265 q 630 1223 607 1235 q 679 1211 653 1211 q 744 1235 710 1211 q 799 1296 779 1258 l 860 1264 q 804 1163 835 1199 q 742 1115 774 1128 q 679 1103 710 1103 q 620 1114 646 1103 q 571 1140 594 1125 q 524 1167 547 1156 q 471 1179 500 1179 z "},"Œ":{"ha":1408,"x_min":51,"x_max":1343,"o":"m 504 -22 q 261 43 364 -21 q 105 217 158 107 q 58 464 51 326 q 97 654 64 561 q 193 824 131 747 q 351 947 256 901 q 576 994 446 993 q 660 988 611 994 q 754 972 710 982 l 1329 972 l 1324 711 l 1247 711 q 1227 830 1251 790 q 1164 883 1203 869 q 1081 896 1125 897 l 1008 894 q 949 882 971 893 q 917 842 928 871 q 904 758 907 814 l 893 544 l 1036 544 q 1068 575 1056 558 q 1086 615 1081 592 q 1093 669 1092 638 l 1179 669 l 1163 343 l 1086 343 q 1074 428 1090 403 q 1024 460 1057 454 q 947 465 992 467 q 918 465 933 465 q 888 463 903 464 l 875 208 q 870 140 874 171 q 864 90 867 108 l 1076 88 q 1166 106 1125 88 q 1235 171 1207 125 q 1267 294 1263 217 l 1343 294 l 1319 0 l 703 0 q 599 -18 650 -12 q 504 -22 549 -24 m 546 74 q 626 77 589 72 q 700 94 663 82 l 733 749 q 738 814 736 782 q 743 871 740 846 q 663 900 707 890 q 574 908 619 910 q 402 851 474 906 q 291 703 331 796 q 246 497 251 611 q 274 280 240 374 q 376 133 307 186 q 546 74 444 79 z "},"P":{"ha":861,"x_min":51,"x_max":858,"o":"m 465 975 q 680 944 592 976 q 813 844 768 911 q 851 674 858 778 q 824 564 849 619 q 748 463 799 508 q 617 388 697 417 q 424 356 536 358 q 379 356 400 356 q 339 357 358 356 l 331 208 q 326 138 329 169 q 319 88 322 106 q 360 90 338 89 q 404 91 382 90 q 440 92 426 92 l 436 0 l 51 0 l 56 76 q 116 90 94 78 q 148 131 138 101 q 160 214 158 161 l 189 768 q 195 835 192 803 q 201 885 199 867 q 147 883 178 883 q 97 881 117 882 l 103 972 q 283 974 193 974 q 465 975 374 974 m 458 892 q 403 881 425 892 q 372 843 382 871 q 360 767 363 815 l 343 446 q 379 442 363 443 q 415 442 396 442 q 547 469 492 442 q 633 548 603 496 q 668 675 664 600 q 653 786 671 743 q 605 852 636 829 q 535 883 574 875 q 458 892 497 892 z "},"Þ":{"ha":850,"x_min":51,"x_max":836,"o":"m 51 0 l 56 76 q 116 90 94 78 q 148 131 138 101 q 160 214 158 161 l 189 768 q 195 835 192 803 q 201 885 199 867 q 147 883 178 883 q 99 881 117 882 l 103 972 l 468 972 l 464 896 q 392 875 415 894 q 361 794 368 856 q 402 796 382 796 q 442 796 422 796 q 656 768 568 797 q 790 677 744 739 q 831 514 836 615 q 802 408 828 461 q 724 313 776 356 q 592 243 672 269 q 397 214 511 217 q 361 214 376 214 q 331 214 346 214 q 326 154 328 178 q 323 115 325 131 q 319 88 321 99 q 374 90 343 89 q 422 92 404 92 l 418 0 l 51 0 m 335 300 q 362 299 349 299 q 390 299 375 299 q 575 354 511 299 q 644 514 639 410 q 630 619 649 579 q 578 678 611 658 q 507 706 546 699 q 432 713 468 713 q 395 713 414 713 q 357 713 376 713 l 335 300 z "},"Q":{"ha":1072,"x_min":56,"x_max":1071,"o":"m 568 994 q 781 949 693 994 q 924 831 869 904 q 1003 669 979 757 q 1024 494 1026 582 q 998 347 1021 422 q 931 203 975 272 q 821 82 886 135 q 669 3 756 29 l 669 1 q 740 -4 708 1 q 802 -26 771 -10 q 871 -81 833 -43 q 951 -157 921 -128 q 1000 -201 982 -186 q 1034 -220 1018 -215 q 1071 -225 1050 -225 l 1068 -303 l 1015 -303 q 919 -299 956 -303 q 851 -278 882 -294 q 782 -226 821 -262 q 703 -148 738 -185 q 640 -83 669 -111 q 580 -38 611 -54 q 506 -22 549 -22 q 292 22 379 -22 q 153 139 206 67 q 78 299 100 211 q 58 475 56 388 q 97 662 61 569 q 196 829 132 754 q 353 949 260 904 q 568 994 447 994 m 550 908 q 417 869 472 907 q 324 771 361 832 q 269 638 288 710 q 247 497 250 567 q 258 354 244 429 q 303 213 271 279 q 390 106 335 147 q 531 64 446 64 q 665 101 608 64 q 758 199 721 139 q 814 331 796 260 q 835 472 832 403 q 822 642 838 563 q 772 782 807 722 q 681 876 736 842 q 550 908 626 910 z "},"R":{"ha":919,"x_min":51,"x_max":890,"o":"m 468 975 q 679 944 594 975 q 805 852 764 914 q 839 692 846 790 q 807 581 835 635 q 724 486 779 528 q 578 421 668 444 q 605 399 593 410 q 627 378 617 389 q 648 354 638 368 q 669 322 658 340 l 738 207 q 785 135 764 164 q 831 92 807 107 q 890 76 856 78 l 886 0 l 679 0 q 628 57 654 21 q 578 139 603 93 l 488 299 q 456 353 471 328 q 422 397 440 379 q 393 396 408 396 q 365 397 378 396 q 340 397 351 397 l 331 208 q 326 138 329 169 q 319 88 322 106 q 356 90 335 89 q 398 91 378 90 q 431 92 418 92 l 426 0 l 51 0 l 56 76 q 116 90 94 78 q 148 131 138 101 q 160 214 158 161 l 189 768 q 195 835 192 803 q 201 885 199 867 q 147 883 178 883 q 97 881 117 882 l 103 972 q 285 974 194 974 q 468 975 376 975 m 461 893 q 403 882 425 893 q 372 843 382 871 q 360 767 363 815 l 344 485 q 381 482 363 483 q 418 481 399 481 q 548 504 496 482 q 628 574 600 526 q 660 694 656 621 q 645 796 663 757 q 599 856 628 835 q 533 885 569 878 q 461 893 496 893 z "},"Ŕ":{"ha":919,"x_min":51,"x_max":890,"o":"m 468 975 q 679 944 594 975 q 805 852 764 914 q 839 692 846 790 q 807 581 835 635 q 724 486 779 528 q 578 421 668 444 q 605 399 593 410 q 627 378 617 389 q 648 354 638 368 q 669 322 658 340 l 738 207 q 785 135 764 164 q 831 92 807 107 q 890 76 856 78 l 886 0 l 679 0 q 628 57 654 21 q 578 139 603 93 l 488 299 q 456 353 471 328 q 422 397 440 379 q 393 396 408 396 q 365 397 378 396 q 340 397 351 397 l 331 208 q 326 138 329 169 q 319 88 322 106 q 356 90 335 89 q 398 91 378 90 q 431 92 418 92 l 426 0 l 51 0 l 56 76 q 116 90 94 78 q 148 131 138 101 q 160 214 158 161 l 189 768 q 195 835 192 803 q 201 885 199 867 q 147 883 178 883 q 97 881 117 882 l 103 972 q 285 974 194 974 q 468 975 376 975 m 461 893 q 403 882 425 893 q 372 843 382 871 q 360 767 363 815 l 344 485 q 381 482 363 483 q 418 481 399 481 q 548 504 496 482 q 628 574 600 526 q 660 694 656 621 q 645 796 663 757 q 599 856 628 835 q 533 885 569 878 q 461 893 496 893 m 440 1069 l 399 1126 l 571 1290 q 616 1319 593 1311 q 659 1323 639 1328 q 690 1301 679 1318 q 701 1263 703 1283 q 686 1224 700 1243 q 646 1190 672 1206 l 440 1069 z "},"Ř":{"ha":919,"x_min":51,"x_max":890,"o":"m 468 975 q 679 944 594 975 q 805 852 764 914 q 839 692 846 790 q 807 581 835 635 q 724 486 779 528 q 578 421 668 444 q 605 399 593 410 q 627 378 617 389 q 648 354 638 368 q 669 322 658 340 l 738 207 q 785 135 764 164 q 831 92 807 107 q 890 76 856 78 l 886 0 l 679 0 q 628 57 654 21 q 578 139 603 93 l 488 299 q 456 353 471 328 q 422 397 440 379 q 393 396 408 396 q 365 397 378 396 q 340 397 351 397 l 331 208 q 326 138 329 169 q 319 88 322 106 q 356 90 335 89 q 398 91 378 90 q 431 92 418 92 l 426 0 l 51 0 l 56 76 q 116 90 94 78 q 148 131 138 101 q 160 214 158 161 l 189 768 q 195 835 192 803 q 201 885 199 867 q 147 883 178 883 q 97 881 117 882 l 103 972 q 285 974 194 974 q 468 975 376 975 m 461 893 q 403 882 425 893 q 372 843 382 871 q 360 767 363 815 l 344 485 q 381 482 363 483 q 418 481 399 481 q 548 504 496 482 q 628 574 600 526 q 660 694 656 621 q 645 796 663 757 q 599 856 628 835 q 533 885 569 878 q 461 893 496 893 m 485 1074 l 465 1074 l 207 1281 l 242 1332 l 486 1207 l 744 1332 l 769 1283 l 485 1074 z "},"Ŗ":{"ha":919,"x_min":51,"x_max":890,"o":"m 468 975 q 679 944 594 975 q 805 852 764 914 q 839 692 846 790 q 807 581 835 635 q 724 486 779 528 q 578 421 668 444 q 605 399 593 410 q 627 378 617 389 q 648 354 638 368 q 669 322 658 340 l 738 207 q 785 135 764 164 q 831 92 807 107 q 890 76 856 78 l 886 0 l 679 0 q 628 57 654 21 q 578 139 603 93 l 488 299 q 456 353 471 328 q 422 397 440 379 q 393 396 408 396 q 365 397 378 396 q 340 397 351 397 l 331 208 q 326 138 329 169 q 319 88 322 106 q 356 90 335 89 q 398 91 378 90 q 431 92 418 92 l 426 0 l 51 0 l 56 76 q 116 90 94 78 q 148 131 138 101 q 160 214 158 161 l 189 768 q 195 835 192 803 q 201 885 199 867 q 147 883 178 883 q 97 881 117 882 l 103 972 q 285 974 194 974 q 468 975 376 975 m 461 893 q 403 882 425 893 q 372 843 382 871 q 360 767 363 815 l 344 485 q 381 482 363 483 q 418 481 399 481 q 548 504 496 482 q 628 574 600 526 q 660 694 656 621 q 645 796 663 757 q 599 856 628 835 q 533 885 569 878 q 461 893 496 893 m 347 -392 l 288 -346 q 342 -246 326 -286 q 358 -169 357 -206 q 353 -89 358 -133 l 486 -60 q 501 -103 496 -81 q 503 -150 506 -126 q 479 -231 501 -189 q 422 -315 457 -274 q 347 -392 388 -356 z "},"S":{"ha":818,"x_min":63,"x_max":760,"o":"m 394 -22 q 276 -6 342 -22 q 157 43 210 10 l 158 -12 l 63 -12 l 76 303 l 156 303 q 194 170 161 224 q 283 90 228 117 q 404 64 338 64 q 497 83 456 64 q 564 134 539 101 q 592 208 589 167 q 561 301 594 264 q 475 363 528 338 q 365 414 422 389 q 220 489 286 447 q 117 590 154 531 q 85 736 81 649 q 105 822 88 776 q 160 906 122 867 q 258 969 197 944 q 410 994 319 994 q 529 978 464 994 q 642 926 594 963 l 640 985 l 735 985 l 719 667 l 642 667 q 608 795 636 740 q 531 880 581 850 q 411 910 482 910 q 295 871 343 910 q 244 775 247 832 q 267 694 243 728 q 338 631 290 660 q 453 574 385 603 q 560 524 506 551 q 660 459 614 496 q 733 372 706 422 q 756 253 760 321 q 707 110 753 172 q 581 13 661 47 q 394 -22 501 -22 z "},"Ś":{"ha":818,"x_min":63,"x_max":760,"o":"m 394 -22 q 276 -6 342 -22 q 157 43 210 10 l 158 -12 l 63 -12 l 76 303 l 156 303 q 194 170 161 224 q 283 90 228 117 q 404 64 338 64 q 497 83 456 64 q 564 134 539 101 q 592 208 589 167 q 561 301 594 264 q 475 363 528 338 q 365 414 422 389 q 220 489 286 447 q 117 590 154 531 q 85 736 81 649 q 105 822 88 776 q 160 906 122 867 q 258 969 197 944 q 410 994 319 994 q 529 978 464 994 q 642 926 594 963 l 640 985 l 735 985 l 719 667 l 642 667 q 608 795 636 740 q 531 880 581 850 q 411 910 482 910 q 295 871 343 910 q 244 775 247 832 q 267 694 243 728 q 338 631 290 660 q 453 574 385 603 q 560 524 506 551 q 660 459 614 496 q 733 372 706 422 q 756 253 760 321 q 707 110 753 172 q 581 13 661 47 q 394 -22 501 -22 m 417 1067 l 375 1124 l 547 1288 q 592 1317 569 1308 q 635 1320 615 1325 q 667 1299 656 1315 q 678 1260 679 1281 q 663 1222 676 1240 q 622 1188 649 1203 l 417 1067 z "},"Š":{"ha":818,"x_min":63,"x_max":760,"o":"m 394 -22 q 276 -6 342 -22 q 157 43 210 10 l 158 -12 l 63 -12 l 76 303 l 156 303 q 194 170 161 224 q 283 90 228 117 q 404 64 338 64 q 497 83 456 64 q 564 134 539 101 q 592 208 589 167 q 561 301 594 264 q 475 363 528 338 q 365 414 422 389 q 220 489 286 447 q 117 590 154 531 q 85 736 81 649 q 105 822 88 776 q 160 906 122 867 q 258 969 197 944 q 410 994 319 994 q 529 978 464 994 q 642 926 594 963 l 640 985 l 735 985 l 719 667 l 642 667 q 608 795 636 740 q 531 880 581 850 q 411 910 482 910 q 295 871 343 910 q 244 775 247 832 q 267 694 243 728 q 338 631 290 660 q 453 574 385 603 q 560 524 506 551 q 660 459 614 496 q 733 372 706 422 q 756 253 760 321 q 707 110 753 172 q 581 13 661 47 q 394 -22 501 -22 m 461 1071 l 442 1071 l 183 1278 l 218 1329 l 463 1204 l 721 1329 l 746 1281 l 461 1071 z "},"Ş":{"ha":818,"x_min":63,"x_max":760,"o":"m 394 -22 q 276 -6 342 -22 q 157 43 210 10 l 158 -12 l 63 -12 l 76 303 l 156 303 q 194 170 161 224 q 283 90 228 117 q 404 64 338 64 q 497 83 456 64 q 564 134 539 101 q 592 208 589 167 q 561 301 594 264 q 475 363 528 338 q 365 414 422 389 q 220 489 286 447 q 117 590 154 531 q 85 736 81 649 q 105 822 88 776 q 160 906 122 867 q 258 969 197 944 q 410 994 319 994 q 529 978 464 994 q 642 926 594 963 l 640 985 l 735 985 l 719 667 l 642 667 q 608 795 636 740 q 531 880 581 850 q 411 910 482 910 q 295 871 343 910 q 244 775 247 832 q 267 694 243 728 q 338 631 290 660 q 453 574 385 603 q 560 524 506 551 q 660 459 614 496 q 733 372 706 422 q 756 253 760 321 q 707 110 753 172 q 581 13 661 47 q 394 -22 501 -22 m 281 -371 l 274 -304 q 326 -291 297 -300 q 384 -269 356 -282 q 431 -237 413 -256 q 450 -199 449 -219 q 440 -169 451 -178 q 411 -160 429 -160 q 378 -166 396 -160 q 350 -181 361 -172 l 297 -160 l 347 13 l 449 13 l 403 -97 q 453 -81 424 -87 q 500 -75 482 -74 q 573 -102 546 -75 q 597 -175 600 -129 q 560 -256 594 -221 q 475 -314 525 -290 q 372 -351 425 -337 q 281 -371 319 -365 z "},"Ŝ":{"ha":818,"x_min":63,"x_max":760,"o":"m 394 -22 q 276 -6 342 -22 q 157 43 210 10 l 158 -12 l 63 -12 l 76 303 l 156 303 q 194 170 161 224 q 283 90 228 117 q 404 64 338 64 q 497 83 456 64 q 564 134 539 101 q 592 208 589 167 q 561 301 594 264 q 475 363 528 338 q 365 414 422 389 q 220 489 286 447 q 117 590 154 531 q 85 736 81 649 q 105 822 88 776 q 160 906 122 867 q 258 969 197 944 q 410 994 319 994 q 529 978 464 994 q 642 926 594 963 l 640 985 l 735 985 l 719 667 l 642 667 q 608 795 636 740 q 531 880 581 850 q 411 910 482 910 q 295 871 343 910 q 244 775 247 832 q 267 694 243 728 q 338 631 290 660 q 453 574 385 603 q 560 524 506 551 q 660 459 614 496 q 733 372 706 422 q 756 253 760 321 q 707 110 753 172 q 581 13 661 47 q 394 -22 501 -22 m 711 1075 l 464 1197 l 207 1078 l 182 1128 l 469 1331 l 488 1331 l 746 1126 l 711 1075 z "},"Ș":{"ha":818,"x_min":63,"x_max":760,"o":"m 394 -22 q 276 -6 342 -22 q 157 43 210 10 l 158 -12 l 63 -12 l 76 303 l 156 303 q 194 170 161 224 q 283 90 228 117 q 404 64 338 64 q 497 83 456 64 q 564 134 539 101 q 592 208 589 167 q 561 301 594 264 q 475 363 528 338 q 365 414 422 389 q 220 489 286 447 q 117 590 154 531 q 85 736 81 649 q 105 822 88 776 q 160 906 122 867 q 258 969 197 944 q 410 994 319 994 q 529 978 464 994 q 642 926 594 963 l 640 985 l 735 985 l 719 667 l 642 667 q 608 795 636 740 q 531 880 581 850 q 411 910 482 910 q 295 871 343 910 q 244 775 247 832 q 267 694 243 728 q 338 631 290 660 q 453 574 385 603 q 560 524 506 551 q 660 459 614 496 q 733 372 706 422 q 756 253 760 321 q 707 110 753 172 q 581 13 661 47 q 394 -22 501 -22 m 331 -392 l 271 -346 q 325 -246 310 -286 q 341 -169 340 -206 q 336 -89 342 -133 l 469 -60 q 484 -103 479 -81 q 486 -150 489 -126 q 463 -231 485 -189 q 406 -315 440 -274 q 331 -392 371 -356 z "},"ẞ":{"ha":986,"x_min":36,"x_max":942,"o":"m 578 -22 q 454 3 508 -22 q 354 81 400 28 l 415 129 q 483 88 446 100 q 561 75 521 75 q 648 97 607 75 q 717 169 689 119 q 749 296 744 218 q 702 446 753 392 q 542 501 651 500 l 468 501 l 471 553 l 638 763 q 697 831 668 801 q 760 890 726 861 l 535 893 q 386 826 442 894 q 324 621 331 758 l 301 200 q 300 165 301 189 q 296 110 299 140 q 291 51 293 81 q 285 0 289 21 l 36 0 l 40 74 q 99 91 81 74 q 123 140 117 108 q 131 213 129 172 l 151 607 q 186 769 156 700 q 267 883 217 838 q 388 950 318 928 q 539 972 457 972 l 926 972 l 922 886 l 658 576 q 783 553 729 578 q 873 488 838 529 q 925 396 908 447 q 939 290 942 344 q 902 156 935 214 q 817 57 869 97 q 703 -3 765 17 q 578 -22 642 -24 z "},"T":{"ha":894,"x_min":43,"x_max":894,"o":"m 894 972 l 886 665 l 808 665 q 794 794 811 743 q 741 869 778 844 q 646 893 704 894 l 561 893 l 524 207 q 519 138 522 169 q 513 88 515 106 q 551 90 529 89 q 592 91 572 90 q 625 92 613 92 l 621 0 l 244 0 l 250 76 q 308 90 286 78 q 340 132 329 103 q 354 214 351 161 l 392 892 l 301 892 q 174 836 219 890 q 122 665 128 782 l 43 665 l 67 972 l 894 972 z "},"Ŧ":{"ha":894,"x_min":43,"x_max":894,"o":"m 217 447 l 221 526 l 686 526 l 682 451 l 217 447 m 894 972 l 886 665 l 808 665 q 794 794 811 743 q 741 869 778 844 q 646 893 704 894 l 561 893 l 524 207 q 519 138 522 169 q 513 88 515 106 q 551 90 529 89 q 592 91 572 90 q 625 92 613 92 l 621 0 l 244 0 l 250 76 q 308 90 286 78 q 340 132 329 103 q 354 214 351 161 l 392 892 l 301 892 q 174 836 219 890 q 122 665 128 782 l 43 665 l 67 972 l 894 972 z "},"Ť":{"ha":894,"x_min":43,"x_max":894,"o":"m 894 972 l 886 665 l 808 665 q 794 794 811 743 q 741 869 778 844 q 646 893 704 894 l 561 893 l 524 207 q 519 138 522 169 q 513 88 515 106 q 551 90 529 89 q 592 91 572 90 q 625 92 613 92 l 621 0 l 244 0 l 250 76 q 308 90 286 78 q 340 132 329 103 q 354 214 351 161 l 392 892 l 301 892 q 174 836 219 890 q 122 665 128 782 l 43 665 l 67 972 l 894 972 m 496 1071 l 476 1071 l 218 1278 l 253 1329 l 497 1204 l 756 1329 l 781 1281 l 496 1071 z "},"Ţ":{"ha":894,"x_min":43,"x_max":894,"o":"m 894 972 l 886 665 l 808 665 q 794 794 811 743 q 741 869 778 844 q 646 893 704 894 l 561 893 l 524 207 q 519 138 522 169 q 513 88 515 106 q 551 90 529 89 q 592 91 572 90 q 625 92 613 92 l 621 0 l 244 0 l 250 76 q 308 90 286 78 q 340 132 329 103 q 354 214 351 161 l 392 892 l 301 892 q 174 836 219 890 q 122 665 128 782 l 43 665 l 67 972 l 894 972 m 319 -351 l 313 -289 q 365 -277 336 -285 q 422 -258 394 -269 q 468 -231 450 -247 q 488 -194 486 -215 q 470 -162 489 -169 q 427 -160 451 -154 q 386 -178 403 -165 l 336 -154 l 388 13 l 482 13 l 438 -100 q 485 -83 457 -89 q 533 -76 513 -76 q 603 -101 576 -76 q 628 -171 631 -125 q 590 -249 624 -217 q 508 -301 557 -281 q 409 -334 460 -322 q 319 -351 358 -346 z "},"Ț":{"ha":894,"x_min":43,"x_max":894,"o":"m 894 972 l 886 665 l 808 665 q 794 794 811 743 q 741 869 778 844 q 646 893 704 894 l 561 893 l 524 207 q 519 138 522 169 q 513 88 515 106 q 551 90 529 89 q 592 91 572 90 q 625 92 613 92 l 621 0 l 244 0 l 250 76 q 308 90 286 78 q 340 132 329 103 q 354 214 351 161 l 392 892 l 301 892 q 174 836 219 890 q 122 665 128 782 l 43 665 l 67 972 l 894 972 m 353 -392 l 293 -346 q 347 -246 332 -286 q 363 -169 363 -206 q 358 -89 364 -133 l 492 -60 q 506 -103 501 -81 q 508 -150 511 -126 q 485 -231 507 -189 q 428 -315 463 -274 q 353 -392 393 -356 z "},"U":{"ha":1043,"x_min":65,"x_max":1044,"o":"m 1044 972 l 1040 896 q 980 883 1001 894 q 948 842 958 871 q 935 758 938 813 l 917 419 q 879 226 910 310 q 797 88 849 143 q 672 6 744 33 q 510 -22 600 -22 q 319 10 394 -22 q 203 101 244 42 q 147 244 161 161 q 139 429 133 328 l 157 764 q 162 833 160 801 q 168 885 164 864 q 115 883 146 883 q 65 881 83 882 l 69 972 l 438 972 l 432 896 q 374 883 396 894 q 341 848 351 872 q 328 779 331 824 l 308 407 q 317 260 304 322 q 358 158 329 199 q 432 96 388 117 q 535 75 476 75 q 678 110 619 72 q 770 219 738 147 q 808 396 803 290 l 831 768 q 835 835 833 803 q 842 885 838 867 q 788 883 818 883 q 739 881 757 882 l 743 972 l 1044 972 z "},"Ú":{"ha":1043,"x_min":65,"x_max":1044,"o":"m 1044 972 l 1040 896 q 980 883 1001 894 q 948 842 958 871 q 935 758 938 813 l 917 419 q 879 226 910 310 q 797 88 849 143 q 672 6 744 33 q 510 -22 600 -22 q 319 10 394 -22 q 203 101 244 42 q 147 244 161 161 q 139 429 133 328 l 157 764 q 162 833 160 801 q 168 885 164 864 q 115 883 146 883 q 65 881 83 882 l 69 972 l 438 972 l 432 896 q 374 883 396 894 q 341 848 351 872 q 328 779 331 824 l 308 407 q 317 260 304 322 q 358 158 329 199 q 432 96 388 117 q 535 75 476 75 q 678 110 619 72 q 770 219 738 147 q 808 396 803 290 l 831 768 q 835 835 833 803 q 842 885 838 867 q 788 883 818 883 q 739 881 757 882 l 743 972 l 1044 972 m 543 1067 l 501 1124 l 674 1288 q 719 1317 696 1308 q 762 1320 742 1325 q 793 1299 782 1315 q 804 1260 806 1281 q 789 1222 803 1240 q 749 1188 775 1203 l 543 1067 z "},"Ŭ":{"ha":1043,"x_min":65,"x_max":1044,"o":"m 1044 972 l 1040 896 q 980 883 1001 894 q 948 842 958 871 q 935 758 938 813 l 917 419 q 879 226 910 310 q 797 88 849 143 q 672 6 744 33 q 510 -22 600 -22 q 319 10 394 -22 q 203 101 244 42 q 147 244 161 161 q 139 429 133 328 l 157 764 q 162 833 160 801 q 168 885 164 864 q 115 883 146 883 q 65 881 83 882 l 69 972 l 438 972 l 432 896 q 374 883 396 894 q 341 848 351 872 q 328 779 331 824 l 308 407 q 317 260 304 322 q 358 158 329 199 q 432 96 388 117 q 535 75 476 75 q 678 110 619 72 q 770 219 738 147 q 808 396 803 290 l 831 768 q 835 835 833 803 q 842 885 838 867 q 788 883 818 883 q 739 881 757 882 l 743 972 l 1044 972 m 592 1104 q 504 1119 547 1104 q 426 1167 461 1135 q 372 1251 392 1199 l 440 1294 q 503 1241 463 1264 q 600 1218 543 1218 q 701 1241 658 1218 q 769 1294 743 1264 l 832 1251 q 766 1167 806 1199 q 682 1119 726 1135 q 592 1104 638 1104 z "},"Ǔ":{"ha":1043,"x_min":65,"x_max":1044,"o":"m 1044 972 l 1040 896 q 980 883 1001 894 q 948 842 958 871 q 935 758 938 813 l 917 419 q 879 226 910 310 q 797 88 849 143 q 672 6 744 33 q 510 -22 600 -22 q 319 10 394 -22 q 203 101 244 42 q 147 244 161 161 q 139 429 133 328 l 157 764 q 162 833 160 801 q 168 885 164 864 q 115 883 146 883 q 65 881 83 882 l 69 972 l 438 972 l 432 896 q 374 883 396 894 q 341 848 351 872 q 328 779 331 824 l 308 407 q 317 260 304 322 q 358 158 329 199 q 432 96 388 117 q 535 75 476 75 q 678 110 619 72 q 770 219 738 147 q 808 396 803 290 l 831 768 q 835 835 833 803 q 842 885 838 867 q 788 883 818 883 q 739 881 757 882 l 743 972 l 1044 972 m 588 1071 l 568 1071 l 310 1278 l 344 1329 l 589 1204 l 847 1329 l 872 1281 l 588 1071 z "},"Û":{"ha":1043,"x_min":65,"x_max":1044,"o":"m 1044 972 l 1040 896 q 980 883 1001 894 q 948 842 958 871 q 935 758 938 813 l 917 419 q 879 226 910 310 q 797 88 849 143 q 672 6 744 33 q 510 -22 600 -22 q 319 10 394 -22 q 203 101 244 42 q 147 244 161 161 q 139 429 133 328 l 157 764 q 162 833 160 801 q 168 885 164 864 q 115 883 146 883 q 65 881 83 882 l 69 972 l 438 972 l 432 896 q 374 883 396 894 q 341 848 351 872 q 328 779 331 824 l 308 407 q 317 260 304 322 q 358 158 329 199 q 432 96 388 117 q 535 75 476 75 q 678 110 619 72 q 770 219 738 147 q 808 396 803 290 l 831 768 q 835 835 833 803 q 842 885 838 867 q 788 883 818 883 q 739 881 757 882 l 743 972 l 1044 972 m 838 1075 l 590 1197 l 333 1078 l 308 1128 l 596 1331 l 614 1331 l 872 1126 l 838 1075 z "},"Ü":{"ha":1043,"x_min":65,"x_max":1044,"o":"m 1044 972 l 1040 896 q 980 883 1001 894 q 948 842 958 871 q 935 758 938 813 l 917 419 q 879 226 910 310 q 797 88 849 143 q 672 6 744 33 q 510 -22 600 -22 q 319 10 394 -22 q 203 101 244 42 q 147 244 161 161 q 139 429 133 328 l 157 764 q 162 833 160 801 q 168 885 164 864 q 115 883 146 883 q 65 881 83 882 l 69 972 l 438 972 l 432 896 q 374 883 396 894 q 341 848 351 872 q 328 779 331 824 l 308 407 q 317 260 304 322 q 358 158 329 199 q 432 96 388 117 q 535 75 476 75 q 678 110 619 72 q 770 219 738 147 q 808 396 803 290 l 831 768 q 835 835 833 803 q 842 885 838 867 q 788 883 818 883 q 739 881 757 882 l 743 972 l 1044 972 m 468 1100 q 413 1126 435 1100 q 390 1193 390 1153 q 418 1265 392 1235 q 481 1296 444 1296 q 535 1268 514 1296 q 556 1201 557 1240 q 530 1131 556 1161 q 468 1100 504 1100 m 704 1100 q 649 1126 671 1100 q 628 1193 628 1153 q 654 1265 628 1235 q 717 1296 681 1296 q 772 1268 751 1296 q 792 1201 792 1240 q 766 1130 792 1160 q 704 1100 740 1100 z "},"Ụ":{"ha":1043,"x_min":65,"x_max":1044,"o":"m 1044 972 l 1040 896 q 980 883 1001 894 q 948 842 958 871 q 935 758 938 813 l 917 419 q 879 226 910 310 q 797 88 849 143 q 672 6 744 33 q 510 -22 600 -22 q 319 10 394 -22 q 203 101 244 42 q 147 244 161 161 q 139 429 133 328 l 157 764 q 162 833 160 801 q 168 885 164 864 q 115 883 146 883 q 65 881 83 882 l 69 972 l 438 972 l 432 896 q 374 883 396 894 q 341 848 351 872 q 328 779 331 824 l 308 407 q 317 260 304 322 q 358 158 329 199 q 432 96 388 117 q 535 75 476 75 q 678 110 619 72 q 770 219 738 147 q 808 396 803 290 l 831 768 q 835 835 833 803 q 842 885 838 867 q 788 883 818 883 q 739 881 757 882 l 743 972 l 1044 972 m 500 -101 q 553 -126 533 -101 q 572 -186 574 -151 q 548 -245 571 -221 q 492 -269 525 -269 q 436 -245 457 -269 q 417 -186 415 -221 q 444 -126 419 -151 q 500 -101 469 -101 z "},"Ù":{"ha":1043,"x_min":65,"x_max":1044,"o":"m 1044 972 l 1040 896 q 980 883 1001 894 q 948 842 958 871 q 935 758 938 813 l 917 419 q 879 226 910 310 q 797 88 849 143 q 672 6 744 33 q 510 -22 600 -22 q 319 10 394 -22 q 203 101 244 42 q 147 244 161 161 q 139 429 133 328 l 157 764 q 162 833 160 801 q 168 885 164 864 q 115 883 146 883 q 65 881 83 882 l 69 972 l 438 972 l 432 896 q 374 883 396 894 q 341 848 351 872 q 328 779 331 824 l 308 407 q 317 260 304 322 q 358 158 329 199 q 432 96 388 117 q 535 75 476 75 q 678 110 619 72 q 770 219 738 147 q 808 396 803 290 l 831 768 q 835 835 833 803 q 842 885 838 867 q 788 883 818 883 q 739 881 757 882 l 743 972 l 1044 972 m 647 1067 l 449 1188 q 412 1222 425 1203 q 399 1262 399 1242 q 413 1299 400 1282 q 447 1320 426 1315 q 490 1317 467 1325 q 533 1288 513 1308 l 693 1125 l 647 1067 z "},"Ủ":{"ha":1043,"x_min":65,"x_max":1044,"o":"m 1044 972 l 1040 896 q 980 883 1001 894 q 948 842 958 871 q 935 758 938 813 l 917 419 q 879 226 910 310 q 797 88 849 143 q 672 6 744 33 q 510 -22 600 -22 q 319 10 394 -22 q 203 101 244 42 q 147 244 161 161 q 139 429 133 328 l 157 764 q 162 833 160 801 q 168 885 164 864 q 115 883 146 883 q 65 881 83 882 l 69 972 l 438 972 l 432 896 q 374 883 396 894 q 341 848 351 872 q 328 779 331 824 l 308 407 q 317 260 304 322 q 358 158 329 199 q 432 96 388 117 q 535 75 476 75 q 678 110 619 72 q 770 219 738 147 q 808 396 803 290 l 831 768 q 835 835 833 803 q 842 885 838 867 q 788 883 818 883 q 739 881 757 882 l 743 972 l 1044 972 m 563 1053 q 583 1097 564 1081 q 621 1131 603 1114 q 640 1156 632 1142 q 649 1186 647 1169 q 631 1231 651 1214 q 581 1249 611 1249 q 527 1235 546 1249 q 506 1210 508 1221 q 528 1199 521 1208 q 535 1178 535 1190 q 520 1149 533 1161 q 486 1136 507 1136 q 442 1154 460 1136 q 425 1201 424 1172 q 447 1258 428 1231 q 501 1303 465 1285 q 583 1321 536 1321 q 704 1286 663 1321 q 743 1197 746 1251 q 723 1142 742 1161 q 681 1104 704 1122 q 651 1078 663 1090 q 639 1053 640 1065 l 563 1053 z "},"Ư":{"ha":1043,"x_min":65,"x_max":1161,"o":"m 1044 972 l 1040 896 q 980 883 1001 894 q 948 842 958 871 q 935 758 938 813 l 917 419 q 879 226 910 310 q 797 88 849 143 q 672 6 744 33 q 510 -22 600 -22 q 319 10 394 -22 q 203 101 244 42 q 147 244 161 161 q 139 429 133 328 l 157 764 q 162 833 160 801 q 168 885 164 864 q 115 883 146 883 q 65 881 83 882 l 69 972 l 438 972 l 432 896 q 374 883 396 894 q 341 848 351 872 q 328 779 331 824 l 308 407 q 317 260 304 322 q 358 158 329 199 q 432 96 388 117 q 535 75 476 75 q 678 110 619 72 q 770 219 738 147 q 808 396 803 290 l 831 768 q 835 835 833 803 q 842 885 838 867 q 788 883 818 883 q 739 881 757 882 l 743 972 l 1044 972 m 913 886 l 928 965 q 1001 1000 978 965 q 1031 1071 1024 1035 l 1161 1071 q 1118 974 1150 1017 q 1035 909 1086 932 q 913 886 983 886 z "},"Ứ":{"ha":1043,"x_min":65,"x_max":1161,"o":"m 1044 972 l 1040 896 q 980 883 1001 894 q 948 842 958 871 q 935 758 938 813 l 917 419 q 879 226 910 310 q 797 88 849 143 q 672 6 744 33 q 510 -22 600 -22 q 319 10 394 -22 q 203 101 244 42 q 147 244 161 161 q 139 429 133 328 l 157 764 q 162 833 160 801 q 168 885 164 864 q 115 883 146 883 q 65 881 83 882 l 69 972 l 438 972 l 432 896 q 374 883 396 894 q 341 848 351 872 q 328 779 331 824 l 308 407 q 317 260 304 322 q 358 158 329 199 q 432 96 388 117 q 535 75 476 75 q 678 110 619 72 q 770 219 738 147 q 808 396 803 290 l 831 768 q 835 835 833 803 q 842 885 838 867 q 788 883 818 883 q 739 881 757 882 l 743 972 l 1044 972 m 913 886 l 928 965 q 1001 1000 978 965 q 1031 1071 1024 1035 l 1161 1071 q 1118 974 1150 1017 q 1035 909 1086 932 q 913 886 983 886 m 507 1065 l 456 1113 l 574 1303 q 613 1341 590 1329 q 656 1351 635 1353 q 690 1336 676 1350 q 710 1300 707 1321 q 704 1256 714 1279 q 672 1213 694 1232 l 507 1065 z "},"Ự":{"ha":1043,"x_min":65,"x_max":1161,"o":"m 1044 972 l 1040 896 q 980 883 1001 894 q 948 842 958 871 q 935 758 938 813 l 917 419 q 879 226 910 310 q 797 88 849 143 q 672 6 744 33 q 510 -22 600 -22 q 319 10 394 -22 q 203 101 244 42 q 147 244 161 161 q 139 429 133 328 l 157 764 q 162 833 160 801 q 168 885 164 864 q 115 883 146 883 q 65 881 83 882 l 69 972 l 438 972 l 432 896 q 374 883 396 894 q 341 848 351 872 q 328 779 331 824 l 308 407 q 317 260 304 322 q 358 158 329 199 q 432 96 388 117 q 535 75 476 75 q 678 110 619 72 q 770 219 738 147 q 808 396 803 290 l 831 768 q 835 835 833 803 q 842 885 838 867 q 788 883 818 883 q 739 881 757 882 l 743 972 l 1044 972 m 913 886 l 928 965 q 1001 1000 978 965 q 1031 1071 1024 1035 l 1161 1071 q 1118 974 1150 1017 q 1035 909 1086 932 q 913 886 983 886 m 500 -101 q 553 -126 533 -101 q 572 -186 574 -151 q 548 -245 571 -221 q 492 -269 525 -269 q 436 -245 457 -269 q 417 -186 415 -221 q 444 -126 419 -151 q 500 -101 469 -101 z "},"Ừ":{"ha":1043,"x_min":65,"x_max":1161,"o":"m 1044 972 l 1040 896 q 980 883 1001 894 q 948 842 958 871 q 935 758 938 813 l 917 419 q 879 226 910 310 q 797 88 849 143 q 672 6 744 33 q 510 -22 600 -22 q 319 10 394 -22 q 203 101 244 42 q 147 244 161 161 q 139 429 133 328 l 157 764 q 162 833 160 801 q 168 885 164 864 q 115 883 146 883 q 65 881 83 882 l 69 972 l 438 972 l 432 896 q 374 883 396 894 q 341 848 351 872 q 328 779 331 824 l 308 407 q 317 260 304 322 q 358 158 329 199 q 432 96 388 117 q 535 75 476 75 q 678 110 619 72 q 770 219 738 147 q 808 396 803 290 l 831 768 q 835 835 833 803 q 842 885 838 867 q 788 883 818 883 q 739 881 757 882 l 743 972 l 1044 972 m 913 886 l 928 965 q 1001 1000 978 965 q 1031 1071 1024 1035 l 1161 1071 q 1118 974 1150 1017 q 1035 909 1086 932 q 913 886 983 886 m 632 1065 l 478 1214 q 450 1257 458 1235 q 446 1300 442 1279 q 467 1336 450 1321 q 503 1351 483 1350 q 544 1340 524 1351 q 579 1303 564 1329 l 688 1113 l 632 1065 z "},"Ử":{"ha":1043,"x_min":65,"x_max":1161,"o":"m 1044 972 l 1040 896 q 980 883 1001 894 q 948 842 958 871 q 935 758 938 813 l 917 419 q 879 226 910 310 q 797 88 849 143 q 672 6 744 33 q 510 -22 600 -22 q 319 10 394 -22 q 203 101 244 42 q 147 244 161 161 q 139 429 133 328 l 157 764 q 162 833 160 801 q 168 885 164 864 q 115 883 146 883 q 65 881 83 882 l 69 972 l 438 972 l 432 896 q 374 883 396 894 q 341 848 351 872 q 328 779 331 824 l 308 407 q 317 260 304 322 q 358 158 329 199 q 432 96 388 117 q 535 75 476 75 q 678 110 619 72 q 770 219 738 147 q 808 396 803 290 l 831 768 q 835 835 833 803 q 842 885 838 867 q 788 883 818 883 q 739 881 757 882 l 743 972 l 1044 972 m 913 886 l 928 965 q 1001 1000 978 965 q 1031 1071 1024 1035 l 1161 1071 q 1118 974 1150 1017 q 1035 909 1086 932 q 913 886 983 886 m 563 1053 q 583 1097 564 1081 q 621 1131 603 1114 q 640 1156 632 1142 q 649 1186 647 1169 q 631 1231 651 1214 q 581 1249 611 1249 q 527 1235 546 1249 q 506 1210 508 1221 q 528 1199 521 1208 q 535 1178 535 1190 q 520 1149 533 1161 q 486 1136 507 1136 q 442 1154 460 1136 q 425 1201 424 1172 q 447 1258 428 1231 q 501 1303 465 1285 q 583 1321 536 1321 q 704 1286 663 1321 q 743 1197 746 1251 q 723 1142 742 1161 q 681 1104 704 1122 q 651 1078 663 1090 q 639 1053 640 1065 l 563 1053 z "},"Ữ":{"ha":1043,"x_min":65,"x_max":1161,"o":"m 1044 972 l 1040 896 q 980 883 1001 894 q 948 842 958 871 q 935 758 938 813 l 917 419 q 879 226 910 310 q 797 88 849 143 q 672 6 744 33 q 510 -22 600 -22 q 319 10 394 -22 q 203 101 244 42 q 147 244 161 161 q 139 429 133 328 l 157 764 q 162 833 160 801 q 168 885 164 864 q 115 883 146 883 q 65 881 83 882 l 69 972 l 438 972 l 432 896 q 374 883 396 894 q 341 848 351 872 q 328 779 331 824 l 308 407 q 317 260 304 322 q 358 158 329 199 q 432 96 388 117 q 535 75 476 75 q 678 110 619 72 q 770 219 738 147 q 808 396 803 290 l 831 768 q 835 835 833 803 q 842 885 838 867 q 788 883 818 883 q 739 881 757 882 l 743 972 l 1044 972 m 913 886 l 928 965 q 1001 1000 978 965 q 1031 1071 1024 1035 l 1161 1071 q 1118 974 1150 1017 q 1035 909 1086 932 q 913 886 983 886 m 488 1179 q 427 1164 460 1179 q 367 1107 394 1149 l 307 1144 q 389 1252 338 1217 q 488 1288 440 1288 q 552 1277 525 1289 q 601 1250 579 1265 q 647 1223 624 1235 q 696 1211 669 1211 q 761 1235 726 1211 q 815 1296 796 1258 l 876 1264 q 821 1163 851 1199 q 758 1115 790 1128 q 696 1103 726 1103 q 637 1114 663 1103 q 588 1140 611 1125 q 540 1167 564 1156 q 488 1179 517 1179 z "},"Ű":{"ha":1043,"x_min":65,"x_max":1044,"o":"m 1044 972 l 1040 896 q 980 883 1001 894 q 948 842 958 871 q 935 758 938 813 l 917 419 q 879 226 910 310 q 797 88 849 143 q 672 6 744 33 q 510 -22 600 -22 q 319 10 394 -22 q 203 101 244 42 q 147 244 161 161 q 139 429 133 328 l 157 764 q 162 833 160 801 q 168 885 164 864 q 115 883 146 883 q 65 881 83 882 l 69 972 l 438 972 l 432 896 q 374 883 396 894 q 341 848 351 872 q 328 779 331 824 l 308 407 q 317 260 304 322 q 358 158 329 199 q 432 96 388 117 q 535 75 476 75 q 678 110 619 72 q 770 219 738 147 q 808 396 803 290 l 831 768 q 835 835 833 803 q 842 885 838 867 q 788 883 818 883 q 739 881 757 882 l 743 972 l 1044 972 m 588 1086 l 546 1140 l 694 1297 q 768 1347 732 1338 q 824 1332 804 1356 q 834 1293 838 1314 q 815 1253 831 1272 q 775 1218 799 1233 l 588 1086 m 383 1082 l 333 1129 l 460 1301 q 501 1344 479 1329 q 544 1360 524 1358 q 579 1349 565 1363 q 595 1315 594 1335 q 584 1274 596 1296 q 549 1231 572 1251 l 383 1082 z "},"Ū":{"ha":1043,"x_min":65,"x_max":1044,"o":"m 1044 972 l 1040 896 q 980 883 1001 894 q 948 842 958 871 q 935 758 938 813 l 917 419 q 879 226 910 310 q 797 88 849 143 q 672 6 744 33 q 510 -22 600 -22 q 319 10 394 -22 q 203 101 244 42 q 147 244 161 161 q 139 429 133 328 l 157 764 q 162 833 160 801 q 168 885 164 864 q 115 883 146 883 q 65 881 83 882 l 69 972 l 438 972 l 432 896 q 374 883 396 894 q 341 848 351 872 q 328 779 331 824 l 308 407 q 317 260 304 322 q 358 158 329 199 q 432 96 388 117 q 535 75 476 75 q 678 110 619 72 q 770 219 738 147 q 808 396 803 290 l 831 768 q 835 835 833 803 q 842 885 838 867 q 788 883 818 883 q 739 881 757 882 l 743 972 l 1044 972 m 389 1154 l 394 1267 l 779 1267 l 775 1160 l 389 1154 z "},"Ų":{"ha":1043,"x_min":65,"x_max":1044,"o":"m 1044 972 l 1040 896 q 980 883 1001 894 q 948 842 958 871 q 935 758 938 813 l 917 419 q 879 226 910 310 q 797 88 849 143 q 672 6 744 33 q 510 -22 600 -22 q 319 10 394 -22 q 203 101 244 42 q 147 244 161 161 q 139 429 133 328 l 157 764 q 162 833 160 801 q 168 885 164 864 q 115 883 146 883 q 65 881 83 882 l 69 972 l 438 972 l 432 896 q 374 883 396 894 q 341 848 351 872 q 328 779 331 824 l 308 407 q 317 260 304 322 q 358 158 329 199 q 432 96 388 117 q 535 75 476 75 q 678 110 619 72 q 770 219 738 147 q 808 396 803 290 l 831 768 q 835 835 833 803 q 842 885 838 867 q 788 883 818 883 q 739 881 757 882 l 743 972 l 1044 972 m 500 -369 q 399 -333 436 -369 q 365 -228 361 -296 q 415 -99 369 -158 q 533 6 461 -39 q 682 76 604 51 l 678 7 q 585 -43 629 -12 q 514 -112 542 -74 q 485 -194 486 -151 q 502 -244 485 -225 q 551 -264 519 -264 q 598 -253 574 -264 q 646 -222 622 -242 l 682 -269 q 598 -340 647 -311 q 500 -369 549 -369 z "},"Ů":{"ha":1043,"x_min":65,"x_max":1044,"o":"m 1044 972 l 1040 896 q 980 883 1001 894 q 948 842 958 871 q 935 758 938 813 l 917 419 q 879 226 910 310 q 797 88 849 143 q 672 6 744 33 q 510 -22 600 -22 q 319 10 394 -22 q 203 101 244 42 q 147 244 161 161 q 139 429 133 328 l 157 764 q 162 833 160 801 q 168 885 164 864 q 115 883 146 883 q 65 881 83 882 l 69 972 l 438 972 l 432 896 q 374 883 396 894 q 341 848 351 872 q 328 779 331 824 l 308 407 q 317 260 304 322 q 358 158 329 199 q 432 96 388 117 q 535 75 476 75 q 678 110 619 72 q 770 219 738 147 q 808 396 803 290 l 831 768 q 835 835 833 803 q 842 885 838 867 q 788 883 818 883 q 739 881 757 882 l 743 972 l 1044 972 m 576 1058 q 506 1075 540 1058 q 449 1124 471 1092 q 428 1204 428 1157 q 452 1285 429 1250 q 513 1342 475 1321 q 590 1363 550 1363 q 662 1347 628 1363 q 718 1299 696 1331 q 739 1218 740 1268 q 713 1134 738 1169 q 651 1078 688 1099 q 576 1058 614 1058 m 586 1128 q 623 1149 606 1129 q 642 1201 640 1168 q 628 1271 644 1247 q 586 1294 611 1294 q 548 1274 565 1293 q 528 1219 531 1256 q 542 1152 526 1178 q 586 1128 558 1126 z "},"Ũ":{"ha":1043,"x_min":65,"x_max":1044,"o":"m 1044 972 l 1040 896 q 980 883 1001 894 q 948 842 958 871 q 935 758 938 813 l 917 419 q 879 226 910 310 q 797 88 849 143 q 672 6 744 33 q 510 -22 600 -22 q 319 10 394 -22 q 203 101 244 42 q 147 244 161 161 q 139 429 133 328 l 157 764 q 162 833 160 801 q 168 885 164 864 q 115 883 146 883 q 65 881 83 882 l 69 972 l 438 972 l 432 896 q 374 883 396 894 q 341 848 351 872 q 328 779 331 824 l 308 407 q 317 260 304 322 q 358 158 329 199 q 432 96 388 117 q 535 75 476 75 q 678 110 619 72 q 770 219 738 147 q 808 396 803 290 l 831 768 q 835 835 833 803 q 842 885 838 867 q 788 883 818 883 q 739 881 757 882 l 743 972 l 1044 972 m 488 1179 q 427 1164 460 1179 q 367 1107 394 1149 l 307 1144 q 389 1252 338 1217 q 488 1288 440 1288 q 552 1277 525 1289 q 601 1250 579 1265 q 647 1223 624 1235 q 696 1211 669 1211 q 761 1235 726 1211 q 815 1296 796 1258 l 876 1264 q 821 1163 851 1199 q 758 1115 790 1128 q 696 1103 726 1103 q 637 1114 663 1103 q 588 1140 611 1125 q 540 1167 564 1156 q 488 1179 517 1179 z "},"V":{"ha":958,"x_min":33,"x_max":994,"o":"m 994 972 l 990 896 q 903 863 938 894 q 833 751 868 831 q 796 663 815 708 q 756 568 776 618 q 710 460 735 518 q 656 331 685 401 q 590 177 626 261 q 511 -11 554 93 l 426 -11 l 147 733 q 120 820 131 781 q 110 885 110 860 q 69 883 89 883 q 33 881 50 882 l 39 972 l 414 972 l 410 896 q 327 866 351 894 q 326 774 303 838 l 438 457 q 481 338 463 392 q 517 235 499 285 l 518 235 q 556 328 536 278 q 597 429 575 378 q 651 560 626 500 q 697 670 675 619 q 736 767 718 721 q 770 844 757 817 q 794 886 783 871 q 739 883 771 885 q 688 881 707 882 l 692 972 l 994 972 z "},"W":{"ha":1396,"x_min":40,"x_max":1432,"o":"m 363 -11 l 153 735 q 126 822 138 783 q 115 885 115 860 q 75 883 93 883 q 40 881 57 882 l 44 972 l 426 972 l 421 896 q 338 871 360 896 q 331 776 315 846 l 406 457 q 428 358 417 404 q 451 246 439 311 l 454 246 q 472 302 460 267 q 498 378 485 338 q 522 451 511 418 q 539 499 533 483 l 711 974 l 807 974 l 942 458 q 967 351 956 406 q 990 240 979 296 l 993 240 q 1025 331 1008 283 q 1058 429 1042 378 q 1096 535 1079 488 q 1126 622 1113 582 q 1151 697 1139 661 q 1175 767 1163 732 q 1199 830 1185 797 q 1233 886 1214 863 q 1176 883 1208 885 q 1125 881 1144 882 l 1129 972 l 1432 972 l 1428 896 q 1378 885 1400 893 q 1337 858 1356 876 q 1300 808 1318 840 q 1264 728 1282 776 l 990 -11 l 897 -11 l 753 503 q 725 614 735 564 q 707 708 715 664 l 704 708 q 678 618 692 663 q 647 526 665 574 l 451 -11 l 363 -11 z "},"Ẃ":{"ha":1396,"x_min":40,"x_max":1432,"o":"m 363 -11 l 153 735 q 126 822 138 783 q 115 885 115 860 q 75 883 93 883 q 40 881 57 882 l 44 972 l 426 972 l 421 896 q 338 871 360 896 q 331 776 315 846 l 406 457 q 428 358 417 404 q 451 246 439 311 l 454 246 q 472 302 460 267 q 498 378 485 338 q 522 451 511 418 q 539 499 533 483 l 711 974 l 807 974 l 942 458 q 967 351 956 406 q 990 240 979 296 l 993 240 q 1025 331 1008 283 q 1058 429 1042 378 q 1096 535 1079 488 q 1126 622 1113 582 q 1151 697 1139 661 q 1175 767 1163 732 q 1199 830 1185 797 q 1233 886 1214 863 q 1176 883 1208 885 q 1125 881 1144 882 l 1129 972 l 1432 972 l 1428 896 q 1378 885 1400 893 q 1337 858 1356 876 q 1300 808 1318 840 q 1264 728 1282 776 l 990 -11 l 897 -11 l 753 503 q 725 614 735 564 q 707 708 715 664 l 704 708 q 678 618 692 663 q 647 526 665 574 l 451 -11 l 363 -11 m 722 1068 l 681 1125 l 853 1289 q 898 1318 875 1310 q 941 1322 921 1326 q 972 1300 961 1317 q 983 1262 985 1282 q 968 1223 982 1242 q 928 1189 954 1204 l 722 1068 z "},"Ŵ":{"ha":1396,"x_min":40,"x_max":1432,"o":"m 363 -11 l 153 735 q 126 822 138 783 q 115 885 115 860 q 75 883 93 883 q 40 881 57 882 l 44 972 l 426 972 l 421 896 q 338 871 360 896 q 331 776 315 846 l 406 457 q 428 358 417 404 q 451 246 439 311 l 454 246 q 472 302 460 267 q 498 378 485 338 q 522 451 511 418 q 539 499 533 483 l 711 974 l 807 974 l 942 458 q 967 351 956 406 q 990 240 979 296 l 993 240 q 1025 331 1008 283 q 1058 429 1042 378 q 1096 535 1079 488 q 1126 622 1113 582 q 1151 697 1139 661 q 1175 767 1163 732 q 1199 830 1185 797 q 1233 886 1214 863 q 1176 883 1208 885 q 1125 881 1144 882 l 1129 972 l 1432 972 l 1428 896 q 1378 885 1400 893 q 1337 858 1356 876 q 1300 808 1318 840 q 1264 728 1282 776 l 990 -11 l 897 -11 l 753 503 q 725 614 735 564 q 707 708 715 664 l 704 708 q 678 618 692 663 q 647 526 665 574 l 451 -11 l 363 -11 m 1015 1076 l 768 1199 l 511 1079 l 486 1129 l 774 1332 l 792 1332 l 1050 1128 l 1015 1076 z "},"Ẅ":{"ha":1396,"x_min":40,"x_max":1432,"o":"m 363 -11 l 153 735 q 126 822 138 783 q 115 885 115 860 q 75 883 93 883 q 40 881 57 882 l 44 972 l 426 972 l 421 896 q 338 871 360 896 q 331 776 315 846 l 406 457 q 428 358 417 404 q 451 246 439 311 l 454 246 q 472 302 460 267 q 498 378 485 338 q 522 451 511 418 q 539 499 533 483 l 711 974 l 807 974 l 942 458 q 967 351 956 406 q 990 240 979 296 l 993 240 q 1025 331 1008 283 q 1058 429 1042 378 q 1096 535 1079 488 q 1126 622 1113 582 q 1151 697 1139 661 q 1175 767 1163 732 q 1199 830 1185 797 q 1233 886 1214 863 q 1176 883 1208 885 q 1125 881 1144 882 l 1129 972 l 1432 972 l 1428 896 q 1378 885 1400 893 q 1337 858 1356 876 q 1300 808 1318 840 q 1264 728 1282 776 l 990 -11 l 897 -11 l 753 503 q 725 614 735 564 q 707 708 715 664 l 704 708 q 678 618 692 663 q 647 526 665 574 l 451 -11 l 363 -11 m 647 1101 q 592 1128 614 1101 q 569 1194 569 1154 q 597 1267 571 1236 q 660 1297 624 1297 q 715 1269 693 1297 q 735 1203 736 1242 q 709 1132 735 1163 q 647 1101 683 1101 m 883 1101 q 828 1128 850 1101 q 807 1194 807 1154 q 833 1267 807 1236 q 896 1297 860 1297 q 951 1269 931 1297 q 971 1203 971 1242 q 945 1131 971 1161 q 883 1101 919 1101 z "},"Ẁ":{"ha":1396,"x_min":40,"x_max":1432,"o":"m 363 -11 l 153 735 q 126 822 138 783 q 115 885 115 860 q 75 883 93 883 q 40 881 57 882 l 44 972 l 426 972 l 421 896 q 338 871 360 896 q 331 776 315 846 l 406 457 q 428 358 417 404 q 451 246 439 311 l 454 246 q 472 302 460 267 q 498 378 485 338 q 522 451 511 418 q 539 499 533 483 l 711 974 l 807 974 l 942 458 q 967 351 956 406 q 990 240 979 296 l 993 240 q 1025 331 1008 283 q 1058 429 1042 378 q 1096 535 1079 488 q 1126 622 1113 582 q 1151 697 1139 661 q 1175 767 1163 732 q 1199 830 1185 797 q 1233 886 1214 863 q 1176 883 1208 885 q 1125 881 1144 882 l 1129 972 l 1432 972 l 1428 896 q 1378 885 1400 893 q 1337 858 1356 876 q 1300 808 1318 840 q 1264 728 1282 776 l 990 -11 l 897 -11 l 753 503 q 725 614 735 564 q 707 708 715 664 l 704 708 q 678 618 692 663 q 647 526 665 574 l 451 -11 l 363 -11 m 825 1068 l 626 1189 q 590 1224 603 1204 q 577 1263 576 1243 q 590 1300 578 1283 q 624 1322 604 1317 q 667 1318 644 1326 q 711 1289 690 1310 l 871 1126 l 825 1068 z "},"X":{"ha":950,"x_min":19,"x_max":931,"o":"m 19 0 l 24 76 q 115 125 74 88 q 210 231 157 163 l 390 460 q 279 615 331 544 q 183 749 228 686 q 139 819 157 788 q 107 885 121 851 q 74 883 86 883 q 44 881 61 882 l 49 972 l 449 972 l 444 896 q 365 884 389 894 q 344 851 342 874 q 369 794 347 829 l 499 607 l 622 768 q 680 840 656 813 q 724 886 704 868 q 667 883 699 885 q 615 881 635 882 l 619 972 l 922 972 l 917 896 q 847 869 881 892 q 778 811 813 847 q 706 726 743 775 l 553 532 l 792 201 q 834 144 814 172 q 868 88 854 115 q 902 91 890 90 q 931 92 914 92 l 926 0 l 538 0 l 542 76 q 610 90 593 76 q 621 125 626 103 q 596 174 615 147 l 446 383 l 310 203 q 260 138 281 164 q 214 86 239 111 q 270 90 240 89 q 319 92 300 92 l 315 0 l 19 0 z "},"Y":{"ha":913,"x_min":31,"x_max":943,"o":"m 272 0 l 276 76 q 337 90 315 78 q 369 132 358 103 q 381 214 379 161 l 388 347 l 158 744 q 120 822 135 783 q 106 885 106 861 q 66 883 83 883 q 31 881 49 882 l 36 972 l 424 972 l 419 896 q 345 883 372 897 q 315 842 318 869 q 335 774 313 815 q 385 685 358 732 q 438 594 413 639 q 456 558 444 581 q 481 512 468 536 q 501 468 494 488 l 504 468 q 533 523 515 490 q 575 600 551 556 q 623 683 599 642 q 671 765 647 724 q 692 803 679 781 q 719 848 704 825 q 747 885 735 871 q 691 883 724 883 q 639 881 658 882 l 644 972 l 943 972 l 939 896 q 845 854 885 890 q 758 738 806 818 l 560 396 l 551 207 q 546 138 550 169 q 539 88 542 106 q 577 90 556 89 q 619 91 599 90 q 651 92 639 92 l 647 0 l 272 0 z "},"Ý":{"ha":913,"x_min":31,"x_max":943,"o":"m 272 0 l 276 76 q 337 90 315 78 q 369 132 358 103 q 381 214 379 161 l 388 347 l 158 744 q 120 822 135 783 q 106 885 106 861 q 66 883 83 883 q 31 881 49 882 l 36 972 l 424 972 l 419 896 q 345 883 372 897 q 315 842 318 869 q 335 774 313 815 q 385 685 358 732 q 438 594 413 639 q 456 558 444 581 q 481 512 468 536 q 501 468 494 488 l 504 468 q 533 523 515 490 q 575 600 551 556 q 623 683 599 642 q 671 765 647 724 q 692 803 679 781 q 719 848 704 825 q 747 885 735 871 q 691 883 724 883 q 639 881 658 882 l 644 972 l 943 972 l 939 896 q 845 854 885 890 q 758 738 806 818 l 560 396 l 551 207 q 546 138 550 169 q 539 88 542 106 q 577 90 556 89 q 619 91 599 90 q 651 92 639 92 l 647 0 l 272 0 m 479 1067 l 438 1124 l 610 1288 q 655 1317 632 1308 q 698 1320 678 1325 q 729 1299 718 1315 q 740 1260 742 1281 q 725 1222 739 1240 q 685 1188 711 1203 l 479 1067 z "},"Ŷ":{"ha":913,"x_min":31,"x_max":943,"o":"m 272 0 l 276 76 q 337 90 315 78 q 369 132 358 103 q 381 214 379 161 l 388 347 l 158 744 q 120 822 135 783 q 106 885 106 861 q 66 883 83 883 q 31 881 49 882 l 36 972 l 424 972 l 419 896 q 345 883 372 897 q 315 842 318 869 q 335 774 313 815 q 385 685 358 732 q 438 594 413 639 q 456 558 444 581 q 481 512 468 536 q 501 468 494 488 l 504 468 q 533 523 515 490 q 575 600 551 556 q 623 683 599 642 q 671 765 647 724 q 692 803 679 781 q 719 848 704 825 q 747 885 735 871 q 691 883 724 883 q 639 881 658 882 l 644 972 l 943 972 l 939 896 q 845 854 885 890 q 758 738 806 818 l 560 396 l 551 207 q 546 138 550 169 q 539 88 542 106 q 577 90 556 89 q 619 91 599 90 q 651 92 639 92 l 647 0 l 272 0 m 774 1075 l 526 1197 l 269 1078 l 244 1128 l 532 1331 l 550 1331 l 808 1126 l 774 1075 z "},"Ÿ":{"ha":913,"x_min":31,"x_max":943,"o":"m 272 0 l 276 76 q 337 90 315 78 q 369 132 358 103 q 381 214 379 161 l 388 347 l 158 744 q 120 822 135 783 q 106 885 106 861 q 66 883 83 883 q 31 881 49 882 l 36 972 l 424 972 l 419 896 q 345 883 372 897 q 315 842 318 869 q 335 774 313 815 q 385 685 358 732 q 438 594 413 639 q 456 558 444 581 q 481 512 468 536 q 501 468 494 488 l 504 468 q 533 523 515 490 q 575 600 551 556 q 623 683 599 642 q 671 765 647 724 q 692 803 679 781 q 719 848 704 825 q 747 885 735 871 q 691 883 724 883 q 639 881 658 882 l 644 972 l 943 972 l 939 896 q 845 854 885 890 q 758 738 806 818 l 560 396 l 551 207 q 546 138 550 169 q 539 88 542 106 q 577 90 556 89 q 619 91 599 90 q 651 92 639 92 l 647 0 l 272 0 m 404 1100 q 349 1126 371 1100 q 326 1193 326 1153 q 354 1265 328 1235 q 417 1296 381 1296 q 472 1268 450 1296 q 492 1201 493 1240 q 466 1131 492 1161 q 404 1100 440 1100 m 640 1100 q 585 1126 607 1100 q 564 1193 564 1153 q 590 1265 564 1235 q 653 1296 617 1296 q 708 1268 688 1296 q 728 1201 728 1240 q 702 1130 728 1160 q 640 1100 676 1100 z "},"Ỵ":{"ha":913,"x_min":31,"x_max":943,"o":"m 272 0 l 276 76 q 337 90 315 78 q 369 132 358 103 q 381 214 379 161 l 388 347 l 158 744 q 120 822 135 783 q 106 885 106 861 q 66 883 83 883 q 31 881 49 882 l 36 972 l 424 972 l 419 896 q 345 883 372 897 q 315 842 318 869 q 335 774 313 815 q 385 685 358 732 q 438 594 413 639 q 456 558 444 581 q 481 512 468 536 q 501 468 494 488 l 504 468 q 533 523 515 490 q 575 600 551 556 q 623 683 599 642 q 671 765 647 724 q 692 803 679 781 q 719 848 704 825 q 747 885 735 871 q 691 883 724 883 q 639 881 658 882 l 644 972 l 943 972 l 939 896 q 845 854 885 890 q 758 738 806 818 l 560 396 l 551 207 q 546 138 550 169 q 539 88 542 106 q 577 90 556 89 q 619 91 599 90 q 651 92 639 92 l 647 0 l 272 0 m 433 -101 q 487 -126 467 -101 q 506 -186 507 -151 q 481 -245 504 -221 q 425 -269 458 -269 q 369 -245 390 -269 q 350 -186 349 -221 q 378 -126 353 -151 q 433 -101 403 -101 z "},"Ỳ":{"ha":913,"x_min":31,"x_max":943,"o":"m 272 0 l 276 76 q 337 90 315 78 q 369 132 358 103 q 381 214 379 161 l 388 347 l 158 744 q 120 822 135 783 q 106 885 106 861 q 66 883 83 883 q 31 881 49 882 l 36 972 l 424 972 l 419 896 q 345 883 372 897 q 315 842 318 869 q 335 774 313 815 q 385 685 358 732 q 438 594 413 639 q 456 558 444 581 q 481 512 468 536 q 501 468 494 488 l 504 468 q 533 523 515 490 q 575 600 551 556 q 623 683 599 642 q 671 765 647 724 q 692 803 679 781 q 719 848 704 825 q 747 885 735 871 q 691 883 724 883 q 639 881 658 882 l 644 972 l 943 972 l 939 896 q 845 854 885 890 q 758 738 806 818 l 560 396 l 551 207 q 546 138 550 169 q 539 88 542 106 q 577 90 556 89 q 619 91 599 90 q 651 92 639 92 l 647 0 l 272 0 m 582 1067 l 383 1188 q 347 1222 360 1203 q 334 1262 333 1242 q 347 1299 335 1282 q 381 1320 361 1315 q 424 1317 401 1325 q 468 1288 447 1308 l 628 1125 l 582 1067 z "},"Ỷ":{"ha":913,"x_min":31,"x_max":943,"o":"m 272 0 l 276 76 q 337 90 315 78 q 369 132 358 103 q 381 214 379 161 l 388 347 l 158 744 q 120 822 135 783 q 106 885 106 861 q 66 883 83 883 q 31 881 49 882 l 36 972 l 424 972 l 419 896 q 345 883 372 897 q 315 842 318 869 q 335 774 313 815 q 385 685 358 732 q 438 594 413 639 q 456 558 444 581 q 481 512 468 536 q 501 468 494 488 l 504 468 q 533 523 515 490 q 575 600 551 556 q 623 683 599 642 q 671 765 647 724 q 692 803 679 781 q 719 848 704 825 q 747 885 735 871 q 691 883 724 883 q 639 881 658 882 l 644 972 l 943 972 l 939 896 q 845 854 885 890 q 758 738 806 818 l 560 396 l 551 207 q 546 138 550 169 q 539 88 542 106 q 577 90 556 89 q 619 91 599 90 q 651 92 639 92 l 647 0 l 272 0 m 499 1053 q 519 1097 500 1081 q 557 1131 539 1114 q 576 1156 568 1142 q 585 1186 583 1169 q 567 1231 588 1214 q 517 1249 547 1249 q 463 1235 482 1249 q 442 1210 444 1221 q 464 1199 457 1208 q 471 1178 471 1190 q 456 1149 469 1161 q 422 1136 443 1136 q 378 1154 396 1136 q 361 1201 360 1172 q 383 1258 364 1231 q 437 1303 401 1285 q 519 1321 472 1321 q 640 1286 599 1321 q 679 1197 682 1251 q 659 1142 678 1161 q 617 1104 640 1122 q 588 1078 599 1090 q 575 1053 576 1065 l 499 1053 z "},"Ỹ":{"ha":913,"x_min":31,"x_max":943,"o":"m 272 0 l 276 76 q 337 90 315 78 q 369 132 358 103 q 381 214 379 161 l 388 347 l 158 744 q 120 822 135 783 q 106 885 106 861 q 66 883 83 883 q 31 881 49 882 l 36 972 l 424 972 l 419 896 q 345 883 372 897 q 315 842 318 869 q 335 774 313 815 q 385 685 358 732 q 438 594 413 639 q 456 558 444 581 q 481 512 468 536 q 501 468 494 488 l 504 468 q 533 523 515 490 q 575 600 551 556 q 623 683 599 642 q 671 765 647 724 q 692 803 679 781 q 719 848 704 825 q 747 885 735 871 q 691 883 724 883 q 639 881 658 882 l 644 972 l 943 972 l 939 896 q 845 854 885 890 q 758 738 806 818 l 560 396 l 551 207 q 546 138 550 169 q 539 88 542 106 q 577 90 556 89 q 619 91 599 90 q 651 92 639 92 l 647 0 l 272 0 m 424 1179 q 363 1164 396 1179 q 303 1107 331 1149 l 243 1144 q 325 1252 274 1217 q 424 1288 376 1288 q 488 1277 461 1289 q 538 1250 515 1265 q 583 1223 560 1235 q 632 1211 606 1211 q 697 1235 663 1211 q 751 1296 732 1258 l 813 1264 q 757 1163 788 1199 q 694 1115 726 1128 q 632 1103 663 1103 q 573 1114 599 1103 q 524 1140 547 1125 q 476 1167 500 1156 q 424 1179 453 1179 z "},"Z":{"ha":842,"x_min":36,"x_max":806,"o":"m 36 0 l 42 90 l 519 757 q 572 830 549 799 q 621 890 594 861 l 342 893 q 215 844 264 894 q 160 679 167 794 l 82 679 l 106 972 l 806 972 l 800 886 l 331 231 q 271 151 300 188 q 213 83 242 114 l 496 81 q 634 128 578 79 q 696 293 690 178 l 772 293 l 749 0 l 36 0 z "},"Ź":{"ha":842,"x_min":36,"x_max":806,"o":"m 36 0 l 42 90 l 519 757 q 572 830 549 799 q 621 890 594 861 l 342 893 q 215 844 264 894 q 160 679 167 794 l 82 679 l 106 972 l 806 972 l 800 886 l 331 231 q 271 151 300 188 q 213 83 242 114 l 496 81 q 634 128 578 79 q 696 293 690 178 l 772 293 l 749 0 l 36 0 m 431 1067 l 389 1124 l 561 1288 q 606 1317 583 1308 q 649 1320 629 1325 q 681 1299 669 1315 q 692 1260 693 1281 q 676 1222 690 1240 q 636 1188 663 1203 l 431 1067 z "},"Ž":{"ha":842,"x_min":36,"x_max":806,"o":"m 36 0 l 42 90 l 519 757 q 572 830 549 799 q 621 890 594 861 l 342 893 q 215 844 264 894 q 160 679 167 794 l 82 679 l 106 972 l 806 972 l 800 886 l 331 231 q 271 151 300 188 q 213 83 242 114 l 496 81 q 634 128 578 79 q 696 293 690 178 l 772 293 l 749 0 l 36 0 m 474 1071 l 454 1071 l 196 1278 l 231 1329 l 475 1204 l 733 1329 l 758 1281 l 474 1071 z "},"Ż":{"ha":842,"x_min":36,"x_max":806,"o":"m 36 0 l 42 90 l 519 757 q 572 830 549 799 q 621 890 594 861 l 342 893 q 215 844 264 894 q 160 679 167 794 l 82 679 l 106 972 l 806 972 l 800 886 l 331 231 q 271 151 300 188 q 213 83 242 114 l 496 81 q 634 128 578 79 q 696 293 690 178 l 772 293 l 749 0 l 36 0 m 476 1307 q 537 1280 514 1307 q 557 1213 560 1253 q 530 1147 556 1175 q 467 1119 504 1119 q 406 1147 429 1119 q 385 1213 383 1175 q 415 1280 388 1253 q 476 1307 442 1307 z "},"a":{"ha":763,"x_min":40,"x_max":757,"o":"m 456 710 q 546 703 494 710 q 650 682 597 696 q 631 543 642 621 q 610 388 621 465 q 594 247 600 311 q 588 149 588 183 q 593 108 588 122 q 614 94 599 94 q 653 120 632 94 q 694 213 675 146 l 757 194 q 739 131 753 167 q 702 61 725 94 q 646 6 679 28 q 568 -15 613 -15 q 490 14 521 -15 q 460 111 460 43 q 463 167 460 136 q 472 226 467 197 l 469 226 q 411 105 442 153 q 349 31 381 57 q 285 -6 317 4 q 222 -15 253 -15 q 93 44 146 -15 q 40 233 40 104 q 67 416 40 331 q 147 568 94 501 q 277 672 200 635 q 456 710 354 710 m 407 632 q 322 603 360 632 q 258 523 285 575 q 219 399 232 471 q 206 238 206 326 q 222 128 206 169 q 271 88 238 88 q 335 121 304 88 q 390 211 365 154 q 435 338 415 268 q 467 481 454 408 q 481 621 479 554 q 449 628 469 625 q 407 632 428 632 z "},"á":{"ha":763,"x_min":40,"x_max":757,"o":"m 456 710 q 546 703 494 710 q 650 682 597 696 q 631 543 642 621 q 610 388 621 465 q 594 247 600 311 q 588 149 588 183 q 593 108 588 122 q 614 94 599 94 q 653 120 632 94 q 694 213 675 146 l 757 194 q 739 131 753 167 q 702 61 725 94 q 646 6 679 28 q 568 -15 613 -15 q 490 14 521 -15 q 460 111 460 43 q 463 167 460 136 q 472 226 467 197 l 469 226 q 411 105 442 153 q 349 31 381 57 q 285 -6 317 4 q 222 -15 253 -15 q 93 44 146 -15 q 40 233 40 104 q 67 416 40 331 q 147 568 94 501 q 277 672 200 635 q 456 710 354 710 m 407 632 q 322 603 360 632 q 258 523 285 575 q 219 399 232 471 q 206 238 206 326 q 222 128 206 169 q 271 88 238 88 q 335 121 304 88 q 390 211 365 154 q 435 338 415 268 q 467 481 454 408 q 481 621 479 554 q 449 628 469 625 q 407 632 428 632 m 371 792 l 319 839 l 438 1029 q 476 1067 454 1056 q 519 1078 499 1079 q 554 1063 540 1076 q 574 1026 571 1047 q 568 982 578 1006 q 536 939 558 958 l 371 792 z "},"ă":{"ha":763,"x_min":40,"x_max":757,"o":"m 456 710 q 546 703 494 710 q 650 682 597 696 q 631 543 642 621 q 610 388 621 465 q 594 247 600 311 q 588 149 588 183 q 593 108 588 122 q 614 94 599 94 q 653 120 632 94 q 694 213 675 146 l 757 194 q 739 131 753 167 q 702 61 725 94 q 646 6 679 28 q 568 -15 613 -15 q 490 14 521 -15 q 460 111 460 43 q 463 167 460 136 q 472 226 467 197 l 469 226 q 411 105 442 153 q 349 31 381 57 q 285 -6 317 4 q 222 -15 253 -15 q 93 44 146 -15 q 40 233 40 104 q 67 416 40 331 q 147 568 94 501 q 277 672 200 635 q 456 710 354 710 m 407 632 q 322 603 360 632 q 258 523 285 575 q 219 399 232 471 q 206 238 206 326 q 222 128 206 169 q 271 88 238 88 q 335 121 304 88 q 390 211 365 154 q 435 338 415 268 q 467 481 454 408 q 481 621 479 554 q 449 628 469 625 q 407 632 428 632 m 446 785 q 337 819 393 785 q 251 931 281 853 l 308 956 q 367 899 329 924 q 453 874 404 874 q 539 899 503 874 q 599 957 575 925 l 651 935 q 564 820 617 856 q 446 785 511 785 z "},"ắ":{"ha":763,"x_min":40,"x_max":757,"o":"m 456 710 q 546 703 494 710 q 650 682 597 696 q 631 543 642 621 q 610 388 621 465 q 594 247 600 311 q 588 149 588 183 q 593 108 588 122 q 614 94 599 94 q 653 120 632 94 q 694 213 675 146 l 757 194 q 739 131 753 167 q 702 61 725 94 q 646 6 679 28 q 568 -15 613 -15 q 490 14 521 -15 q 460 111 460 43 q 463 167 460 136 q 472 226 467 197 l 469 226 q 411 105 442 153 q 349 31 381 57 q 285 -6 317 4 q 222 -15 253 -15 q 93 44 146 -15 q 40 233 40 104 q 67 416 40 331 q 147 568 94 501 q 277 672 200 635 q 456 710 354 710 m 407 632 q 322 603 360 632 q 258 523 285 575 q 219 399 232 471 q 206 238 206 326 q 222 128 206 169 q 271 88 238 88 q 335 121 304 88 q 390 211 365 154 q 435 338 415 268 q 467 481 454 408 q 481 621 479 554 q 449 628 469 625 q 407 632 428 632 m 446 785 q 337 819 393 785 q 251 931 281 853 l 308 956 q 367 899 331 925 q 453 874 404 874 q 539 899 503 874 q 599 957 575 925 l 651 935 q 564 821 617 857 q 446 785 511 785 m 458 944 l 415 983 l 514 1140 q 544 1173 526 1164 q 580 1181 563 1182 q 610 1168 597 1179 q 625 1120 629 1150 q 594 1067 621 1090 l 458 944 z "},"ặ":{"ha":763,"x_min":40,"x_max":757,"o":"m 456 710 q 546 703 494 710 q 650 682 597 696 q 631 543 642 621 q 610 388 621 465 q 594 247 600 311 q 588 149 588 183 q 593 108 588 122 q 614 94 599 94 q 653 120 632 94 q 694 213 675 146 l 757 194 q 739 131 753 167 q 702 61 725 94 q 646 6 679 28 q 568 -15 613 -15 q 490 14 521 -15 q 460 111 460 43 q 463 167 460 136 q 472 226 467 197 l 469 226 q 411 105 442 153 q 349 31 381 57 q 285 -6 317 4 q 222 -15 253 -15 q 93 44 146 -15 q 40 233 40 104 q 67 416 40 331 q 147 568 94 501 q 277 672 200 635 q 456 710 354 710 m 407 632 q 322 603 360 632 q 258 523 285 575 q 219 399 232 471 q 206 238 206 326 q 222 128 206 169 q 271 88 238 88 q 335 121 304 88 q 390 211 365 154 q 435 338 415 268 q 467 481 454 408 q 481 621 479 554 q 449 628 469 625 q 407 632 428 632 m 360 -101 q 413 -126 393 -101 q 432 -186 433 -151 q 408 -245 431 -221 q 351 -269 385 -269 q 296 -245 317 -269 q 276 -186 275 -221 q 304 -126 279 -151 q 360 -101 329 -101 m 446 785 q 337 819 393 785 q 251 931 281 853 l 308 956 q 367 899 329 924 q 453 874 404 874 q 539 899 503 874 q 599 957 575 925 l 651 935 q 564 820 617 856 q 446 785 511 785 z "},"ằ":{"ha":763,"x_min":40,"x_max":757,"o":"m 456 710 q 546 703 494 710 q 650 682 597 696 q 631 543 642 621 q 610 388 621 465 q 594 247 600 311 q 588 149 588 183 q 593 108 588 122 q 614 94 599 94 q 653 120 632 94 q 694 213 675 146 l 757 194 q 739 131 753 167 q 702 61 725 94 q 646 6 679 28 q 568 -15 613 -15 q 490 14 521 -15 q 460 111 460 43 q 463 167 460 136 q 472 226 467 197 l 469 226 q 411 105 442 153 q 349 31 381 57 q 285 -6 317 4 q 222 -15 253 -15 q 93 44 146 -15 q 40 233 40 104 q 67 416 40 331 q 147 568 94 501 q 277 672 200 635 q 456 710 354 710 m 407 632 q 322 603 360 632 q 258 523 285 575 q 219 399 232 471 q 206 238 206 326 q 222 128 206 169 q 271 88 238 88 q 335 121 304 88 q 390 211 365 154 q 435 338 415 268 q 467 481 454 408 q 481 621 479 554 q 449 628 469 625 q 407 632 428 632 m 446 785 q 337 819 393 785 q 251 931 281 853 l 308 956 q 367 899 331 925 q 453 874 404 874 q 539 899 503 874 q 599 957 575 925 l 651 935 q 564 821 617 857 q 446 785 511 785 m 457 951 l 331 1074 q 302 1128 304 1099 q 321 1175 300 1157 q 351 1188 335 1186 q 385 1179 368 1189 q 413 1147 401 1169 l 503 990 l 457 951 z "},"ẳ":{"ha":763,"x_min":40,"x_max":757,"o":"m 456 710 q 546 703 494 710 q 650 682 597 696 q 631 543 642 621 q 610 388 621 465 q 594 247 600 311 q 588 149 588 183 q 593 108 588 122 q 614 94 599 94 q 653 120 632 94 q 694 213 675 146 l 757 194 q 739 131 753 167 q 702 61 725 94 q 646 6 679 28 q 568 -15 613 -15 q 490 14 521 -15 q 460 111 460 43 q 463 167 460 136 q 472 226 467 197 l 469 226 q 411 105 442 153 q 349 31 381 57 q 285 -6 317 4 q 222 -15 253 -15 q 93 44 146 -15 q 40 233 40 104 q 67 416 40 331 q 147 568 94 501 q 277 672 200 635 q 456 710 354 710 m 407 632 q 322 603 360 632 q 258 523 285 575 q 219 399 232 471 q 206 238 206 326 q 222 128 206 169 q 271 88 238 88 q 335 121 304 88 q 390 211 365 154 q 435 338 415 268 q 467 481 454 408 q 481 621 479 554 q 449 628 469 625 q 407 632 428 632 m 446 785 q 337 819 393 785 q 251 931 281 853 l 308 956 q 367 899 331 925 q 453 874 404 874 q 539 899 503 874 q 599 957 575 925 l 651 935 q 564 821 617 857 q 446 785 511 785 m 444 958 q 465 1002 446 986 q 503 1036 485 1018 q 522 1060 514 1047 q 531 1090 529 1074 q 513 1137 533 1119 q 463 1154 493 1154 q 409 1140 428 1154 q 388 1115 390 1126 q 410 1104 403 1114 q 417 1082 417 1094 q 402 1054 415 1067 q 368 1042 389 1042 q 324 1060 342 1042 q 307 1107 306 1078 q 328 1163 310 1136 q 383 1208 347 1190 q 465 1226 418 1226 q 586 1191 544 1226 q 625 1103 628 1156 q 605 1046 624 1065 q 563 1010 586 1026 q 533 983 544 996 q 521 958 522 971 l 444 958 z "},"ẵ":{"ha":763,"x_min":40,"x_max":757,"o":"m 456 710 q 546 703 494 710 q 650 682 597 696 q 631 543 642 621 q 610 388 621 465 q 594 247 600 311 q 588 149 588 183 q 593 108 588 122 q 614 94 599 94 q 653 120 632 94 q 694 213 675 146 l 757 194 q 739 131 753 167 q 702 61 725 94 q 646 6 679 28 q 568 -15 613 -15 q 490 14 521 -15 q 460 111 460 43 q 463 167 460 136 q 472 226 467 197 l 469 226 q 411 105 442 153 q 349 31 381 57 q 285 -6 317 4 q 222 -15 253 -15 q 93 44 146 -15 q 40 233 40 104 q 67 416 40 331 q 147 568 94 501 q 277 672 200 635 q 456 710 354 710 m 407 632 q 322 603 360 632 q 258 523 285 575 q 219 399 232 471 q 206 238 206 326 q 222 128 206 169 q 271 88 238 88 q 335 121 304 88 q 390 211 365 154 q 435 338 415 268 q 467 481 454 408 q 481 621 479 554 q 449 628 469 625 q 407 632 428 632 m 446 785 q 337 819 393 785 q 251 931 281 853 l 308 956 q 367 899 331 925 q 453 874 404 874 q 539 899 503 874 q 599 957 575 925 l 651 935 q 564 821 617 857 q 446 785 511 785 m 310 999 l 260 1029 q 315 1106 278 1076 q 389 1136 353 1136 q 446 1124 425 1136 q 485 1099 467 1111 q 531 1086 504 1086 q 574 1102 554 1086 q 608 1146 593 1118 l 658 1119 q 599 1024 636 1051 q 529 997 563 997 q 474 1010 497 997 q 431 1035 451 1022 q 388 1047 411 1047 q 349 1036 371 1047 q 310 999 326 1025 z "},"ǎ":{"ha":763,"x_min":40,"x_max":757,"o":"m 456 710 q 546 703 494 710 q 650 682 597 696 q 631 543 642 621 q 610 388 621 465 q 594 247 600 311 q 588 149 588 183 q 593 108 588 122 q 614 94 599 94 q 653 120 632 94 q 694 213 675 146 l 757 194 q 739 131 753 167 q 702 61 725 94 q 646 6 679 28 q 568 -15 613 -15 q 490 14 521 -15 q 460 111 460 43 q 463 167 460 136 q 472 226 467 197 l 469 226 q 411 105 442 153 q 349 31 381 57 q 285 -6 317 4 q 222 -15 253 -15 q 93 44 146 -15 q 40 233 40 104 q 67 416 40 331 q 147 568 94 501 q 277 672 200 635 q 456 710 354 710 m 407 632 q 322 603 360 632 q 258 523 285 575 q 219 399 232 471 q 206 238 206 326 q 222 128 206 169 q 271 88 238 88 q 335 121 304 88 q 390 211 365 154 q 435 338 415 268 q 467 481 454 408 q 481 621 479 554 q 449 628 469 625 q 407 632 428 632 m 426 796 l 219 1028 l 269 1082 l 443 932 l 444 932 l 631 1086 l 674 1032 l 438 796 l 426 796 z "},"â":{"ha":763,"x_min":40,"x_max":757,"o":"m 456 710 q 546 703 494 710 q 650 682 597 696 q 631 543 642 621 q 610 388 621 465 q 594 247 600 311 q 588 149 588 183 q 593 108 588 122 q 614 94 599 94 q 653 120 632 94 q 694 213 675 146 l 757 194 q 739 131 753 167 q 702 61 725 94 q 646 6 679 28 q 568 -15 613 -15 q 490 14 521 -15 q 460 111 460 43 q 463 167 460 136 q 472 226 467 197 l 469 226 q 411 105 442 153 q 349 31 381 57 q 285 -6 317 4 q 222 -15 253 -15 q 93 44 146 -15 q 40 233 40 104 q 67 416 40 331 q 147 568 94 501 q 277 672 200 635 q 456 710 354 710 m 407 632 q 322 603 360 632 q 258 523 285 575 q 219 399 232 471 q 206 238 206 326 q 222 128 206 169 q 271 88 238 88 q 335 121 304 88 q 390 211 365 154 q 435 338 415 268 q 467 481 454 408 q 481 621 479 554 q 449 628 469 625 q 407 632 428 632 m 629 797 l 456 946 l 454 946 l 265 803 l 222 858 l 467 1085 l 476 1085 l 682 853 l 629 797 z "},"ấ":{"ha":763,"x_min":40,"x_max":825,"o":"m 456 710 q 546 703 494 710 q 650 682 597 696 q 631 543 642 621 q 610 388 621 465 q 594 247 600 311 q 588 149 588 183 q 593 108 588 122 q 614 94 599 94 q 653 120 632 94 q 694 213 675 146 l 757 194 q 739 131 753 167 q 702 61 725 94 q 646 6 679 28 q 568 -15 613 -15 q 490 14 521 -15 q 460 111 460 43 q 463 167 460 136 q 472 226 467 197 l 469 226 q 411 105 442 153 q 349 31 381 57 q 285 -6 317 4 q 222 -15 253 -15 q 93 44 146 -15 q 40 233 40 104 q 67 416 40 331 q 147 568 94 501 q 277 672 200 635 q 456 710 354 710 m 407 632 q 322 603 360 632 q 258 523 285 575 q 219 399 232 471 q 206 238 206 326 q 222 128 206 169 q 271 88 238 88 q 335 121 304 88 q 390 211 365 154 q 435 338 415 268 q 467 481 454 408 q 481 621 479 554 q 449 628 469 625 q 407 632 428 632 m 614 779 l 446 863 l 271 781 l 238 835 l 449 979 l 461 979 l 654 839 l 614 779 m 653 918 l 610 957 l 708 1114 q 740 1147 722 1138 q 775 1155 758 1156 q 804 1142 792 1154 q 820 1094 825 1124 q 790 1040 815 1064 l 653 918 z "},"ậ":{"ha":763,"x_min":40,"x_max":757,"o":"m 614 779 l 444 863 l 269 781 l 238 835 l 449 979 l 461 979 l 653 839 l 614 779 m 456 710 q 546 703 494 710 q 650 682 597 696 q 631 543 642 621 q 610 388 621 465 q 594 247 600 311 q 588 149 588 183 q 593 108 588 122 q 614 94 599 94 q 653 120 632 94 q 694 213 675 146 l 757 194 q 739 131 753 167 q 702 61 725 94 q 646 6 679 28 q 568 -15 613 -15 q 490 14 521 -15 q 460 111 460 43 q 463 167 460 136 q 472 226 467 197 l 469 226 q 411 105 442 153 q 349 31 381 57 q 285 -6 317 4 q 222 -15 253 -15 q 93 44 146 -15 q 40 233 40 104 q 67 416 40 331 q 147 568 94 501 q 277 672 200 635 q 456 710 354 710 m 407 632 q 322 603 360 632 q 258 523 285 575 q 219 399 232 471 q 206 238 206 326 q 222 128 206 169 q 271 88 238 88 q 335 121 304 88 q 390 211 365 154 q 435 338 415 268 q 467 481 454 408 q 481 621 479 554 q 449 628 469 625 q 407 632 428 632 m 360 -101 q 413 -126 393 -101 q 431 -186 433 -151 q 407 -245 429 -221 q 350 -269 385 -269 q 296 -245 317 -269 q 276 -186 275 -221 q 303 -126 279 -151 q 360 -101 328 -101 z "},"ầ":{"ha":763,"x_min":40,"x_max":757,"o":"m 456 710 q 546 703 494 710 q 650 682 597 696 q 631 543 642 621 q 610 388 621 465 q 594 247 600 311 q 588 149 588 183 q 593 108 588 122 q 614 94 599 94 q 653 120 632 94 q 694 213 675 146 l 757 194 q 739 131 753 167 q 702 61 725 94 q 646 6 679 28 q 568 -15 613 -15 q 490 14 521 -15 q 460 111 460 43 q 463 167 460 136 q 472 226 467 197 l 469 226 q 411 105 442 153 q 349 31 381 57 q 285 -6 317 4 q 222 -15 253 -15 q 93 44 146 -15 q 40 233 40 104 q 67 416 40 331 q 147 568 94 501 q 277 672 200 635 q 456 710 354 710 m 407 632 q 322 603 360 632 q 258 523 285 575 q 219 399 232 471 q 206 238 206 326 q 222 128 206 169 q 271 88 238 88 q 335 121 304 88 q 390 211 365 154 q 435 338 415 268 q 467 481 454 408 q 481 621 479 554 q 449 628 469 625 q 407 632 428 632 m 614 779 l 444 863 l 269 781 l 238 835 l 449 979 l 461 979 l 653 839 l 614 779 m 613 944 l 482 1071 q 453 1126 456 1097 q 472 1175 451 1156 q 503 1188 486 1186 q 537 1179 519 1189 q 567 1147 554 1169 l 660 985 l 613 944 z "},"ẩ":{"ha":763,"x_min":40,"x_max":785,"o":"m 456 710 q 546 703 494 710 q 650 682 597 696 q 631 543 642 621 q 610 388 621 465 q 594 247 600 311 q 588 149 588 183 q 593 108 588 122 q 614 94 599 94 q 653 120 632 94 q 694 213 675 146 l 757 194 q 739 131 753 167 q 702 61 725 94 q 646 6 679 28 q 568 -15 613 -15 q 490 14 521 -15 q 460 111 460 43 q 463 167 460 136 q 472 226 467 197 l 469 226 q 411 105 442 153 q 349 31 381 57 q 285 -6 317 4 q 222 -15 253 -15 q 93 44 146 -15 q 40 233 40 104 q 67 416 40 331 q 147 568 94 501 q 277 672 200 635 q 456 710 354 710 m 407 632 q 322 603 360 632 q 258 523 285 575 q 219 399 232 471 q 206 238 206 326 q 222 128 206 169 q 271 88 238 88 q 335 121 304 88 q 390 211 365 154 q 435 338 415 268 q 467 481 454 408 q 481 621 479 554 q 449 628 469 625 q 407 632 428 632 m 614 779 l 446 863 l 271 781 l 238 835 l 449 979 l 461 979 l 654 839 l 614 779 m 615 936 q 635 976 617 963 q 669 1007 654 990 q 686 1031 679 1018 q 694 1058 693 1044 q 679 1102 697 1086 q 631 1118 661 1118 q 583 1106 600 1118 q 563 1081 565 1093 q 583 1071 576 1079 q 589 1053 589 1063 q 576 1026 588 1038 q 544 1014 564 1014 q 503 1031 519 1014 q 488 1075 486 1047 q 529 1149 490 1114 q 635 1183 568 1183 q 747 1151 708 1183 q 782 1071 785 1119 q 763 1017 781 1036 q 724 983 746 999 q 697 959 708 971 q 685 936 686 947 l 615 936 z "},"ẫ":{"ha":763,"x_min":40,"x_max":757,"o":"m 456 710 q 546 703 494 710 q 650 682 597 696 q 631 543 642 621 q 610 388 621 465 q 594 247 600 311 q 588 149 588 183 q 593 108 588 122 q 614 94 599 94 q 653 120 632 94 q 694 213 675 146 l 757 194 q 739 131 753 167 q 702 61 725 94 q 646 6 679 28 q 568 -15 613 -15 q 490 14 521 -15 q 460 111 460 43 q 463 167 460 136 q 472 226 467 197 l 469 226 q 411 105 442 153 q 349 31 381 57 q 285 -6 317 4 q 222 -15 253 -15 q 93 44 146 -15 q 40 233 40 104 q 67 416 40 331 q 147 568 94 501 q 277 672 200 635 q 456 710 354 710 m 407 632 q 322 603 360 632 q 258 523 285 575 q 219 399 232 471 q 206 238 206 326 q 222 128 206 169 q 271 88 238 88 q 335 121 304 88 q 390 211 365 154 q 435 338 415 268 q 467 481 454 408 q 481 621 479 554 q 449 628 469 625 q 407 632 428 632 m 614 779 l 444 863 l 269 781 l 238 835 l 449 979 l 461 979 l 653 839 l 614 779 m 317 986 l 267 1017 q 322 1094 285 1064 q 396 1124 360 1124 q 453 1111 432 1124 q 492 1086 474 1099 q 538 1074 511 1074 q 581 1090 561 1074 q 615 1133 600 1106 l 665 1107 q 606 1012 643 1039 q 536 985 569 985 q 481 997 504 985 q 438 1022 458 1010 q 394 1035 418 1035 q 356 1024 378 1035 q 317 986 333 1013 z "},"ä":{"ha":763,"x_min":40,"x_max":757,"o":"m 456 710 q 546 703 494 710 q 650 682 597 696 q 631 543 642 621 q 610 388 621 465 q 594 247 600 311 q 588 149 588 183 q 593 108 588 122 q 614 94 599 94 q 653 120 632 94 q 694 213 675 146 l 757 194 q 739 131 753 167 q 702 61 725 94 q 646 6 679 28 q 568 -15 613 -15 q 490 14 521 -15 q 460 111 460 43 q 463 167 460 136 q 472 226 467 197 l 469 226 q 411 105 442 153 q 349 31 381 57 q 285 -6 317 4 q 222 -15 253 -15 q 93 44 146 -15 q 40 233 40 104 q 67 416 40 331 q 147 568 94 501 q 277 672 200 635 q 456 710 354 710 m 407 632 q 322 603 360 632 q 258 523 285 575 q 219 399 232 471 q 206 238 206 326 q 222 128 206 169 q 271 88 238 88 q 335 121 304 88 q 390 211 365 154 q 435 338 415 268 q 467 481 454 408 q 481 621 479 554 q 449 628 469 625 q 407 632 428 632 m 557 840 q 501 867 524 840 q 481 931 479 893 q 507 1001 481 972 q 568 1031 533 1031 q 622 1004 601 1031 q 643 940 643 978 q 617 869 642 899 q 557 840 592 840 m 328 840 q 272 867 294 840 q 251 931 250 893 q 278 1001 251 972 q 339 1031 304 1031 q 393 1004 372 1031 q 414 940 414 978 q 388 869 413 899 q 328 840 363 840 z "},"ạ":{"ha":763,"x_min":40,"x_max":757,"o":"m 456 710 q 546 703 494 710 q 650 682 597 696 q 631 543 642 621 q 610 388 621 465 q 594 247 600 311 q 588 149 588 183 q 593 108 588 122 q 614 94 599 94 q 653 120 632 94 q 694 213 675 146 l 757 194 q 739 131 753 167 q 702 61 725 94 q 646 6 679 28 q 568 -15 613 -15 q 490 14 521 -15 q 460 111 460 43 q 463 167 460 136 q 472 226 467 197 l 469 226 q 411 105 442 153 q 349 31 381 57 q 285 -6 317 4 q 222 -15 253 -15 q 93 44 146 -15 q 40 233 40 104 q 67 416 40 331 q 147 568 94 501 q 277 672 200 635 q 456 710 354 710 m 407 632 q 322 603 360 632 q 258 523 285 575 q 219 399 232 471 q 206 238 206 326 q 222 128 206 169 q 271 88 238 88 q 335 121 304 88 q 390 211 365 154 q 435 338 415 268 q 467 481 454 408 q 481 621 479 554 q 449 628 469 625 q 407 632 428 632 m 360 -101 q 413 -126 393 -101 q 432 -186 433 -151 q 408 -245 431 -221 q 351 -269 385 -269 q 296 -245 317 -269 q 276 -186 275 -221 q 304 -126 279 -151 q 360 -101 329 -101 z "},"à":{"ha":763,"x_min":40,"x_max":757,"o":"m 456 710 q 546 703 494 710 q 650 682 597 696 q 631 543 642 621 q 610 388 621 465 q 594 247 600 311 q 588 149 588 183 q 593 108 588 122 q 614 94 599 94 q 653 120 632 94 q 694 213 675 146 l 757 194 q 739 131 753 167 q 702 61 725 94 q 646 6 679 28 q 568 -15 613 -15 q 490 14 521 -15 q 460 111 460 43 q 463 167 460 136 q 472 226 467 197 l 469 226 q 411 105 442 153 q 349 31 381 57 q 285 -6 317 4 q 222 -15 253 -15 q 93 44 146 -15 q 40 233 40 104 q 67 416 40 331 q 147 568 94 501 q 277 672 200 635 q 456 710 354 710 m 407 632 q 322 603 360 632 q 258 523 285 575 q 219 399 232 471 q 206 238 206 326 q 222 128 206 169 q 271 88 238 88 q 335 121 304 88 q 390 211 365 154 q 435 338 415 268 q 467 481 454 408 q 481 621 479 554 q 449 628 469 625 q 407 632 428 632 m 496 792 l 342 940 q 314 983 322 961 q 310 1026 306 1006 q 331 1063 314 1047 q 367 1077 347 1076 q 408 1067 388 1078 q 443 1029 428 1056 l 551 839 l 496 792 z "},"ả":{"ha":763,"x_min":40,"x_max":757,"o":"m 456 710 q 546 703 494 710 q 650 682 597 696 q 631 543 642 621 q 610 388 621 465 q 594 247 600 311 q 588 149 588 183 q 593 108 588 122 q 614 94 599 94 q 653 120 632 94 q 694 213 675 146 l 757 194 q 739 131 753 167 q 702 61 725 94 q 646 6 679 28 q 568 -15 613 -15 q 490 14 521 -15 q 460 111 460 43 q 463 167 460 136 q 472 226 467 197 l 469 226 q 411 105 442 153 q 349 31 381 57 q 285 -6 317 4 q 222 -15 253 -15 q 93 44 146 -15 q 40 233 40 104 q 67 416 40 331 q 147 568 94 501 q 277 672 200 635 q 456 710 354 710 m 407 632 q 322 603 360 632 q 258 523 285 575 q 219 399 232 471 q 206 238 206 326 q 222 128 206 169 q 271 88 238 88 q 335 121 304 88 q 390 211 365 154 q 435 338 415 268 q 467 481 454 408 q 481 621 479 554 q 449 628 469 625 q 407 632 428 632 m 426 779 q 447 824 428 807 q 485 857 467 840 q 503 882 496 868 q 513 913 511 896 q 495 958 515 940 q 444 975 475 975 q 391 961 410 975 q 369 936 372 947 q 392 926 385 935 q 399 904 399 917 q 384 875 397 888 q 350 863 371 863 q 306 881 324 863 q 289 928 288 899 q 310 984 292 957 q 365 1029 329 1011 q 447 1047 400 1047 q 568 1013 526 1047 q 607 924 610 978 q 587 868 606 888 q 544 831 568 849 q 515 804 526 817 q 503 779 504 792 l 426 779 z "},"ā":{"ha":763,"x_min":40,"x_max":757,"o":"m 456 710 q 546 703 494 710 q 650 682 597 696 q 631 543 642 621 q 610 388 621 465 q 594 247 600 311 q 588 149 588 183 q 593 108 588 122 q 614 94 599 94 q 653 120 632 94 q 694 213 675 146 l 757 194 q 739 131 753 167 q 702 61 725 94 q 646 6 679 28 q 568 -15 613 -15 q 490 14 521 -15 q 460 111 460 43 q 463 167 460 136 q 472 226 467 197 l 469 226 q 411 105 442 153 q 349 31 381 57 q 285 -6 317 4 q 222 -15 253 -15 q 93 44 146 -15 q 40 233 40 104 q 67 416 40 331 q 147 568 94 501 q 277 672 200 635 q 456 710 354 710 m 407 632 q 322 603 360 632 q 258 523 285 575 q 219 399 232 471 q 206 238 206 326 q 222 128 206 169 q 271 88 238 88 q 335 121 304 88 q 390 211 365 154 q 435 338 415 268 q 467 481 454 408 q 481 621 479 554 q 449 628 469 625 q 407 632 428 632 m 251 881 l 257 993 l 642 993 l 638 886 l 251 881 z "},"ą":{"ha":763,"x_min":40,"x_max":757,"o":"m 456 710 q 546 703 494 710 q 650 682 597 696 q 631 543 642 621 q 610 388 621 465 q 594 247 600 311 q 588 149 588 183 q 593 108 588 122 q 614 94 599 94 q 653 120 632 94 q 694 213 675 146 l 757 194 q 739 131 753 167 q 702 61 725 94 q 646 6 679 28 q 568 -15 613 -15 q 490 14 521 -15 q 460 111 460 43 q 463 167 460 136 q 472 226 467 197 l 469 226 q 411 105 442 153 q 349 31 381 57 q 285 -6 317 4 q 222 -15 253 -15 q 93 44 146 -15 q 40 233 40 104 q 67 416 40 331 q 147 568 94 501 q 277 672 200 635 q 456 710 354 710 m 407 632 q 322 603 360 632 q 258 523 285 575 q 219 399 232 471 q 206 238 206 326 q 222 128 206 169 q 271 88 238 88 q 335 121 304 88 q 390 211 365 154 q 435 338 415 268 q 467 481 454 408 q 481 621 479 554 q 449 628 469 625 q 407 632 428 632 m 469 -369 q 368 -333 406 -369 q 335 -228 331 -296 q 385 -99 339 -158 q 502 6 431 -39 q 651 76 574 51 l 647 7 q 555 -43 599 -12 q 483 -112 511 -74 q 454 -194 456 -151 q 472 -244 454 -225 q 521 -264 489 -264 q 567 -253 543 -264 q 615 -222 592 -242 l 651 -269 q 567 -340 617 -311 q 469 -369 518 -369 z "},"å":{"ha":763,"x_min":40,"x_max":757,"o":"m 456 710 q 546 703 494 710 q 650 682 597 696 q 631 543 642 621 q 610 388 621 465 q 594 247 600 311 q 588 149 588 183 q 593 108 588 122 q 614 94 599 94 q 653 120 632 94 q 694 213 675 146 l 757 194 q 739 131 753 167 q 702 61 725 94 q 646 6 679 28 q 568 -15 613 -15 q 490 14 521 -15 q 460 111 460 43 q 463 167 460 136 q 472 226 467 197 l 469 226 q 411 105 442 153 q 349 31 381 57 q 285 -6 317 4 q 222 -15 253 -15 q 93 44 146 -15 q 40 233 40 104 q 67 416 40 331 q 147 568 94 501 q 277 672 200 635 q 456 710 354 710 m 407 632 q 322 603 360 632 q 258 523 285 575 q 219 399 232 471 q 206 238 206 326 q 222 128 206 169 q 271 88 238 88 q 335 121 304 88 q 390 211 365 154 q 435 338 415 268 q 467 481 454 408 q 481 621 479 554 q 449 628 469 625 q 407 632 428 632 m 440 785 q 369 801 404 785 q 313 851 335 818 q 292 931 292 883 q 316 1012 293 976 q 376 1068 339 1047 q 454 1089 414 1089 q 526 1073 492 1089 q 582 1026 560 1057 q 603 944 604 994 q 576 860 601 896 q 515 805 551 825 q 440 785 478 785 m 450 854 q 487 875 469 856 q 506 928 504 894 q 492 997 508 974 q 450 1021 475 1021 q 412 1001 429 1019 q 392 946 394 982 q 406 878 390 904 q 450 854 422 853 z "},"ã":{"ha":763,"x_min":40,"x_max":757,"o":"m 456 710 q 546 703 494 710 q 650 682 597 696 q 631 543 642 621 q 610 388 621 465 q 594 247 600 311 q 588 149 588 183 q 593 108 588 122 q 614 94 599 94 q 653 120 632 94 q 694 213 675 146 l 757 194 q 739 131 753 167 q 702 61 725 94 q 646 6 679 28 q 568 -15 613 -15 q 490 14 521 -15 q 460 111 460 43 q 463 167 460 136 q 472 226 467 197 l 469 226 q 411 105 442 153 q 349 31 381 57 q 285 -6 317 4 q 222 -15 253 -15 q 93 44 146 -15 q 40 233 40 104 q 67 416 40 331 q 147 568 94 501 q 277 672 200 635 q 456 710 354 710 m 407 632 q 322 603 360 632 q 258 523 285 575 q 219 399 232 471 q 206 238 206 326 q 222 128 206 169 q 271 88 238 88 q 335 121 304 88 q 390 211 365 154 q 435 338 415 268 q 467 481 454 408 q 481 621 479 554 q 449 628 469 625 q 407 632 428 632 m 275 850 l 215 888 q 281 981 236 946 q 371 1017 326 1017 q 440 1003 414 1018 q 488 973 465 988 q 543 958 510 958 q 594 976 569 957 q 638 1029 618 996 l 697 997 q 625 883 669 917 q 542 850 581 850 q 474 865 503 850 q 422 894 446 879 q 368 910 399 910 q 323 897 350 910 q 275 850 296 883 z "},"æ":{"ha":1022,"x_min":26,"x_max":978,"o":"m 754 710 q 845 697 807 710 q 908 661 883 683 q 944 608 932 639 q 957 543 957 578 q 928 457 957 494 q 847 392 899 419 q 724 347 794 365 q 572 318 654 328 q 591 189 572 239 q 642 116 610 139 q 715 93 675 93 q 781 107 746 93 q 851 153 817 121 q 911 239 886 185 l 978 204 q 888 69 938 117 q 786 3 839 21 q 682 -15 733 -15 q 558 12 606 -17 q 475 94 511 40 q 347 9 414 32 q 218 -15 281 -14 q 74 33 122 -15 q 29 158 26 82 q 67 266 32 222 q 160 336 103 310 q 288 374 218 363 q 428 386 358 385 q 430 422 429 403 q 432 471 431 442 q 428 550 436 514 q 398 608 421 586 q 331 628 375 629 q 267 614 296 628 q 221 574 238 600 q 233 548 231 563 q 235 522 235 533 q 212 471 233 496 q 150 446 190 446 q 96 472 115 447 q 78 529 76 496 q 117 618 81 576 q 216 685 153 660 q 358 710 279 710 q 471 685 425 710 q 536 600 517 660 q 633 681 576 653 q 754 710 689 710 m 424 315 q 340 304 382 311 q 265 282 299 297 q 211 242 232 267 q 189 181 190 218 q 216 118 188 138 q 274 97 244 99 q 360 113 314 96 q 435 161 406 131 q 425 240 428 203 q 424 315 422 276 m 736 633 q 653 599 686 633 q 601 511 621 565 q 576 393 582 457 q 703 427 650 406 q 785 482 757 449 q 813 557 814 515 q 800 603 813 588 q 770 626 788 619 q 736 633 753 633 z "},"b":{"ha":711,"x_min":31,"x_max":658,"o":"m 299 1049 q 288 958 293 1008 q 277 859 282 907 q 269 782 272 811 q 262 704 267 751 q 251 604 257 657 q 239 501 246 551 l 242 501 q 295 606 267 565 q 354 669 324 647 q 414 701 385 692 q 468 710 443 710 q 578 673 536 710 q 639 576 619 636 q 658 447 658 517 q 637 270 658 354 q 571 122 615 186 q 454 21 526 57 q 279 -15 382 -15 q 220 -12 257 -15 q 144 -1 183 -8 q 69 19 104 7 q 81 235 76 139 q 92 422 86 332 q 103 607 97 513 q 117 814 110 701 q 122 869 119 842 q 128 924 124 897 q 76 922 104 922 q 31 919 49 921 l 36 1008 q 139 1015 99 1008 q 202 1031 179 1021 q 235 1049 225 1040 l 299 1049 m 417 603 q 358 573 386 603 q 305 492 329 543 q 262 374 281 440 q 232 232 243 307 q 219 81 221 157 q 258 67 233 72 q 300 63 282 63 q 384 88 350 63 q 440 157 418 114 q 474 251 463 200 q 488 354 485 303 q 492 449 492 406 q 469 567 490 531 q 417 603 449 604 z "},"c":{"ha":651,"x_min":43,"x_max":611,"o":"m 382 710 q 494 689 444 710 q 572 631 543 668 q 601 544 601 594 q 580 483 601 507 q 522 458 558 458 q 462 483 479 457 q 444 531 444 510 q 448 558 444 543 q 460 588 451 574 q 432 620 454 608 q 379 632 410 632 q 297 601 329 632 q 247 524 265 571 q 219 423 228 476 q 211 322 211 369 q 227 190 208 240 q 277 117 246 140 q 344 93 308 94 q 409 103 374 92 q 479 148 444 114 q 542 247 514 182 l 611 214 q 526 76 574 126 q 424 6 478 26 q 314 -15 371 -15 q 117 60 192 -14 q 43 288 43 133 q 63 429 43 356 q 125 566 83 503 q 231 669 167 629 q 382 710 294 710 z "},"ć":{"ha":651,"x_min":43,"x_max":611,"o":"m 382 710 q 494 689 444 710 q 572 631 543 668 q 601 544 601 594 q 580 483 601 507 q 522 458 558 458 q 462 483 479 457 q 444 531 444 510 q 448 558 444 543 q 460 588 451 574 q 432 620 454 608 q 379 632 410 632 q 297 601 329 632 q 247 524 265 571 q 219 423 228 476 q 211 322 211 369 q 227 190 208 240 q 277 117 246 140 q 344 93 308 94 q 409 103 374 92 q 479 148 444 114 q 542 247 514 182 l 611 214 q 526 76 574 126 q 424 6 478 26 q 314 -15 371 -15 q 117 60 192 -14 q 43 288 43 133 q 63 429 43 356 q 125 566 83 503 q 231 669 167 629 q 382 710 294 710 m 321 790 l 269 838 l 388 1028 q 426 1066 404 1054 q 469 1076 449 1078 q 504 1061 490 1075 q 524 1025 521 1046 q 518 981 528 1004 q 486 938 508 957 l 321 790 z "},"č":{"ha":651,"x_min":43,"x_max":625,"o":"m 382 710 q 494 689 444 710 q 572 631 543 668 q 601 544 601 594 q 580 483 601 507 q 522 458 558 458 q 462 483 479 457 q 444 531 444 510 q 448 558 444 543 q 460 588 451 574 q 432 620 454 608 q 379 632 410 632 q 297 601 329 632 q 247 524 265 571 q 219 423 228 476 q 211 322 211 369 q 227 190 208 240 q 277 117 246 140 q 344 93 308 94 q 409 103 374 92 q 479 148 444 114 q 542 247 514 182 l 611 214 q 526 76 574 126 q 424 6 478 26 q 314 -15 371 -15 q 117 60 192 -14 q 43 288 43 133 q 63 429 43 356 q 125 566 83 503 q 231 669 167 629 q 382 710 294 710 m 378 794 l 171 1026 l 221 1081 l 394 931 l 396 931 l 582 1085 l 625 1031 l 389 794 l 378 794 z "},"ç":{"ha":651,"x_min":43,"x_max":611,"o":"m 382 710 q 494 689 444 710 q 572 631 543 668 q 601 544 601 594 q 580 483 601 507 q 522 458 558 458 q 462 483 479 457 q 444 531 444 510 q 448 558 444 543 q 460 588 451 574 q 432 620 454 608 q 379 632 410 632 q 297 601 329 632 q 247 524 265 571 q 219 423 228 476 q 211 322 211 369 q 227 190 208 240 q 277 117 246 140 q 344 93 308 94 q 409 103 374 92 q 479 148 444 114 q 542 247 514 182 l 611 214 q 526 76 574 126 q 424 6 478 26 q 314 -15 371 -15 q 117 60 192 -14 q 43 288 43 133 q 63 429 43 356 q 125 566 83 503 q 231 669 167 629 q 382 710 294 710 m 174 -351 l 167 -289 q 219 -277 190 -285 q 276 -258 249 -269 q 322 -231 304 -247 q 342 -194 340 -215 q 324 -162 343 -169 q 281 -160 306 -154 q 240 -178 257 -165 l 190 -154 l 242 13 l 336 13 l 292 -100 q 339 -83 311 -89 q 388 -76 367 -76 q 458 -101 431 -76 q 482 -171 485 -125 q 444 -249 478 -217 q 363 -301 411 -281 q 263 -334 314 -322 q 174 -351 213 -346 z "},"ĉ":{"ha":651,"x_min":43,"x_max":632,"o":"m 382 710 q 494 689 444 710 q 572 631 543 668 q 601 544 601 594 q 580 483 601 507 q 522 458 558 458 q 462 483 479 457 q 444 531 444 510 q 448 558 444 543 q 460 588 451 574 q 432 620 454 608 q 379 632 410 632 q 297 601 329 632 q 247 524 265 571 q 219 423 228 476 q 211 322 211 369 q 227 190 208 240 q 277 117 246 140 q 344 93 308 94 q 409 103 374 92 q 479 148 444 114 q 542 247 514 182 l 611 214 q 526 76 574 126 q 424 6 478 26 q 314 -15 371 -15 q 117 60 192 -14 q 43 288 43 133 q 63 429 43 356 q 125 566 83 503 q 231 669 167 629 q 382 710 294 710 m 579 796 l 406 944 l 404 944 l 215 801 l 172 857 l 417 1083 l 426 1083 l 632 851 l 579 796 z "},"ċ":{"ha":651,"x_min":43,"x_max":611,"o":"m 382 710 q 494 689 444 710 q 572 631 543 668 q 601 544 601 594 q 580 483 601 507 q 522 458 558 458 q 462 483 479 457 q 444 531 444 510 q 448 558 444 543 q 460 588 451 574 q 432 620 454 608 q 379 632 410 632 q 297 601 329 632 q 247 524 265 571 q 219 423 228 476 q 211 322 211 369 q 227 190 208 240 q 277 117 246 140 q 344 93 308 94 q 409 103 374 92 q 479 148 444 114 q 542 247 514 182 l 611 214 q 526 76 574 126 q 424 6 478 26 q 314 -15 371 -15 q 117 60 192 -14 q 43 288 43 133 q 63 429 43 356 q 125 566 83 503 q 231 669 167 629 q 382 710 294 710 m 404 1032 q 465 1005 442 1032 q 485 938 488 978 q 458 872 483 900 q 394 844 432 844 q 334 872 357 844 q 313 938 311 900 q 342 1005 315 978 q 404 1032 369 1032 z "},"d":{"ha":779,"x_min":43,"x_max":774,"o":"m 243 -15 q 131 20 175 -15 q 65 115 86 56 q 43 250 43 175 q 85 487 43 383 q 215 650 128 590 q 435 710 303 710 q 471 709 449 710 q 506 706 493 708 q 516 807 511 765 q 524 878 521 849 q 532 924 528 907 q 480 922 508 922 q 433 919 451 921 l 439 1008 q 543 1015 503 1008 q 606 1031 583 1021 q 639 1049 629 1040 l 703 1049 q 677 840 690 950 q 649 600 664 729 q 628 420 639 508 q 612 261 618 332 q 606 146 606 190 q 612 107 606 119 q 632 94 618 94 q 670 120 650 94 q 710 213 690 146 l 774 194 q 755 131 768 167 q 719 61 742 94 q 665 6 697 28 q 588 -15 632 -15 q 508 14 539 -15 q 478 111 478 43 q 481 168 478 143 q 489 226 483 193 l 486 226 q 410 76 451 129 q 325 4 368 24 q 243 -15 282 -15 m 288 90 q 358 131 325 90 q 419 239 392 171 q 464 390 447 307 q 482 497 475 440 q 496 619 489 554 q 457 628 482 625 q 415 632 432 632 q 328 606 364 632 q 269 538 292 581 q 233 446 246 496 q 215 347 219 396 q 210 258 210 297 q 229 135 210 179 q 288 90 249 90 z "},"ð":{"ha":722,"x_min":46,"x_max":651,"o":"m 422 1103 l 486 1043 l 413 968 q 541 840 488 917 q 623 664 594 763 q 651 450 651 565 q 628 258 651 344 q 562 111 606 172 q 454 17 518 50 q 310 -15 390 -15 q 180 17 240 -15 q 83 119 119 50 q 46 301 46 189 q 65 444 46 374 q 124 571 85 514 q 222 663 164 628 q 357 696 281 697 q 440 678 407 696 q 496 632 472 660 q 471 727 492 678 q 419 819 450 776 q 353 886 389 861 l 265 783 l 197 847 l 274 932 q 212 958 246 947 q 135 974 178 969 l 150 1054 q 260 1040 213 1053 q 344 1010 308 1026 l 422 1103 m 371 617 q 285 575 321 617 q 229 464 249 533 q 210 313 210 394 q 239 132 210 200 q 331 64 268 64 q 395 85 368 64 q 442 144 422 107 q 472 226 461 182 q 488 317 483 271 q 493 404 493 364 q 481 513 493 465 q 442 589 468 561 q 371 617 415 617 z "},"ď":{"ha":894,"x_min":43,"x_max":942,"o":"m 243 -15 q 131 20 175 -15 q 65 115 86 56 q 43 250 43 175 q 85 487 43 383 q 215 650 128 590 q 435 710 303 710 q 471 709 449 710 q 506 706 493 708 q 516 807 511 765 q 524 878 521 849 q 532 924 528 907 q 480 922 508 922 q 433 919 451 921 l 439 1008 q 543 1015 503 1008 q 606 1031 583 1021 q 639 1049 629 1040 l 703 1049 q 677 840 690 950 q 649 600 664 729 q 628 420 639 508 q 612 261 618 332 q 606 146 606 190 q 612 107 606 119 q 632 94 618 94 q 670 120 650 94 q 710 213 690 146 l 774 194 q 755 131 768 167 q 719 61 742 94 q 665 6 697 28 q 588 -15 632 -15 q 508 14 539 -15 q 478 111 478 43 q 481 168 478 143 q 489 226 483 193 l 486 226 q 410 76 451 129 q 325 4 368 24 q 243 -15 282 -15 m 288 90 q 358 131 325 90 q 419 239 392 171 q 464 390 447 307 q 482 497 475 440 q 496 619 489 554 q 457 628 482 625 q 415 632 432 632 q 328 606 364 632 q 269 538 292 581 q 233 446 246 496 q 215 347 219 396 q 210 258 210 297 q 229 135 210 179 q 288 90 249 90 m 818 760 l 769 796 q 815 906 803 857 q 823 999 826 956 q 808 1086 819 1043 l 922 1064 q 938 1020 935 1039 q 939 974 942 1001 q 899 860 933 917 q 818 760 864 804 z "},"đ":{"ha":779,"x_min":43,"x_max":779,"o":"m 779 860 l 775 779 l 275 774 l 281 860 l 779 860 m 243 -15 q 131 20 175 -15 q 65 115 86 56 q 43 250 43 175 q 85 487 43 383 q 215 650 128 590 q 435 710 303 710 q 471 709 449 710 q 506 706 493 708 q 516 807 511 765 q 524 878 521 849 q 532 924 528 907 q 480 922 508 922 q 433 919 451 921 l 439 1008 q 543 1015 503 1008 q 606 1031 583 1021 q 639 1049 629 1040 l 703 1049 q 677 840 690 950 q 649 600 664 729 q 628 420 639 508 q 612 261 618 332 q 606 146 606 190 q 612 107 606 119 q 632 94 618 94 q 670 120 650 94 q 710 213 690 146 l 774 194 q 755 131 768 167 q 719 61 742 94 q 665 6 697 28 q 588 -15 632 -15 q 508 14 539 -15 q 478 111 478 43 q 481 168 478 143 q 489 226 483 193 l 486 226 q 410 76 451 129 q 325 4 368 24 q 243 -15 282 -15 m 288 90 q 358 131 325 90 q 419 239 392 171 q 464 390 447 307 q 482 497 475 440 q 496 619 489 554 q 457 628 482 625 q 415 632 432 632 q 328 606 364 632 q 269 538 292 581 q 233 446 246 496 q 215 347 219 396 q 210 258 210 297 q 229 135 210 179 q 288 90 249 90 z "},"e":{"ha":656,"x_min":43,"x_max":610,"o":"m 390 710 q 494 692 447 710 q 567 638 540 675 q 593 540 593 600 q 558 443 593 483 q 465 377 522 403 q 340 335 407 351 q 211 311 274 318 q 229 181 211 229 q 278 113 247 133 q 347 93 310 93 q 412 105 376 93 q 482 149 447 117 q 543 238 517 181 l 610 204 q 524 72 571 119 q 424 4 476 24 q 314 -15 371 -15 q 114 61 185 -17 q 43 286 43 139 q 64 433 43 358 q 127 569 85 507 q 235 671 169 632 q 390 710 300 710 m 374 633 q 288 597 321 633 q 237 503 254 560 q 214 388 219 447 q 340 424 289 400 q 419 482 392 449 q 447 556 447 515 q 425 613 446 593 q 374 633 404 633 z "},"é":{"ha":656,"x_min":43,"x_max":610,"o":"m 390 710 q 494 692 447 710 q 567 638 540 675 q 593 540 593 600 q 558 443 593 483 q 465 377 522 403 q 340 335 407 351 q 211 311 274 318 q 229 181 211 229 q 278 113 247 133 q 347 93 310 93 q 412 105 376 93 q 482 149 447 117 q 543 238 517 181 l 610 204 q 524 72 571 119 q 424 4 476 24 q 314 -15 371 -15 q 114 61 185 -17 q 43 286 43 139 q 64 433 43 358 q 127 569 85 507 q 235 671 169 632 q 390 710 300 710 m 374 633 q 288 597 321 633 q 237 503 254 560 q 214 388 219 447 q 340 424 289 400 q 419 482 392 449 q 447 556 447 515 q 425 613 446 593 q 374 633 404 633 m 299 792 l 247 839 l 365 1029 q 404 1067 382 1056 q 447 1078 426 1079 q 482 1063 468 1076 q 502 1026 499 1047 q 496 982 506 1006 q 464 939 486 958 l 299 792 z "},"ĕ":{"ha":656,"x_min":43,"x_max":610,"o":"m 390 710 q 494 692 447 710 q 567 638 540 675 q 593 540 593 600 q 558 443 593 483 q 465 377 522 403 q 340 335 407 351 q 211 311 274 318 q 229 181 211 229 q 278 113 247 133 q 347 93 310 93 q 412 105 376 93 q 482 149 447 117 q 543 238 517 181 l 610 204 q 524 72 571 119 q 424 4 476 24 q 314 -15 371 -15 q 114 61 185 -17 q 43 286 43 139 q 64 433 43 358 q 127 569 85 507 q 235 671 169 632 q 390 710 300 710 m 374 633 q 288 597 321 633 q 237 503 254 560 q 214 388 219 447 q 340 424 289 400 q 419 482 392 449 q 447 556 447 515 q 425 613 446 593 q 374 633 404 633 m 375 785 q 266 819 322 785 q 181 931 210 853 l 238 956 q 296 899 258 924 q 382 874 333 874 q 468 899 432 874 q 528 957 504 925 l 581 935 q 493 820 546 856 q 375 785 440 785 z "},"ě":{"ha":656,"x_min":43,"x_max":610,"o":"m 390 710 q 494 692 447 710 q 567 638 540 675 q 593 540 593 600 q 558 443 593 483 q 465 377 522 403 q 340 335 407 351 q 211 311 274 318 q 229 181 211 229 q 278 113 247 133 q 347 93 310 93 q 412 105 376 93 q 482 149 447 117 q 543 238 517 181 l 610 204 q 524 72 571 119 q 424 4 476 24 q 314 -15 371 -15 q 114 61 185 -17 q 43 286 43 139 q 64 433 43 358 q 127 569 85 507 q 235 671 169 632 q 390 710 300 710 m 374 633 q 288 597 321 633 q 237 503 254 560 q 214 388 219 447 q 340 424 289 400 q 419 482 392 449 q 447 556 447 515 q 425 613 446 593 q 374 633 404 633 m 356 796 l 149 1028 l 199 1082 l 372 932 l 374 932 l 560 1086 l 603 1032 l 367 796 l 356 796 z "},"ê":{"ha":656,"x_min":43,"x_max":611,"o":"m 390 710 q 494 692 447 710 q 567 638 540 675 q 593 540 593 600 q 558 443 593 483 q 465 377 522 403 q 340 335 407 351 q 211 311 274 318 q 229 181 211 229 q 278 113 247 133 q 347 93 310 93 q 412 105 376 93 q 482 149 447 117 q 543 238 517 181 l 610 204 q 524 72 571 119 q 424 4 476 24 q 314 -15 371 -15 q 114 61 185 -17 q 43 286 43 139 q 64 433 43 358 q 127 569 85 507 q 235 671 169 632 q 390 710 300 710 m 374 633 q 288 597 321 633 q 237 503 254 560 q 214 388 219 447 q 340 424 289 400 q 419 482 392 449 q 447 556 447 515 q 425 613 446 593 q 374 633 404 633 m 558 797 l 385 946 l 383 946 l 194 803 l 151 858 l 396 1085 l 406 1085 l 611 853 l 558 797 z "},"ế":{"ha":656,"x_min":43,"x_max":753,"o":"m 390 710 q 494 692 447 710 q 567 638 540 675 q 593 540 593 600 q 558 443 593 483 q 465 377 522 403 q 340 335 407 351 q 211 311 274 318 q 229 181 211 229 q 278 113 247 133 q 347 93 310 93 q 412 105 376 93 q 482 149 447 117 q 543 238 517 181 l 610 204 q 524 72 571 119 q 424 4 476 24 q 314 -15 371 -15 q 114 61 185 -17 q 43 286 43 139 q 64 433 43 358 q 127 569 85 507 q 235 671 169 632 q 390 710 300 710 m 374 633 q 288 597 321 633 q 237 503 254 560 q 214 388 219 447 q 340 424 289 400 q 419 482 392 449 q 447 556 447 515 q 425 613 446 593 q 374 633 404 633 m 542 779 l 374 863 l 199 781 l 165 835 l 376 979 l 389 979 l 582 839 l 542 779 m 581 918 l 538 957 l 636 1114 q 668 1147 650 1138 q 703 1155 686 1156 q 732 1142 719 1154 q 748 1094 753 1124 q 718 1040 743 1064 l 581 918 z "},"ệ":{"ha":656,"x_min":43,"x_max":610,"o":"m 542 779 l 374 863 l 199 781 l 167 835 l 376 979 l 390 979 l 582 839 l 542 779 m 390 710 q 494 692 447 710 q 567 638 540 675 q 593 540 593 600 q 558 443 593 483 q 465 377 522 403 q 340 335 407 351 q 211 311 274 318 q 229 181 211 229 q 278 113 247 133 q 347 93 310 93 q 412 105 376 93 q 482 149 447 117 q 543 238 517 181 l 610 204 q 524 72 571 119 q 424 4 476 24 q 314 -15 371 -15 q 114 61 185 -17 q 43 286 43 139 q 64 433 43 358 q 127 569 85 507 q 235 671 169 632 q 390 710 300 710 m 374 633 q 288 597 321 633 q 237 503 254 560 q 214 388 219 447 q 340 424 289 400 q 419 482 392 449 q 447 556 447 515 q 425 613 446 593 q 374 633 404 633 m 286 -101 q 340 -126 319 -101 q 358 -186 361 -151 q 334 -245 357 -221 q 278 -269 311 -269 q 224 -245 244 -269 q 204 -186 203 -221 q 231 -126 206 -151 q 286 -101 256 -101 z "},"ề":{"ha":656,"x_min":43,"x_max":610,"o":"m 390 710 q 494 692 447 710 q 567 638 540 675 q 593 540 593 600 q 558 443 593 483 q 465 377 522 403 q 340 335 407 351 q 211 311 274 318 q 229 181 211 229 q 278 113 247 133 q 347 93 310 93 q 412 105 376 93 q 482 149 447 117 q 543 238 517 181 l 610 204 q 524 72 571 119 q 424 4 476 24 q 314 -15 371 -15 q 114 61 185 -17 q 43 286 43 139 q 64 433 43 358 q 127 569 85 507 q 235 671 169 632 q 390 710 300 710 m 374 633 q 288 597 321 633 q 237 503 254 560 q 214 388 219 447 q 340 424 289 400 q 419 482 392 449 q 447 556 447 515 q 425 613 446 593 q 374 633 404 633 m 543 779 l 374 863 l 199 781 l 167 835 l 378 979 l 390 979 l 582 839 l 543 779 m 542 944 l 411 1071 q 383 1126 385 1097 q 401 1175 381 1156 q 432 1188 415 1186 q 466 1179 449 1189 q 496 1147 483 1169 l 589 985 l 542 944 z "},"ể":{"ha":656,"x_min":43,"x_max":713,"o":"m 390 710 q 494 692 447 710 q 567 638 540 675 q 593 540 593 600 q 558 443 593 483 q 465 377 522 403 q 340 335 407 351 q 211 311 274 318 q 229 181 211 229 q 278 113 247 133 q 347 93 310 93 q 412 105 376 93 q 482 149 447 117 q 543 238 517 181 l 610 204 q 524 72 571 119 q 424 4 476 24 q 314 -15 371 -15 q 114 61 185 -17 q 43 286 43 139 q 64 433 43 358 q 127 569 85 507 q 235 671 169 632 q 390 710 300 710 m 374 633 q 288 597 321 633 q 237 503 254 560 q 214 388 219 447 q 340 424 289 400 q 419 482 392 449 q 447 556 447 515 q 425 613 446 593 q 374 633 404 633 m 542 779 l 374 863 l 199 781 l 165 835 l 376 979 l 389 979 l 582 839 l 542 779 m 543 936 q 563 976 544 963 q 597 1007 582 990 q 614 1031 607 1018 q 622 1058 621 1044 q 607 1102 625 1086 q 558 1118 589 1118 q 510 1106 528 1118 q 490 1081 493 1093 q 510 1071 504 1079 q 517 1053 517 1063 q 503 1026 515 1038 q 472 1014 492 1014 q 431 1031 447 1014 q 415 1075 414 1047 q 457 1149 418 1114 q 563 1183 496 1183 q 674 1151 636 1183 q 710 1071 713 1119 q 691 1017 708 1036 q 651 983 674 999 q 625 959 636 971 q 613 936 614 947 l 543 936 z "},"ễ":{"ha":656,"x_min":43,"x_max":610,"o":"m 390 710 q 494 692 447 710 q 567 638 540 675 q 593 540 593 600 q 558 443 593 483 q 465 377 522 403 q 340 335 407 351 q 211 311 274 318 q 229 181 211 229 q 278 113 247 133 q 347 93 310 93 q 412 105 376 93 q 482 149 447 117 q 543 238 517 181 l 610 204 q 524 72 571 119 q 424 4 476 24 q 314 -15 371 -15 q 114 61 185 -17 q 43 286 43 139 q 64 433 43 358 q 127 569 85 507 q 235 671 169 632 q 390 710 300 710 m 374 633 q 288 597 321 633 q 237 503 254 560 q 214 388 219 447 q 340 424 289 400 q 419 482 392 449 q 447 556 447 515 q 425 613 446 593 q 374 633 404 633 m 543 779 l 374 863 l 199 781 l 167 835 l 378 979 l 390 979 l 582 839 l 543 779 m 246 986 l 196 1017 q 251 1094 214 1064 q 325 1124 289 1124 q 382 1111 361 1124 q 422 1086 403 1099 q 467 1074 440 1074 q 510 1090 490 1074 q 544 1133 529 1106 l 594 1107 q 535 1012 572 1039 q 465 985 499 985 q 410 997 433 985 q 367 1022 388 1010 q 324 1035 347 1035 q 285 1024 307 1035 q 246 986 263 1013 z "},"ë":{"ha":656,"x_min":43,"x_max":610,"o":"m 390 710 q 494 692 447 710 q 567 638 540 675 q 593 540 593 600 q 558 443 593 483 q 465 377 522 403 q 340 335 407 351 q 211 311 274 318 q 229 181 211 229 q 278 113 247 133 q 347 93 310 93 q 412 105 376 93 q 482 149 447 117 q 543 238 517 181 l 610 204 q 524 72 571 119 q 424 4 476 24 q 314 -15 371 -15 q 114 61 185 -17 q 43 286 43 139 q 64 433 43 358 q 127 569 85 507 q 235 671 169 632 q 390 710 300 710 m 374 633 q 288 597 321 633 q 237 503 254 560 q 214 388 219 447 q 340 424 289 400 q 419 482 392 449 q 447 556 447 515 q 425 613 446 593 q 374 633 404 633 m 486 840 q 431 867 453 840 q 410 931 408 893 q 436 1001 410 972 q 497 1031 463 1031 q 551 1004 531 1031 q 572 940 572 978 q 546 869 571 899 q 486 840 521 840 m 257 840 q 201 867 224 840 q 181 931 179 893 q 207 1001 181 972 q 268 1031 233 1031 q 322 1004 301 1031 q 343 940 343 978 q 317 869 342 899 q 257 840 292 840 z "},"ė":{"ha":656,"x_min":43,"x_max":610,"o":"m 390 710 q 494 692 447 710 q 567 638 540 675 q 593 540 593 600 q 558 443 593 483 q 465 377 522 403 q 340 335 407 351 q 211 311 274 318 q 229 181 211 229 q 278 113 247 133 q 347 93 310 93 q 412 105 376 93 q 482 149 447 117 q 543 238 517 181 l 610 204 q 524 72 571 119 q 424 4 476 24 q 314 -15 371 -15 q 114 61 185 -17 q 43 286 43 139 q 64 433 43 358 q 127 569 85 507 q 235 671 169 632 q 390 710 300 710 m 374 633 q 288 597 321 633 q 237 503 254 560 q 214 388 219 447 q 340 424 289 400 q 419 482 392 449 q 447 556 447 515 q 425 613 446 593 q 374 633 404 633 m 382 1033 q 442 1006 419 1033 q 463 939 465 979 q 435 874 461 901 q 372 846 410 846 q 312 874 335 846 q 290 939 289 901 q 320 1006 293 979 q 382 1033 347 1033 z "}}}
